SplineFontDB: 3.0
FontName: KleiBook
FullName: Klei Book
FamilyName: Klei
Weight: Book
Copyright: Copyright (c) 2015, Joseph Steck, Rocketroom, LLC. All rights reserved.
UComments: "For my beloved Alisa +ACIA-Clay+ACIA Steck+AAoA-2015-02-14: Created with FontForge (http://fontforge.org)"
Version: 001.000
ItalicAngle: 0
UnderlinePosition: -100
UnderlineWidth: 50
Ascent: 768
Descent: 232
InvalidEm: 0
LayerCount: 2
Layer: 0 0 "Back" 1
Layer: 1 0 "Fore" 0
PreferredKerning: 4
XUID: [1021 610 -1734517455 9502657]
FSType: 0
OS2Version: 3
OS2_WeightWidthSlopeOnly: 0
OS2_UseTypoMetrics: 1
CreationTime: 1424325067
ModificationTime: 1534320492
PfmFamily: 17
TTFWeight: 400
TTFWidth: 5
LineGap: 90
VLineGap: 0
Panose: 2 0 5 3 0 0 0 0 0 0
OS2TypoAscent: 0
OS2TypoAOffset: 1
OS2TypoDescent: 0
OS2TypoDOffset: 1
OS2TypoLinegap: 90
OS2WinAscent: 0
OS2WinAOffset: 1
OS2WinDescent: 0
OS2WinDOffset: 1
HheadAscent: 0
HheadAOffset: 1
HheadDescent: 0
HheadDOffset: 1
OS2Vendor: 'PfEd'
OS2CodePages: 20000001.00000000
OS2UnicodeRanges: 00000005.00000000.00000000.00000000
Lookup: 4 0 1 "'liga' Standard Ligatures in Latin lookup 0" { "'liga' ffi"  "'liga' ffl"  "'liga' fi"  "'liga' ff"  "'liga' fl"  } ['liga' ('DFLT' <'dflt' > 'latn' <'dflt' > ) ]

StartChar: s
Encoding: 115 115 0
GlifName: s
Width: 449
VWidth: 0
Flags: W
HStem: -10 30.4434<166.473 281.643> 479.515 26.2139<200.188 291.335>
VStem: 49.0039 60.873<67.9799 119.28> 82.6777 76.4834<357.274 439.368> 324.924 73.791<69.9752 160.735>
LayerCount: 2
Fore
SplineSet
109.876953125 128.182617188 m 0xe8
 113.624023438 94.0263671875 136.008789062 20.443359375 225.234375 20.443359375 c 0
 286.083984375 20.443359375 324.923828125 63.7119140625 324.923828125 112.604492188 c 0
 324.923828125 159.173828125 266.746133606 196.133789062 213.700747563 227.471679688 c 0
 167.2578125 255.05859375 82.677734375 301.298828125 82.677734375 370.005859375 c 0
 82.677734375 439.794921875 140.826171875 505.728515625 246.946045221 505.728515625 c 0
 307.383789062 505.728515625 372.122070312 487.63671875 372.122070312 464 c 0
 372.122070312 453.447265625 359.079101562 402.336914062 343 402.336914062 c 0
 321.2421875 402.336914062 319.823242188 479.514648438 249.384765625 479.514648438 c 0
 184.303710938 479.514648438 159.161132812 432.017578125 159.161132812 399.092773438 c 0xd8
 159.161132812 352.291992188 242.629608042 311.19921875 285.734375 284.750976562 c 0
 338.958007812 248.188476562 398.71484375 204.923828125 398.71484375 143.517578125 c 0
 398.71484375 58.83203125 324.262695312 -10 224.517586893 -10 c 0
 104.216796875 -10 49.00390625 49.1689453125 49.00390625 83 c 0
 49.00390625 101.434570312 84.2587890625 137.54296875 100 137.54296875 c 0
 105.674804688 137.54296875 109.3984375 132.551757812 109.876953125 128.182617188 c 0xe8
EndSplineSet
Validated: 1
EndChar

StartChar: W
Encoding: 87 87 1
GlifName: W_
Width: 1071
VWidth: 0
Flags: W
HStem: -7.8291 21G<395.83 404.127 699.723 708.094> 711.011 18.9893<60 95.431 225.395 260.98 366.57 398.096 514.644 549.838 605.315 639.631 724.5 759.429 883.024 918.329 999.779 1036>
LayerCount: 2
Fore
SplineSet
933 678 m 0
 933 696.315429688 910.263671875 710.651367188 890.057617188 710.91796875 c 2
 883.024414062 711.010742188 l 1
 883.024414062 730 l 1
 1036 730 l 1
 1036 711.577148438 l 1
 1029.09375 711.486328125 l 2
 997.899414062 711.076171875 991.428710938 693.634765625 979 666 c 2
 979 666 752.282226562 79.9091796875 729.326171875 25.2705078125 c 1
 724.583007812 14.5498046875 721.118164062 7.0390625 721.08203125 6.9599609375 c 0
 717.247070312 -1.486328125 712.215820312 -7.8291015625 703.97265625 -7.8291015625 c 0
 695.473632812 -7.8291015625 691.587890625 -0.28515625 688.559570312 6.734375 c 0
 685.620117188 13.5458984375 626.369140625 173.615234375 557.975585938 340.579101562 c 1
 425.33203125 25.564453125 l 0
 420.650390625 14.7744140625 417.131835938 7 417.114257812 6.9609375 c 0
 413.280273438 -1.486328125 408.249023438 -7.8291015625 400.004882812 -7.8291015625 c 0
 391.654296875 -7.8291015625 387.509765625 -0.4833984375 384.530273438 6.880859375 c 0
 379.506835938 19.0654296875 188.9921875 485.73046875 118.155273438 656.700195312 c 0
 111.2578125 672.9453125 l 0
 100.12890625 699.716796875 94.9658203125 710.116210938 66.90625 710.486328125 c 2
 60 710.577148438 l 1
 60 730 l 1
 260.98046875 730 l 1
 260.98046875 711.010742188 l 1
 254.947265625 710.91796875 l 2
 233.10546875 710.627929688 208.865234375 696.48046875 208.865234375 675 c 0
 208.865234375 670.379882812 210.08203125 668.720703125 212.34375 661.508789062 c 1
 424.078125 144.791992188 l 1
 534.100585938 398.892578125 l 1
 417 675 l 2
 406.806640625 698.91796875 391.247070312 710.685546875 373.604492188 710.91796875 c 2
 366.5703125 711.010742188 l 1
 366.5703125 730 l 1
 549.837890625 730 l 1
 549.837890625 711.14453125 l 1
 542.803710938 711.052734375 l 2
 521.973632812 710.780273438 500.602539062 696.186523438 500.602539062 678 c 0
 500.602539062 672.760742188 501.96875 668.474609375 505.576171875 659.311523438 c 1
 575.7890625 494.91015625 l 1
 599.377929688 549.239257812 622.044921875 601.559570312 645.296875 655.11328125 c 1
 651.517578125 668.959960938 652.875 672.303710938 652.875 679 c 0
 652.875 697.280273438 631.06640625 710.670898438 612.348632812 710.91796875 c 2
 605.315429688 711.010742188 l 1
 605.315429688 730 l 1
 759.428710938 730 l 1
 759.428710938 711.010742188 l 1
 752.39453125 710.91796875 l 2
 723.672851562 710.538085938 718.709960938 697.356445312 706.766601562 672.130859375 c 2
 607.168945312 440.826171875 l 1
 722.75390625 138.828125 l 1
 791.862304688 308.48828125 854.099609375 484.438476562 925.3984375 654.553710938 c 1
 929 662 933 671.157226562 933 678 c 0
EndSplineSet
Validated: 1
EndChar

StartChar: A
Encoding: 65 65 2
GlifName: A_
Width: 795
VWidth: 0
Flags: W
HStem: 0 20<40 75.3347 157.765 197 541 580.725 708.529 742> 305 43<272.264 470.952> 715.309 20G<399.423 415.594>
LayerCount: 2
Fore
SplineSet
94.5888671875 64.1318359375 m 1
 370.123046875 708.659179688 l 1
 371.51953125 709.752929688 l 0
 385.3671875 720.599609375 388.040039062 718.686523438 399.422851562 728.493164062 c 0
 407.178710938 735.30859375 l 1
 697.399414062 45.5390625 l 1
 704.770355585 30.6079733822 715.909179688 20 735 20 c 2
 742 20 l 1
 742 0 l 1
 541 0 l 1
 541 20 l 1
 548 20 l 2
 570.430664062 20 593.481445312 31.9729227757 593.481445312 53.3544921875 c 0
 593.481445312 58.466796875 593.161132812 64.0751953125 590.525390625 70.3125 c 0
 488.860351562 305 l 1
 255.412109375 305 l 0
 254.286132812 305 254.26171875 304.868164062 254.26171875 304.868164062 c 1
 254.069335938 304.694335938 253.337890625 303.592773438 252.287109375 301.204101562 c 0
 155.447265625 77.07421875 l 1
 149.5625 63.875 147.4765625 54.7001953125 147.4765625 48.5302734375 c 0
 147.4765625 30.1159821123 170.462890625 20 190 20 c 2
 197 20 l 1
 197 0 l 1
 40 0 l 1
 40 20 l 1
 47 20 l 2
 78.5341796875 20 81.8421474635 37.5790786699 94.5888671875 64.1318359375 c 1
372.107421875 585.541015625 m 1
 272.263671875 348 l 1
 470.952148438 348 l 1
 372.107421875 585.541015625 l 1
EndSplineSet
Validated: 1
EndChar

StartChar: O
Encoding: 79 79 3
GlifName: O_
Width: 828
VWidth: 0
Flags: W
HStem: -10 40.667<322.03 521.637> 694.77 39.0391<306.99 509.848>
VStem: 55 103.326<219.121 497.596> 672.246 101.326<236.526 499.166>
LayerCount: 2
Fore
SplineSet
411.301356174 733.80859375 m 0
 609.639825735 733.80859375 773.572265625 607.613096448 773.572265625 360.783203125 c 0
 773.572265625 123.736328125 577.114903275 -10 413.244931659 -10 c 0
 294.432311197 -10 55 53.6591796875 55 351.94921875 c 0
 55 599.623046875 217.101748266 733.80859375 411.301356174 733.80859375 c 0
403.975585938 694.76953125 m 0
 186.1484375 694.76953125 158.326171875 462.103515625 158.326171875 384.29296875 c 0
 158.326171875 57.96484375 347.994140625 30.6669921875 421.186523438 30.6669921875 c 4
 549.84375 30.6669921875 672.24609375 104.952148438 672.24609375 376.696289062 c 0
 672.24609375 539.615234375 603.345703125 694.76953125 403.975585938 694.76953125 c 0
EndSplineSet
Validated: 1
EndChar

StartChar: V
Encoding: 86 86 4
GlifName: V_
Width: 786
VWidth: 0
Flags: W
HStem: -8 21G<392.191 402.559> 711 19<50 85.0032 214.983 251.5 592.688 628.799 714.689 749>
LayerCount: 2
Fore
SplineSet
244.28125 711 m 6
 221.904296875 711 199.228515625 693.776367188 199.228515625 679.515625 c 0
 199.228515625 675.904296875 199.848876953 669.177734375 202.659606934 662.181640625 c 1
 417.529296875 145.461914062 l 1
 635.53125 655.7109375 l 1
 641.44921875 669.484375 643.591796875 673.051757812 643.591796875 679.165039062 c 0
 643.591796875 695.606445312 620.803710938 711 599.90625 711 c 6
 592.6875 711 l 5
 592.6875 730 l 1
 749 730 l 1
 749 711 l 5
 742 711 l 6
 713.400390625 711 708.611328125 695.818359375 694.309570312 668.627929688 c 1
 420.109375 24.9521484375 l 1
 414.922851562 13.1201171875 411.834960938 6.26953125 411.82421875 6.2451171875 c 0
 411.739257812 6.0546875 l 1
 411.643554688 5.869140625 l 0
 410.177734375 3.025390625 408.1796875 -8 396.9375 -8 c 0
 387.444335938 -8 383.720703125 -0.759765625 380.908203125 6.5146484375 c 0
 286.951171875 228.434570312 191.316506427 449.22485477 100 675.551757812 c 0
 90.2521960247 699.711577011 82.51953125 711 57 711 c 6
 50 711 l 5
 50 730 l 1
 251.5 730 l 1
 251.5 711 l 5
 244.28125 711 l 6
EndSplineSet
Validated: 1
EndChar

StartChar: H
Encoding: 72 72 5
GlifName: H_
Width: 817
VWidth: 0
Flags: W
HStem: 0 19.3047<54 94.8021 228.474 255.006 559.392 586.922 733.998 761.528> 378.446 41.9121<202.75 611.748> 711.214 18.7861<54.002 94.2491 228.525 255.054 559.392 586.923 734.358 760.887>
VStem: 109.115 93.334<23.5867 377.371 421.433 706.748> 611.749 96.5664<22.6813 377.293 423.427 707.563>
LayerCount: 2
Fore
SplineSet
398.822265625 378.446289062 m 4
 334.983398438 378.446289062 258.958007812 377.770507812 209.189453125 377.2109375 c 4
 206.693359375 377.046875 202.848632812 376.740234375 202.810546875 375.341796875 c 4
 202.5390625 340.002929688 202.44921875 299.5546875 202.44921875 264.05078125 c 0
 202.44921875 193.86328125 202.803710938 123.08984375 202.806640625 53.0869140625 c 1
 203.594726562 43.2919921875 212.659179688 24.7138671875 228.024414062 21.6630859375 c 0
 237.673828125 19.7470703125 244.146484375 19.447265625 255.005859375 19.3046875 c 1
 255.005859375 0 l 1
 54 0 l 1
 54 19.2919921875 l 1
 64.8544921875 19.4345703125 72.3349609375 19.73046875 81.98046875 21.6494140625 c 0
 98.2177734375 24.876953125 106.240234375 44.724609375 106.240234375 54.5224609375 c 1
 107.908203125 171.28125 109.115234375 287.7734375 109.115234375 404.247070312 c 0
 109.115234375 494.900390625 108.270507812 585.295898438 106.2578125 675.846679688 c 1
 106.247070312 685.356445312 98.15234375 705.541015625 81.984375 708.750976562 c 0
 72.333984375 710.66796875 64.861328125 710.96484375 54.001953125 711.106445312 c 1
 54.001953125 730 l 1
 255.053710938 730 l 1
 255.053710938 711.350585938 l 1
 244.200195312 711.2109375 237.721679688 710.915039062 228.075195312 709.004882812 c 0
 211.77734375 705.77734375 202.815429688 686.241210938 202.815429688 676.263671875 c 0
 202.815429688 621.204101562 202.659179688 563.138671875 202.659179688 508.098632812 c 0
 202.659179688 480.515625 202.696289062 448.692382812 202.811523438 423.390625 c 4
 202.825195312 422.17578125 206.256835938 421.77734375 208.540039062 421.591796875 c 4
 257.720703125 421.038085938 334.282226562 420.358398438 398.822265625 420.358398438 c 4
 466.629882812 420.358398438 553.234375 421.104492188 607.215820312 421.674804688 c 5
 610 421.674804688 611.749023438 423.426757812 611.749023438 423.426757812 c 5
 611.749023438 676.553710938 l 1
 611.63671875 686.53125 603.654296875 705.646484375 587.374023438 708.8671875 c 0
 577.724609375 710.776367188 570.247070312 711.072265625 559.391601562 711.213867188 c 1
 559.391601562 730 l 1
 760.88671875 730 l 1
 760.88671875 711.106445312 l 1
 750.028320312 710.96484375 743.555664062 710.669921875 733.908203125 708.750976562 c 0
 717.732421875 705.536132812 708.728515625 687.510742188 708.314453125 677.084960938 c 1
 706.284179688 585.07421875 705.447265625 492.666992188 705.447265625 400.322265625 c 0
 705.447265625 284.805664062 706.655273438 169.88671875 708.315429688 54.3232421875 c 1
 708.733398438 44.853515625 717.748046875 24.78515625 733.546875 21.6494140625 c 0
 743.197265625 19.734375 750.66796875 19.4345703125 761.528320312 19.2919921875 c 1
 761.528320312 0 l 1
 559.391601562 0 l 1
 559.391601562 19.3046875 l 1
 570.248046875 19.447265625 577.727539062 19.744140625 587.373046875 21.6630859375 c 0
 603.286132812 24.8271484375 611.506835938 43.7685546875 611.749023438 52.853515625 c 1
 611.749023438 375.379882812 l 6
 611.749023438 376.588867188 609.405273438 376.875 606.532226562 377.12890625 c 4
 552.712890625 377.696289062 465.694335938 378.446289062 398.822265625 378.446289062 c 4
EndSplineSet
Validated: 1
EndChar

StartChar: m
Encoding: 109 109 6
GlifName: m
Width: 899
VWidth: 0
Flags: W
HStem: 0 18.7012<57 84.5435 185.728 213.077 383.32 410.86 508.085 535.441 710.186 737.731 837.951 865.309> 471.892 16.0195<59.4092 85.5931> 477.936 33.3193<226.97 358.534 562.337 693.291>
VStem: 93.2275 83.6826<19.8901 452.587> 419.545 79.7266<19.901 403.973> 746.413 82.7275<19.9199 428.871>
LayerCount: 2
Fore
SplineSet
176.91015625 43.365234375 m 1xbc
 179.30487042 31.7275814946 190.771484375 18.8984375 206.169921875 18.701171875 c 2
 213.077148438 18.6123046875 l 1
 213.077148438 0 l 1
 57 0 l 1
 57 18.6015625 l 1
 63.9072265625 18.6904296875 l 2
 79.541015625 18.890625 91.0322265625 32.3447265625 93.2275390625 43.658203125 c 1
 93.2275390625 441.466796875 l 2
 93.2275390625 462.3203125 81.2158203125 471.891601562 64.4091796875 471.891601562 c 2
 59.4091796875 471.891601562 l 1
 59.4091796875 487.911132812 l 1xdc
 159.33203125 512.456054688 l 0
 161 513 163.4140625 513 164.380859375 513 c 0
 177.231445312 513 176.967773438 498.931640625 177.001953125 489.821289062 c 0
 177.001953125 482.668945312 176.999023438 473.956054688 176.997070312 467.791992188 c 1
 215.392942186 495.193359375 260.3046875 511.254882812 320.564453125 511.254882812 c 0
 383.514648438 511.254882812 443.709960938 487.41796875 477.08203125 431.501953125 c 1
 518.541015625 492.947265625 583.271484375 508.254882812 651.413085938 508.254882812 c 0
 739.147460938 508.254882812 829.208007812 455.98828125 829.208007812 346.090820312 c 0
 829.140625 43.470703125 l 1
 831.530273438 31.80859375 842.984375 18.96484375 858.401367188 18.767578125 c 2
 865.30859375 18.6787109375 l 1
 865.30859375 0 l 1
 710.185546875 0 l 1
 710.185546875 18.611328125 l 1
 717.092773438 18.69921875 l 2
 732.729492188 18.8994140625 744.220703125 32.3564453125 746.413085938 43.67578125 c 1
 746.413085938 351.447265625 l 0
 746.413085938 428.107421875 705.946289062 476.935546875 633.634765625 476.935546875 c 0
 594.698242188 476.935546875 538.65625 465.3125 497.830078125 404.26171875 c 1
 499.09375 398.043945312 499.33984375 395.352539062 499.33984375 389.859375 c 0
 499.271484375 43.380859375 l 1
 501.661132812 31.7294921875 513.125 18.896484375 528.534179688 18.69921875 c 2
 535.44140625 18.611328125 l 1
 535.44140625 0 l 1
 383.3203125 0 l 1
 383.3203125 18.6123046875 l 1
 390.227539062 18.701171875 l 2
 405.864257812 18.9013671875 417.340820312 32.3583984375 419.544921875 43.66796875 c 1
 419.544921875 358.264648438 l 0
 419.544921875 424.315429688 365.391601562 477.935546875 298.224609375 477.935546875 c 0
 256.184570312 477.935546875 214.319335938 465.344726562 176.989257812 439.392578125 c 1
 176.91015625 43.365234375 l 1xbc
EndSplineSet
Validated: 1
EndChar

StartChar: w
Encoding: 119 119 7
GlifName: w
Width: 828
VWidth: 0
Flags: W
HStem: -11 21.6299G<258.811 265.932 555.379 561.875> 493 13.3516<48 66.2153 162.225 183.002 342.252 364.157 452.582 477.563 683.526 707.162 773.787 791.332>
LayerCount: 2
Fore
SplineSet
683.526367188 493.651367188 m 1
 683.526367188 506.12109375 l 1
 791.33203125 506.12109375 l 1
 791.33203125 493.696289062 l 1
 776 493.696289062 763.369140625 478.015625 759 466 c 0
 758.240234375 463.897460938 727.24609375 393.295898438 688.212890625 300.396484375 c 0
 633.237304688 169.556640625 577.958007812 11.8759765625 573.03515625 2.4052734375 c 0
 569.15234375 -5.2734375 564.9296875 -10.3701171875 558.8203125 -10.3701171875 c 0
 551.9375 -10.3701171875 545.573242188 -3.4072265625 542.635742188 4.369140625 c 0
 523.180664062 55.865234375 501.8984375 126.907226562 440.826171875 290.048828125 c 0
 434.888671875 305.907226562 426.73046875 325.206054688 421.151367188 339.887695312 c 1
 416.643554688 329.14453125 413.458984375 321.500976562 409.400390625 311.694335938 c 0
 353.875976562 177.48828125 283.087890625 11.62890625 279.749023438 3.0244140625 c 0
 276.276367188 -5.9267578125 269.165039062 -11 262.698242188 -11 c 0
 254.922851562 -11 250.442382812 -4.166015625 247.197265625 2.943359375 c 0
 225.397460938 49.41015625 203.49609375 125.672851562 144.879882812 282.265625 c 0
 109.141601562 377.740234375 77.2314453125 464.4296875 77 465 c 0
 72.2373046875 476.18359375 69.2861328125 493.6328125 48 493.6328125 c 1
 48 506.3515625 l 1
 183.001953125 506.3515625 l 1
 183.001953125 493 l 1
 175.904296875 493 l 2
 160.7578125 493 157.736328125 478.548828125 157.736328125 470.467773438 c 0
 157.736328125 466.794921875 160.50390625 459.375 162 455 c 0
 162.0234375 454.926757812 179.907226562 400.51171875 209.528320312 319.5234375 c 0
 233.032226562 255.260742188 269.208007812 161.01171875 282 128 c 1
 298.25390625 164.48828125 335.970703125 252.416015625 363.455078125 319.674804688 c 0
 376.11328125 350.653320312 388.499023438 382.6875 397.186523438 405.70703125 c 1
 381.369140625 446.451171875 372.20703125 471.489257812 372 472 c 0
 366.288085938 485.333007812 363.826171875 493.29296875 342.251953125 493.29296875 c 1
 342.251953125 506.3515625 l 1
 477.563476562 506.3515625 l 1
 477.563476562 493 l 1
 471.46484375 493 l 2
 457.127929688 493 449.372070312 486.724609375 449.372070312 477.099609375 c 0
 449.372070312 473.21484375 451.309570312 466.784179688 453 462 c 0
 453.022460938 461.935546875 474.465820312 400.5234375 504.091796875 319.5234375 c 0
 527.545898438 255.397460938 561.435546875 157.41796875 574 125 c 1
 589.208007812 160.8046875 626.599609375 250.547851562 653.93359375 317.674804688 c 0
 685.291992188 394.686523438 706.962890625 456.875 707 457 c 0
 708.548828125 462.161132812 711.293945312 469.858398438 711.293945312 475.098632812 c 0
 711.293945312 486.619140625 702.8671875 493.349609375 686.618164062 493.559570312 c 2
 683.526367188 493.651367188 l 1
EndSplineSet
Validated: 1
EndChar

StartChar: x
Encoding: 120 120 8
GlifName: x
Width: 600
VWidth: 0
Flags: W
HStem: 0.00195312 18.7432<62.0352 85.6751 155.978 183.201 376.796 404.899 508.38 532.893> 487.03 19.4844<80.1406 105.946 198.771 220.512 387.396 416.182 485.926 510>
LayerCount: 2
Fore
SplineSet
500.965820312 36.201171875 m 4
 505.821289062 31.0439453125 514.838867188 18.876953125 524.986328125 18.7451171875 c 2
 532.892578125 18.6552734375 l 1
 532.892578125 0.001953125 l 1
 376.795898438 -0.0439453125 l 1
 376.686523438 19.4248046875 l 1
 383.625 19.517578125 l 2
 396.626613434 19.6914209506 406.938476562 25.8028058047 406.938476562 33.9443359375 c 3
 406.938476562 41.1220703125 400.698242188 50.95703125 400 52 c 1
 400 52 341.401173143 140.7109375 287.20942317 218.208007812 c 1
 239.309561221 158.728257989 173.17578125 69.4677734375 162 55 c 1
 160.379882812 52.7578125 152.875976562 44.3759765625 152.875976562 35 c 0
 152.875976562 25.4541015625 168.010742188 19.6298828125 176.298828125 19.51953125 c 2
 183.20703125 19.427734375 l 1
 183.201171875 -0.0400390625 l 1
 62.03515625 -0.0400390625 l 1
 62 18.642578125 l 1
 68.9140625 18.732421875 l 2
 79.9029875734 18.8752158166 88.1767578125 30.9091796875 92.39453125 35.4853515625 c 0
 96.9970703125 41.16796875 192.887695312 170.052734375 266.748046875 254.928710938 c 1
 210.181640625 333.1328125 115.951171875 465.1171875 113.674804688 468.282226562 c 0
 107.888671875 475.538085938 99.337890625 487.663085938 87.0126953125 487.826171875 c 2
 80.140625 487.916992188 l 1
 80 506.514648438 l 1
 220.51171875 506.514648438 l 1
 220.51171875 487.12109375 l 1
 213.083984375 487.030273438 l 2
 200.429537547 486.875545124 197.440429688 476.287109375 197.440429688 470.509765625 c 0
 197.440429688 466.518554688 201.568359375 459.146484375 206 453 c 2
 206 453 256.571289062 383.412109375 306.013671875 314.157226562 c 1
 371.541015625 394.870117188 411.395507812 453.106445312 412 454 c 0
 415.55859375 458.849609375 418.271484375 466.908203125 418.271484375 471.201171875 c 0
 418.271484375 478.374023438 409.1484375 486.920898438 394.28125 487.119140625 c 2
 387.396484375 487.2109375 l 1
 387.301757812 506.512695312 l 1
 510 506.514648438 l 1
 510 487.991210938 l 1
 504.079101562 487.915039062 l 2
 490.9375 487.771484375 482.666992188 473.189453125 478 467 c 0
 476.532226562 465.053710938 397.634765625 362.973632812 329.21484375 279.743164062 c 1
 389.499898429 195.868305378 461.721418875 77.8975428118 500.965820312 36.201171875 c 4
EndSplineSet
Validated: 1
EndChar

StartChar: X
Encoding: 88 88 9
GlifName: X_
Width: 789
VWidth: 0
Flags: W
HStem: 0 19.2949<36 66.2157 174.028 203.197 510.313 537.443 691.808 725.809> 710.562 19.4375<69.75 99.8954 256.241 285.245 531.046 566.39 665.031 696.244>
LayerCount: 2
Fore
SplineSet
76.65625 710.47265625 m 0
 69.75 710.5625 l 1
 69.74609375 730 l 1
 285.245117188 730 l 1
 285.245117188 710.999023438 l 1
 278.338867188 710.907226562 l 0
 270.420898438 710.80078125 262.613056117 710.1806412 255.926757812 707.61328125 c 0
 244.227539062 703.12109375 238.517578125 689.780273438 238.517578125 683 c 0
 238.517578125 677.786132812 241.166015625 668.740234375 250.38671875 655.025390625 c 0
 393.690429688 447.553710938 l 1
 556.420898438 653.278320312 l 1
 567.858398438 668.904296875 575.75390625 678.27734375 575.75390625 685.16796875 c 0
 575.75390625 696.96875 558.395507812 710.556640625 537.952148438 710.831054688 c 2
 531.045898438 710.922851562 l 1
 531.045898438 730 l 1
 696.244140625 730 l 1
 696.244140625 711.487304688 l 1
 689.336914062 711.397460938 l 0
 681.189453125 711.291015625 672.046875 710.02734375 664.684570312 707.163085938 c 0
 652.850585938 702.559570312 640.08984375 684.010742188 628.212890625 667.963867188 c 0
 428.836914062 409.666992188 l 1
 439.922851562 394.3671875 l 1
 536.953125 258.180664062 623.478515625 110.629882812 667.741210938 51.6103515625 c 0
 676.146484375 40.4033203125 683.3046875 27.3662109375 691.469726562 24.6298828125 c 0
 698.598881942 22.240707669 710.817382812 19.48828125 718.900390625 19.3837890625 c 0
 725.80859375 19.294921875 l 1
 725.809570312 0 l 1
 510.313476562 0 l 1
 510.313476562 18.8564453125 l 1
 517.220703125 18.947265625 l 0
 525.126953125 19.0517578125 530.692453582 20.0871328993 537.7734375 22.2421875 c 0
 548.721679688 25.57421875 554.744140625 38.1279296875 554.744140625 46 c 0
 554.744140625 50.8818359375 549.290039062 59.4423828125 540.37109375 73.494140625 c 1
 370.186523438 335.346679688 l 1
 306.029296875 250.837890625 240.352539062 160.528320312 178.34375 77.2841796875 c 1
 163.067382812 56.7177734375 158.522460938 48.484375 158.522460938 43 c 0
 158.522460938 37.728515625 162.874884666 27.2706699848 173.727539062 23.2392578125 c 0
 180.12109375 20.8642578125 187.77734375 19.060546875 196.290039062 18.947265625 c 0
 203.197265625 18.8564453125 l 1
 203.197265625 0 l 1
 36 0 l 1
 36 19.294921875 l 1
 42.908203125 19.3837890625 l 0
 51.0537109375 19.4892578125 59.1951315921 20.7566578687 66.5615234375 23.6201171875 c 0
 78.404296875 28.2236328125 89.220703125 45.73046875 101.001953125 61.78125 c 0
 334.53515625 378.979492188 l 1
 241.354492188 508.497070312 165.021484375 625.157226562 122.958984375 681.244140625 c 0
 114.551757812 692.453125 108.393554688 703.495117188 100.231445312 707.227539062 c 0
 93.0816758258 710.497031642 84.748046875 710.368164062 76.65625 710.47265625 c 0
EndSplineSet
Validated: 1
EndChar

StartChar: d
Encoding: 100 100 10
GlifName: d
Width: 573
VWidth: 0
Flags: W
HStem: -10 33.8711<221.239 369.306> 492 21.166<227.766 332.596> 705.496 15.9609<367.559 395.462> 727.668 20G<473.227 475.621>
VStem: 37.001 90.0225<135.218 388.492> 403.408 83.7812<46.8301 57.2774 57.2822 439.685 480 704.912>
LayerCount: 2
Fore
SplineSet
523.931640625 47.9853515625 m 1
 528.404296875 21.4716796875 l 1
 498.944200757 8.19862846297 467.71875 -7.3994140625 438.309570312 -7.3994140625 c 0
 416.249023438 -7.3994140625 407.638671875 10.9306640625 404.728515625 24.4404296875 c 1
 370.119468641 2.3955078125 331.842110517 -10 280.902936053 -10 c 0
 149.6171875 -10 37.0009765625 64.349609375 37.0009765625 264.028320312 c 0
 37.0009765625 427.935546875 118.709960938 513.166015625 277.837890625 513.166015625 c 0
 321.849609375 513.166015625 362.999023438 495.953125 403.408203125 480 c 1
 403.408203125 674.149414062 l 2
 403.408203125 695.74609375 392.612304688 705.49609375 374.978515625 705.49609375 c 2
 367.55859375 705.49609375 l 1
 367.558535546 721.45703125 l 1
 469.541992188 747.041015625 l 0
 470.979492188 747.42578125 472.453125 747.66796875 474 747.66796875 c 0
 477.2421875 747.66796875 480.897460938 746.26171875 483.208984375 743.40234375 c 0
 487.469726562 738.134765625 487.25390625 731.629882812 487.28515625 723.424804688 c 0
 487.189453125 57.2822265625 l 1
 487.189453125 57.2822265625 487.467773438 50.7001953125 487.467773438 49.1064453125 c 0
 487.467773438 39.6728515625 l 1
 498.047326862 41.9180857589 513.627929688 44.923828125 523.931640625 47.9853515625 c 1
403.408203125 59.140625 m 1
 403.408203125 388.743164062 l 1
 389.79296875 449.66015625 347.598632812 492 278.897460938 492 c 0
 177.216796875 492 127.0234375 395.881835938 127.0234375 274.883789062 c 0
 127.0234375 122.408203125 168.676757812 23.87109375 299.037109375 23.87109375 c 0
 330.590820312 23.87109375 367.0703125 34.75390625 403.408203125 59.140625 c 1
EndSplineSet
Validated: 1
EndChar

StartChar: f
Encoding: 102 102 11
GlifName: f
Width: 496
VWidth: 0
Flags: W
HStem: 0 18.7627<70.8809 98.4283 199.641 227.004> 462.57 42.084<60.3311 107.104 191.303 341.759> 741.104 25.085<257.555 355.259>
VStem: 107.093 78.124<22.3612 466.249 504.654 663.713>
LayerCount: 2
Fore
SplineSet
334.24609375 766.188476562 m 0
 377.682617188 766.188476562 430.9453125 754.11328125 472.90234375 706.51953125 c 0
 476.373046875 702.583007812 478.67578125 698.002929688 478.67578125 693 c 0
 478.67578125 672.46875 448.478515625 665.073242188 433.040039062 665.073242188 c 0
 369.068359375 665.073242188 387.370117188 741.103515625 315.694335938 741.103515625 c 0
 241.6015625 741.103515625 185.216796875 696.162109375 185.216796875 585.43359375 c 1
 185.71875 504.654296875 l 1
 304.596679688 504.654296875 l 0
 327.313476562 504.654296875 341.928710938 499.587890625 341.928710938 485.530273438 c 0
 341.928710938 478.766053853 336.128774967 467.913663685 333.444335938 462.5703125 c 1
 327.682617188 462.5703125 l 0
 321.415039062 462.5703125 238.076171875 465.99609375 191.302734375 466.385742188 c 1
 190.833007812 43.48046875 l 1
 193.221679688 31.798828125 204.670898438 18.962890625 220.095703125 18.7626953125 c 2
 227.00390625 18.673828125 l 1
 227.00390625 0 l 1
 70.880859375 0 l 1
 70.880859375 18.66796875 l 1
 77.7880859375 18.7568359375 l 2
 93.43359375 18.95703125 104.913085938 32.423828125 107.107421875 43.7568359375 c 1
 107.107421875 466.249023438 l 1
 70.7880859375 465.396484375 67.0341796875 463.260742188 52 461.1015625 c 1
 60.3310546875 500.703125 l 1
 107.104492188 500.703125 l 1
 107.099609375 512.75390625 107.092773438 543.11328125 107.092773438 556 c 4
 107.092773438 704.11328125 189.974265744 766.188476562 334.24609375 766.188476562 c 0
EndSplineSet
Validated: 1
EndChar

StartChar: j
Encoding: 106 106 12
GlifName: j
Width: 262
VWidth: 0
Flags: W
HStem: -153.523 49.9092<-83.8596 54.529> 463.783 16.2842<68.7646 95.4016> 485.725 20G<171.15 178.845> 606.942 106.892<86.7259 172.382>
VStem: 76.1074 106.893<617.56 703.216> 102.586 83.6973<-37.4133 463.398>
LayerCount: 2
Fore
SplineSet
129.553710938 606.942382812 m 4xf8
 100.038085938 606.942382812 76.107421875 630.87109375 76.107421875 660.387695312 c 4
 76.107421875 689.904296875 100.037109375 713.833984375 129.553710938 713.833984375 c 4
 159.0703125 713.833984375 183 689.904296875 183 660.387695312 c 4
 183 630.87109375 159.069335938 606.942382812 129.553710938 606.942382812 c 4xf8
172 505.724609375 m 0
 185.689453125 505.724609375 186.344726562 493.1015625 186.3828125 483.030273438 c 2
 186.283203125 93.279296875 l 0
 186.236328125 78.7939453125 186.161132812 64.3193359375 186.161132812 49.869140625 c 0
 186.161132812 -3.158203125 172.400390625 -39.4658203125 129.596679688 -81.70703125 c 0
 101.59765625 -109.99609375 37.771484375 -153.5234375 -42 -153.5234375 c 0
 -64.4501953125 -153.5234375 -87.2626953125 -149.948242188 -111.975585938 -141.634765625 c 0
 -122.600585938 -138.060546875 -128.956054688 -129.887695312 -128.956054688 -121 c 0
 -128.956054688 -92.0107421875 -90.59765625 -79.2392578125 -62 -79.2392578125 c 0
 -26.8046875 -79.2392578125 -3.9033203125 -103.614257812 23 -103.614257812 c 0
 31.0927734375 -103.614257812 39.6826171875 -101.82421875 49.5888671875 -96.7080078125 c 0
 101.294921875 -70.6201171875 102.5859375 -44.2802734375 102.5859375 22.640625 c 0
 102.5859375 432.813476562 l 2xf4
 102.5859375 452.999023438 92.3681640625 463.783203125 75.7646484375 463.783203125 c 2
 68.7646484375 463.783203125 l 1
 68.7646484375 480.067382812 l 1
 167.543945312 505.04296875 l 0
 168.859375 505.4140625 170.30078125 505.724609375 172 505.724609375 c 0
EndSplineSet
Validated: 1
EndChar

StartChar: g
Encoding: 103 103 13
GlifName: g
Width: 524
VWidth: 0
Flags: W
HStem: -242.607 25.6562<167.236 316.773> 427.588 67.4121<397.306 466.553> 468.089 31.9785<183.304 295.298>
VStem: 20.126 80.8164<-175.114 -78.8644> 50.7754 78.2656<204.539 412.306> 59.7812 104.162<28.2627 69.172> 358.938 74.3916<186.52 398.517> 434.449 55.7051<-144.286 -52.9873>
LayerCount: 2
Fore
SplineSet
235.616210938 -216.951171875 m 0x93
 333.702148438 -216.951171875 434.44921875 -162.543945312 434.44921875 -101.783203125 c 0
 434.44921875 -30.6142578125 355.3671875 -24.09375 263.0546875 -16 c 1
 258.998046875 -15.8583984375 232.913085938 -14.3349609375 229.458007812 -14.091796875 c 1
 133.525390625 -45.7763671875 100.942382812 -62.1953125 100.942382812 -123.130859375 c 0
 100.942382812 -178.01953125 159.715820312 -216.951171875 235.616210938 -216.951171875 c 0x93
129.041015625 318.27734375 m 0xab
 129.041015625 200.25390625 168.436523438 132.907226562 254.3125 132.907226562 c 0
 336.978515625 132.907226562 358.9375 212.668945312 358.9375 296 c 0
 358.9375 402.140625 320.4140625 468.088867188 230.643554688 468.088867188 c 3
 160.854492188 468.088867188 129.041015625 384.315429688 129.041015625 318.27734375 c 0xab
433.329101562 288.172851562 m 0
 433.329101562 106.466796875 295.334106408 102.132832634 174.603515625 66.8349609375 c 0
 170.431640625 65.615234375 163.943359375 60.537109375 163.943359375 56.1103515625 c 0xc7
 163.943359375 49.6767578125 174.943359375 45.69140625 179.627929688 44.9931640625 c 0
 193 43 206.854492188 40.9267578125 217.180664062 39.9267578125 c 1
 318.354492188 30.5283203125 l 2
 417.309570312 21.3359375 490.154296875 13.8310546875 490.154296875 -72.9111328125 c 0
 490.154296875 -186.103515625 360.875976562 -242.607421875 235.28125 -242.607421875 c 0
 129.596679688 -242.607421875 20.1259765625 -224.12890625 20.1259765625 -135.368164062 c 0xd3
 20.1259765625 -59.6240234375 112.888671875 -27.6728515625 182.305664062 -7.9765625 c 1
 158.075195312 -5.6064453125 139.796875 -2.912109375 124.759765625 0.1396484375 c 0
 96.017578125 5.8134765625 59.78125 15.3935546875 59.78125 41.1318359375 c 0xc7
 59.78125 79.8955078125 142.167953566 101.176757812 187.682873898 113.345703125 c 1
 114.35546875 128.987304688 50.775390625 184.803710938 50.775390625 312.190429688 c 0
 50.775390625 429.479492188 112.877929688 485.88671875 199.621383754 497.923828125 c 0
 213.176458737 499.8203125 227.25759182 500.067382812 240.607223996 500.067382812 c 0xab
 282.2467459 500.067382812 322.791015625 489.750976562 357.404296875 466.489257812 c 1
 388.926757812 485.61328125 415.327148438 495 454.151367188 495 c 4
 467.814453125 495 476 486.526367188 476 473.69140625 c 0
 476 442.50390625 439.521484375 427.587890625 407.205078125 427.587890625 c 0xcb
 404.495117188 427.587890625 398.329101562 427.884765625 397 428 c 1
 420 390 433.329101562 344.01171875 433.329101562 288.172851562 c 0
EndSplineSet
Validated: 1
EndChar

StartChar: q
Encoding: 113 113 14
GlifName: q
Width: 592
VWidth: 0
Flags: W
HStem: -232 19.4697<393.92 421.825 522.071 549.941> -13.1143 36.126<252.21 393.029> 490.217 21.5898<247.741 358.071>
VStem: 63.9961 90.5479<133.669 383.522> 430.046 83.7266<-211.235 20.7559 45.9217 422.296>
LayerCount: 2
Fore
SplineSet
154.543945312 274.395507812 m 0
 154.543945312 153.192382812 189.258789062 23.01171875 329.158203125 23.01171875 c 0
 356.51953125 23.01171875 398.02734375 36.3505859375 430.045898438 58.0859375 c 1
 430.1953125 419.908203125 l 0
 430.1953125 421.364257812 429.952148438 422.279296875 429.946289062 422.297851562 c 1
 398.58203125 455.724609375 365.83984375 490.216796875 304.676757812 490.216796875 c 0
 214.645507812 490.216796875 154.543945312 431.654296875 154.543945312 274.395507812 c 0
431.099609375 480 m 1
 493.751953125 508.21875 l 2
 496.831054688 509.123046875 498.984375 509.770507812 501 509.770507812 c 0
 513.668945312 509.770507812 513.869140625 494.7265625 513.869140625 485.615234375 c 0
 513.772460938 -187.32421875 l 1
 516.15234375 -199.255859375 527.452148438 -212.228515625 543.03515625 -212.438476562 c 2
 549.94140625 -212.530273438 l 1
 549.94140625 -232 l 1
 393.919921875 -232 l 1
 393.919921875 -212.530273438 l 1
 401.234375 -212.438476562 l 2
 417.55859375 -212.23046875 427.828014739 -198.803000616 430.044921875 -187.016601562 c 1
 430.044921875 20.755859375 l 1
 392.60546875 4.0546875 356.174804688 -13.1142578125 309.327148438 -13.1142578125 c 0
 169.94140625 -13.1142578125 63.99609375 76.931640625 63.99609375 249.760742188 c 0
 63.99609375 438.352243741 149.598632812 511.806640625 303.149414062 511.806640625 c 0
 341.9609375 511.806640625 387.936523438 499.319335938 431.099609375 480 c 1
EndSplineSet
Validated: 1
EndChar

StartChar: p
Encoding: 112 112 15
GlifName: p
Width: 569
VWidth: 0
Flags: W
HStem: -232 18.4697<43 70.1458 172.238 199.111> -9.79688 20.7861<237.997 341.138> 471.2 15.9619<45.4092 72.5635> 478.146 33.917<197.66 345.254>
VStem: 79.2266 83.7275<-211.867 15 65.9644 454.873> 438.152 91.0205<117.201 373.417>
LayerCount: 2
Fore
SplineSet
162.954101562 -188.317382812 m 1xdc
 165.370117188 -200.44140625 177.661132812 -213.233398438 193.77734375 -213.438476562 c 2
 199.111328125 -213.530273438 l 1
 199.111328125 -232 l 1
 43 -232 l 1
 43 -213.530273438 l 1
 49.90625 -213.438476562 l 2
 65.72265625 -213.224609375 77.0322265625 -199.611328125 79.2265625 -188.021484375 c 1
 79.2265625 440.516601562 l 2
 79.2265625 461.505859375 69.2646484375 471.200195312 52.4091796875 471.200195312 c 2
 45.4091796875 471.200195312 l 1
 45.4091796875 487.162109375 l 1xec
 145.307617188 512.74609375 l 0
 147.010742188 513.200195312 149.620117188 513.366210938 151 513.366210938 c 0
 162.767578125 513.366210938 163.01171875 493.946289062 163.048828125 484.129882812 c 0
 163.048828125 484.748046875 163.047851562 485.4140625 163.046875 486 c 1
 196.876953125 499.77734375 233.912109375 512.063476562 283.046875 512.063476562 c 0
 418.123046875 512.063476562 529.172851562 432.14453125 529.172851562 249.924804688 c 0
 529.172851562 64.689453125 444.995117188 -9.796875 285.932617188 -9.796875 c 0
 248.321289062 -9.796875 204.883789062 -4.6015625 162.982421875 15 c 1
 162.954101562 -188.317382812 l 1xdc
264.818359375 478.146484375 m 0xdc
 235.872070312 478.146484375 200.967773438 465.6640625 163.041015625 443.397460938 c 1
 162.997070312 113.895507812 l 1
 181.631835938 54.6025390625 216.729492188 10.9892578125 294.139648438 10.9892578125 c 0
 382.453125 10.9892578125 438.15234375 99.162109375 438.15234375 225.716796875 c 0
 438.15234375 390.362304688 393.609375 478.146484375 264.818359375 478.146484375 c 0xdc
EndSplineSet
Validated: 1
EndChar

StartChar: o
Encoding: 111 111 16
GlifName: o
Width: 547
VWidth: 0
Flags: W
HStem: -10.3389 35.7676<209.836 342.174> 491.658 20.7676<218.479 323.638>
VStem: 34.9424 90.2949<124.314 384.251> 422.789 90.292<117.752 373.652>
LayerCount: 2
Fore
SplineSet
278 -10.3388671875 m 4
 137.30859375 -10.3388671875 34.9423828125 62.8125 34.9423828125 253.924804688 c 4
 34.9423828125 439.155273438 127.747070312 512.42578125 268 512.42578125 c 4
 397.145507812 512.42578125 513.081054688 438.779296875 513.081054688 253.849609375 c 4
 513.081054688 57.7431640625 421.943359375 -10.3388671875 278 -10.3388671875 c 4
125.237304688 275.40234375 m 4
 125.237304688 119.356445312 170.274414062 25.4287109375 282.291992188 25.4287109375 c 4
 390.56640625 25.4287109375 422.7890625 148.397460938 422.7890625 235.68359375 c 4
 422.7890625 391.959960938 385.736328125 491.658203125 267.734375 491.658203125 c 4
 172.556640625 491.658203125 125.237304688 396.979492188 125.237304688 275.40234375 c 4
EndSplineSet
Validated: 1
EndChar

StartChar: I
Encoding: 73 73 17
GlifName: I_
Width: 305
VWidth: 0
Flags: W
HStem: 0 19.292<53.9502 89.9222 219.11 255> 711.11 18.8896<53.9531 89.9432 219.358 254.997>
VStem: 107.987 91.9277<26.9504 703.544>
LayerCount: 2
Fore
SplineSet
202.77734375 55.12109375 m 0
 203.464231795 36.5124996622 224.151367188 19.6982421875 248.09375 19.3837890625 c 2
 255 19.2919921875 l 1
 255 0 l 1
 53.9501953125 0 l 1
 53.9501953125 19.2919921875 l 1
 60.8564453125 19.3837890625 l 2
 84.6669921875 19.697265625 105.950195312 36.159922019 105.950195312 54.984375 c 0
 107.202148438 168.008789062 107.987304688 280.73828125 107.987304688 393.458007812 c 0
 107.987304688 487.686523438 107.454101562 581.719726562 106.194335938 675.885742188 c 0
 106.194335938 694.045857644 84.458984375 710.715820312 60.8603515625 711.020507812 c 6
 53.953125 711.110351562 l 5
 53.953125 730 l 1
 254.997070312 730 l 1
 254.997070312 711.110351562 l 5
 248.08984375 711.020507812 l 6
 224.806640625 710.719726562 203.412012186 694.257883706 202.772460938 676.740234375 c 0
 200.743164062 582.51953125 199.915039062 487.962890625 199.915039062 393.458007812 c 0
 199.915039062 280.80078125 201.0859375 167.833007812 202.77734375 55.12109375 c 0
EndSplineSet
Validated: 1
EndChar

StartChar: y
Encoding: 121 121 18
GlifName: y
Width: 574
VWidth: 0
Flags: W
HStem: 488.334 18.1807<46 68.8038 166.411 193.244 411.229 439.898 524.643 534.852>
LayerCount: 2
Fore
SplineSet
327.26953125 59.275390625 m 0
 311.59375 19.5439453125 289.009016974 -31.015625 276.756325921 -50.484375 c 0
 253.960059757 -87.6337890625 172.93359375 -230.118164062 108 -230.118164062 c 0
 91.2421875 -230.118164062 88.431640625 -210.823242188 88.431640625 -201 c 0
 88.431640625 -192.70703125 89.681640625 -183.9375 92.443359375 -176.548828125 c 0
 113.427734375 -120.404296875 164 -155 202.79296875 -100.149414062 c 0
 216.224609375 -81.158203125 248.712890625 -25.7900390625 256.224609375 -6.173828125 c 1
 253.390625 1.6318359375 247.333007812 23.490234375 246.443359375 25.73046875 c 0
 246.443359375 25.73046875 196.482421875 154.24609375 152.879882812 271.165039062 c 0
 117.034179688 367.283203125 75.97265625 466.586914062 75.2568359375 468.302734375 c 0
 72.259765625 475.041992188 65.5751953125 489.557617188 46 489.557617188 c 1
 46 506.514648438 l 1
 193.244140625 506.514648438 l 1
 193.244140625 488.42578125 l 1
 187.337890625 488.333984375 l 2
 175.925052072 488.156602294 163.083984375 479.70703125 163.083984375 472.431640625 c 0
 163.083984375 469.600585938 164.670898438 462.982421875 166.173828125 458.717773438 c 0
 166.173828125 458.717773438 196.079775376 375.416198634 227.082714654 294.42578125 c 0
 251.698396191 230.12109375 290.856445312 134.6875 304.413085938 100.408203125 c 1
 320.74609375 138.169921875 361.334960938 225.991210938 389.6015625 293.577148438 c 0
 421.822265625 370.619140625 444.973632812 441.926757812 445 442 c 0
 446.934570312 447.091796875 449.03125 458.213867188 449.03125 461.51953125 c 0
 449.03125 470.127929688 438.591796875 488.201171875 419.135742188 488.461914062 c 2
 411.228515625 488.553710938 l 1
 411.228515625 506.85546875 l 1
 534.8515625 506.85546875 l 1
 534.8515625 488.928710938 l 1
 524.642578125 488.240234375 l 2
 512.325132868 487.409566793 503.322265625 471.216796875 500 462 c 0
 499.165039062 459.681640625 465.531542444 382.899283215 426.733398438 289.6953125 c 0
 393.369086019 209.544921875 351.185546875 119.895507812 327.26953125 59.275390625 c 0
EndSplineSet
Validated: 1
EndChar

StartChar: v
Encoding: 118 118 19
GlifName: v
Width: 564
VWidth: 0
Flags: W
HStem: -9 21G<268.122 276.843> 492.199 14.6562<49 67.3533 167.097 190.057 413.694 436.681 501.481 522.851>
LayerCount: 2
Fore
SplineSet
413.694335938 506.627929688 m 1
 522.850585938 506.627929688 l 1
 522.850585938 492 l 1
 515.966796875 492 l 2
 500.915039062 491.418945312 495.737304688 476.209960938 491 466 c 0
 489.8671875 463.0546875 465.745657807 404.941233543 425.7265625 310.036132812 c 0
 369.217189415 176.024414062 299.063476562 13.75390625 293.637695312 3.8037109375 c 0
 289.529296875 -3.7333984375 281.487304688 -9 272.19921875 -9 c 0
 264.044921875 -9 255.602539062 -4.6298828125 251.561523438 4.240234375 c 0
 246.393554688 15.599609375 240.40234375 29.994140625 236.512695312 40.294921875 c 1
 236.5 40.3291015625 186.625 171.684570312 142.879882812 291.984375 c 0
 107.171875 390.182617188 80.1142578125 460.709960938 80 461 c 0
 73.962890625 475.643554688 69.798828125 492.19921875 49 492.19921875 c 1
 49 506.85546875 l 1
 190.056640625 506.85546875 l 1
 190.056640625 492 l 1
 182.72265625 492 l 2
 166.685546875 492 161.541992188 477.692382812 161.541992188 470.1015625 c 0
 161.541992188 466.650390625 162.811523438 461.313476562 165 456 c 0
 165.026367188 455.935546875 183.85546875 401.701171875 214.466796875 320.702148438 c 0
 238.951171875 255.9140625 278.686523438 133.868164062 292.228515625 98.2568359375 c 1
 309.004882812 135.919921875 364.661132812 263.038085938 393.29296875 330.853515625 c 0
 425.802734375 407.854492188 442.9609375 458.88671875 443 459 c 0
 443.979492188 461.82421875 444.452148438 464.403320312 444.452148438 466.729492188 c 0
 444.452148438 476.689453125 435.77734375 492 421.029296875 492 c 2
 413.694335938 492 l 1
 413.694335938 506.627929688 l 1
EndSplineSet
Validated: 1
EndChar

StartChar: u
Encoding: 117 117 20
GlifName: u
Width: 590
VWidth: 0
Flags: W
HStem: -10 35.3203<223.935 380.691> 467.444 15.5303<40 64.3066 376.711 400.24> 488.746 20G<143.204 150.326 480.307 487.316>
VStem: 73.7461 83.7949<81.7073 466.44> 409.656 84.0967<45.846 467.043>
LayerCount: 2
Fore
SplineSet
530.180664062 48.919921875 m 1
 536.659179688 20.6796875 l 1
 506.0078125 7.318359375 473.02385303 -7.88671875 443.12890625 -7.88671875 c 0
 412.568683105 -7.88671875 409.978515625 13.021484375 409.690429688 23.3603515625 c 1
 363.588867188 -5.9443359375 331.377929688 -10 267.453125 -10 c 0
 180.715820312 -10 73.74609375 30.138671875 73.74609375 140.537109375 c 0
 73.8203125 432.057617188 l 2
 73.8203125 452.185546875 63.5810546875 466.958007812 47 466.958007812 c 2
 40 466.958007812 l 1
 40 482.37890625 l 1
 140.076171875 508.219726562 l 0
 141.154296875 508.477539062 142.407226562 508.74609375 144 508.74609375 c 0
 156.651367188 508.74609375 157.642578125 495.735351562 157.642578125 485.25390625 c 0
 157.541015625 146.024414062 l 0
 157.541015625 79.955078125 217.133789062 25.3203125 292.220703125 25.3203125 c 4
 329.069335938 25.3203125 367.081054688 30.283203125 409.65625 58.3720703125 c 1
 410.556640625 431.62109375 l 2
 410.55078125 451.86328125 398.243164062 467.444335938 384.129882812 467.444335938 c 2
 376.7109375 467.444335938 l 1
 376.7109375 482.974609375 l 1
 477.52734375 509.28125 l 0
 478.499023438 509.471679688 479.614257812 509.666015625 481 509.666015625 c 0
 493.6328125 509.666015625 493.813476562 496.971679688 493.813476562 486.193359375 c 0
 493.752929688 40.6181640625 l 1
 505.178710938 42.8701171875 519.380859375 45.814453125 530.180664062 48.919921875 c 1
EndSplineSet
Validated: 1
EndChar

StartChar: n
Encoding: 110 110 21
GlifName: n
Width: 588
VWidth: 0
Flags: W
HStem: 0 18.5977<52 79.0816 179.398 208.077 388.32 415.73 516.385 543.441> 471.516 42.4844<197.906 367.612> 471.516 16.0195<54.4092 81.5154>
VStem: 88.2285 83.6816<19.8882 454.055> 424.704 82.7275<19.912 417.139>
LayerCount: 2
Fore
SplineSet
171.91015625 41.3642578125 m 1xd8
 174.303710938 29.7275390625 185.771484375 18.8984375 201.170898438 18.69921875 c 6
 208.077148438 18.609375 l 5
 208.077148438 0 l 1
 52 0 l 1
 52 18.59765625 l 5
 58.90625 18.6875 l 6
 74.5439453125 18.890625 86.033203125 32.341796875 88.228515625 43.662109375 c 1
 88.228515625 441.091796875 l 2
 88.228515625 461.943359375 78.2158203125 471.515625 61.4091796875 471.515625 c 2
 54.4091796875 471.515625 l 1
 54.4091796875 487.53515625 l 1xb8
 153.331054688 513.081054688 l 0
 153.829101562 513.208007812 155.845703125 514 159 514 c 0
 169.983398438 514 172.001953125 503.516601562 172.001953125 489.446289062 c 0
 172.001953125 483.801757812 172 483.819335938 171.998046875 478.392578125 c 1
 211.577148438 504.037109375 249.52734375 512.3359375 307.740234375 512.3359375 c 0
 395.374023438 512.3359375 507.499023438 459.078125 507.499023438 349.12890625 c 0
 507.431640625 42.75 l 1
 509.993164062 31.75390625 521.537109375 18.962890625 536.53515625 18.7685546875 c 6
 543.44140625 18.6787109375 l 5
 543.44140625 0 l 1
 388.3203125 0 l 1
 388.3203125 18.609375 l 5
 395.2265625 18.69921875 l 6
 411.3984375 18.9091796875 422.646484375 32.322265625 424.704101562 44.583984375 c 1
 424.704101562 358.345703125 l 0
 424.704101562 424.395507812 353.565429688 477.016601562 286.399414062 477.016601562 c 0
 252.225585938 477.016601562 211.084960938 468.833007812 171.990234375 441.680664062 c 1
 171.91015625 41.3642578125 l 1xd8
EndSplineSet
Validated: 1
EndChar

StartChar: b
Encoding: 98 98 22
GlifName: b
Width: 579
VWidth: 0
Flags: W
HStem: -3.78906 18.8643<51 77.6659 264.466 331.294> 478.08 33.9219<205.03 352.357> 705.34 15.9609<53.4092 80.1866> 727.506 20G<157.311 164.384>
VStem: 87.2266 83.7871<68.0476 455.579 478.947 704.979> 447.152 90.0205<113.931 370.452>
LayerCount: 2
Fore
SplineSet
171.048828125 723.268554688 m 0
 171.013671875 478.947265625 l 1
 204.85546875 499.849609375 241.894487225 512.001953125 291.046748305 512.001953125 c 0
 429.333984375 512.001953125 537.172851562 430.873046875 537.172851562 244.9453125 c 0
 537.172851562 57.814453125 445.450195312 -10.15625 289.685152482 -10.15625 c 0
 249.07475339 -10.15625 202.140659458 -2.5205078125 160.078125 21.0859375 c 1
 138.944335938 1.98046875 114.23828125 -3.7890625 58 -3.7890625 c 0
 51 -3.7890625 l 1
 51 15.0751953125 l 1
 57.9072265625 15.1650390625 l 2
 73.5947265625 15.3681640625 85.0244140625 28.8720703125 87.2265625 40.265625 c 1
 87.2265625 673.993164062 l 2
 87.2265625 695.34765625 77.392578125 705.33984375 60.4091796875 705.33984375 c 2
 53.4091796875 705.33984375 l 1
 53.4091796875 721.30078125 l 1
 153.307617188 746.885742188 l 0
 155.01171875 747.33984375 156.62109375 747.505859375 158 747.505859375 c 0
 170.767578125 747.505859375 171.01171875 733.0859375 171.048828125 723.268554688 c 0
171.0078125 443.318359375 m 1
 170.961914062 115.934570312 l 1
 186.588867188 57.59375 223.68359375 20.927734375 301.139648438 20.927734375 c 0
 396.453125 20.927734375 447.15234375 107.1015625 447.15234375 228.655273438 c 0
 447.15234375 380.973632812 403.569335938 478.080078125 273.756835938 478.080078125 c 0
 243.067382812 478.080078125 206.500976562 465.389648438 171.0078125 443.318359375 c 1
EndSplineSet
Validated: 1
EndChar

StartChar: h
Encoding: 104 104 23
GlifName: h
Width: 584
VWidth: 0
Flags: W
HStem: 0 18.6963<51 78.3003 179.702 207.342 386.862 414.495 515.695 543.001> 477.364 34.5703<205.673 353.217> 703.56 15.9609<53.498 80.2773> 725.729 20G<157.277 164.375>
VStem: 87.3184 83.7217<20.1608 454.534 478.479 703.199> 423.131 83.7275<19.9212 416.738>
LayerCount: 2
Fore
SplineSet
171.040039062 44.0869140625 m 5
 173.244140625 31.787109375 184.631835938 18.9013671875 200.434570312 18.6962890625 c 2
 207.341796875 18.6083984375 l 1
 207.341796875 0 l 1
 51 0 l 1
 51 18.8583984375 l 1
 57.9072265625 18.9482421875 l 2
 73.8857421875 19.15234375 85.24609375 32.71484375 87.318359375 44.55859375 c 5
 87.318359375 672.212890625 l 2
 87.318359375 693.565429688 77.482421875 703.559570312 60.498046875 703.559570312 c 2
 53.498046875 703.559570312 l 1
 53.498046875 719.520507812 l 1
 153.397460938 745.10546875 l 0
 154.999023438 745.532226562 156.553710938 745.728515625 158 745.728515625 c 0
 170.749023438 745.728515625 171.100585938 731.454101562 171.138671875 721.48828125 c 0
 171.103515625 478.478515625 l 1
 209.668945312 502.579101562 245.791015625 511.934570312 306.1640625 511.934570312 c 0
 393.80078125 511.934570312 506.92578125 458.676757812 506.92578125 348.729492188 c 0
 506.858398438 43.34765625 l 5
 509.28125 31.8037109375 520.748046875 18.966796875 536.09375 18.7705078125 c 2
 543.000976562 18.681640625 l 1
 543.000976562 0 l 1
 386.862304688 0 l 1
 386.862304688 18.6083984375 l 1
 393.76953125 18.6962890625 l 2
 409.533203125 18.900390625 420.989257812 32.375 423.130859375 43.892578125 c 5
 423.130859375 357.8984375 l 0
 423.130859375 423.997070312 353.48828125 477.364257812 286.2890625 477.364257812 c 0
 247.399414062 477.364257812 215.073242188 469.375 171.096679688 442.139648438 c 1
 171.040039062 44.0869140625 l 5
EndSplineSet
Validated: 1
EndChar

StartChar: t
Encoding: 116 116 24
GlifName: t
Width: 360
VWidth: 0
Flags: W
HStem: -10.1855 30.3867<225.509 298.633> 477.534 32.2412<202.766 320.112>
VStem: 119.079 83.6309<38.5469 477.356>
LayerCount: 2
Fore
SplineSet
297.120117188 25.2939453125 m 1
 301.470703125 1.6904296875 l 1
 281.877929688 -4.685546875 269.78515625 -10.185546875 249 -10.185546875 c 0
 209.3515625 -10.185546875 176.548828125 -0.42578125 152.071289062 24.0498046875 c 0
 121.166992188 54.9521484375 119.274414062 111.658203125 119.079101562 168.751953125 c 1
 119.0546875 266.174804688 118.96484375 367.619140625 118.940429688 463.131835938 c 0
 118.9375 478.5859375 114.327148438 481.9453125 105.241210938 483.78515625 c 0
 101.444335938 484.553710938 62.64453125 484.884765625 55.5458984375 486.159179688 c 0
 50.453125 487.073242188 47.0322265625 489.041992188 47.0322265625 494 c 0
 47.0322265625 500.313476562 59.7623118731 503.390760473 76 513 c 0
 117.3984375 537.499023438 130.250976562 545.137695312 165.7109375 577.012695312 c 0
 170.116210938 580.97265625 178.157226562 587.791015625 186 587.791015625 c 0
 197.192382812 587.791015625 202.775390625 578.823242188 202.775390625 563.875976562 c 0
 202.775390625 545.518554688 202.767578125 528.067382812 202.765625 509.775390625 c 1
 240.140625 510.083984375 278.079101562 510.66796875 290 510.66796875 c 0
 308.87890625 510.66796875 320.186523438 505.2890625 320.186523438 492 c 0
 320.186523438 486.480934956 316.032529626 480.474129464 313.577148438 476.6015625 c 1
 307 476.6015625 l 0
 298.803710938 476.6015625 257.081054688 477.534179688 217 477.534179688 c 0
 212.168945312 477.534179688 207.1640625 477.517578125 202.758789062 477.4921875 c 1
 202.75 423.466796875 202.71875 349.849609375 202.709960938 295.983398438 c 0
 202.709960938 153.771484375 l 0
 202.709960938 128.76171875 203.4296875 79.107421875 208.711914062 63.4365234375 c 0
 219.350585938 31.875 239.408203125 20.201171875 266 20.201171875 c 0
 274.25 20.201171875 288.436523438 22.814453125 297.120117188 25.2939453125 c 1
EndSplineSet
Validated: 1
EndChar

StartChar: z
Encoding: 122 122 25
GlifName: z
Width: 563
VWidth: 0
Flags: W
HStem: -0.420898 65.2393<166.129 476.356> 450.105 51.4209<109.289 114.317 114.374 410.795>
VStem: 88.29 15.2578<433.282 442.781>
LayerCount: 2
Fore
SplineSet
268.954683187 501.526367188 m 0
 358.822978704 501.526367188 489.904218174 504.078125 491.091796875 504.078125 c 3
 502.364257855 504.078125 506.434570312 495.0703125 506.434570312 488.69921875 c 0
 506.434570312 485.375976562 504.317382812 475.751953125 500.8125 471.73046875 c 0
 495.065429688 465.138671875 396.646484375 348.400390625 314.337494211 249.955078125 c 0
 250.338287871 173.54296875 191.870117188 96.6357421875 166.12890625 65.5205078125 c 1
 196.045898438 65.0458984375 236.059570312 64.818359375 278.981445312 64.818359375 c 0
 347.787109375 64.818359375 419.102539062 65.4521484375 466.216796875 66.6826171875 c 0
 471.301757812 66.814453125 471.646484375 66.1513671875 474.860351562 70.453125 c 0
 477.251953125 73.654296875 480.525390625 80.513671875 480.525390625 80.513671875 c 1
 483.021484375 85.818359375 l 1
 498.544921875 78.93359375 l 1
 476.356445312 0.0107421875 l 1
 276.171901347 -0.4208984375 l 1
 68.4462890625 -1.0771484375 l 2
 55.8984375 -1.0771484375 51 11.44140625 51 18.1982421875 c 3
 51 24.2216796875 57.1650390625 35.1357421875 62.0400390625 40.4619140625 c 0
 102.014648438 84.1337890625 195.237221832 188.120117188 272.638938981 277.1015625 c 0
 335.952629587 349.887695312 385.657226562 417.381835938 410.794921875 450.004882812 c 1
 395.573242188 450.08203125 381.799804688 450.10546875 364.704101562 450.10546875 c 0
 267.383789062 450.10546875 144.244140625 449.046875 123.517578125 449.046875 c 0
 109.96484375 448.930664062 106.994140625 435.044921875 103.547851562 428.811523438 c 1
 88.2900390625 437.071289062 l 1
 109.2890625 503.048828125 l 1
 114.317382812 502.96484375 l 1
 114.317382812 502.96484375 191.533141383 501.526367188 268.954683187 501.526367188 c 0
EndSplineSet
Validated: 1
EndChar

StartChar: l
Encoding: 108 108 26
GlifName: l
Width: 265
VWidth: 0
Flags: W
HStem: 0 18.8799<50 77.5626 178.743 206.123> 726.916 15.9609<52.4092 79.1866>
VStem: 86.2266 83.7275<20.1742 726.556>
LayerCount: 2
Fore
SplineSet
169.954101562 43.8564453125 m 1
 172.341796875 32.0966796875 183.740234375 19.2158203125 199.215820312 19.015625 c 2
 206.123046875 18.92578125 l 1
 206.123046875 0 l 1
 50 0 l 1
 50 18.8798828125 l 1
 56.9072265625 18.9697265625 l 2
 72.6025390625 19.169921875 84.0263671875 32.6796875 86.2265625 44.076171875 c 1
 86.2265625 695.5703125 l 2
 86.2265625 716.927734375 76.392578125 726.916015625 59.4091796875 726.916015625 c 2
 52.4091796875 726.916015625 l 1
 52.4091796875 742.876953125 l 1
 152.307617188 768.4609375 l 0
 154.010742188 768.915039062 155.620117188 769.081054688 157 769.081054688 c 0
 169.767578125 769.081054688 170.01171875 754.661132812 170.048828125 744.84375 c 0
 169.954101562 43.8564453125 l 1
EndSplineSet
Validated: 1
EndChar

StartChar: r
Encoding: 114 114 27
GlifName: r
Width: 405
VWidth: 0
Flags: W
HStem: 0 18.6387<54 81.0895 183.086 209.856> 444.11 57.2725<221.392 341.997> 470.604 15.1934<56.4092 82.3942>
VStem: 90.2285 83.79<20.0191 420.716 446.984 470.319>
LayerCount: 2
Fore
SplineSet
304.620117188 501.3828125 m 3xd0
 322.583984375 501.3828125 378.862304688 495.35546875 378.862304688 466.881835938 c 0
 378.862304688 434.756835938 344.213867188 421.288085938 319.485351562 421.288085938 c 0
 293.131835938 421.288085938 267.345703125 444.110351562 247.16015625 444.110351562 c 0xd0
 213.141601562 444.110351562 183.48046875 412.541992188 174.00390625 392.146484375 c 1
 173.932617188 43.2783203125 l 1
 176.409461313 32.2471664624 189.073242188 18.7783203125 201.783203125 18.638671875 c 2
 209.856445312 18.5498046875 l 1
 209.856445312 0 l 1
 54 0 l 1
 54 18.6865234375 l 1
 60.9072265625 18.775390625 l 2
 76.5634765625 18.9755859375 88.03515625 32.443359375 90.228515625 43.7919921875 c 1
 90.228515625 442.708984375 l 2
 90.228515625 462.83203125 79.9873046875 470.603515625 63.4091796875 470.603515625 c 2
 56.4091796875 470.603515625 l 1
 56.4091796875 485.796875 l 1xb0
 156.1875 512.67578125 l 0
 157.909179688 513.162109375 159.555664062 513.353515625 161 513.353515625 c 0
 173.767578125 513.353515625 174.02734375 498.857421875 174.02734375 489.084960938 c 0
 174.018554688 446.984375 l 1
 208.836664705 477.384765625 254.90234375 501.3828125 304.620117188 501.3828125 c 3xd0
EndSplineSet
Validated: 1
EndChar

StartChar: k
Encoding: 107 107 28
GlifName: k
Width: 561
VWidth: 0
Flags: W
HStem: 0 19<51 79.0537 179.425 207 380 399.623 505.067 534> 290 45<171.106 212.527> 487 19.5146<351.534 374.617 462.401 502> 704 15.3994<53 79.7236> 725.612 20G<155.748 164.03>
VStem: 87 84<20.103 290 335.001 703.652>
LayerCount: 2
Fore
SplineSet
171 722 m 0
 171 351.862304688 l 2
 171.767578125 336.038085938 180.244140625 335 190 335 c 0
 198.452148438 335 215.849971747 346.592773438 294.700680523 402.020507812 c 1
 351.340924725 442.2578125 375.620117188 461.010742188 375.620117188 471.697265625 c 3
 375.620117188 482.391601562 367.021484375 487 357.151367188 487 c 2
 351.534179688 487 l 1
 351.534179688 506.514648438 l 1
 502 506.514648438 l 1
 502 487 l 1
 495 487 l 0
 476.708984375 487 458.840820312 475.701171875 449.130859375 468.991210938 c 0
 410.360351562 442.19921875 373.771336969 403.188476562 270.807138119 332.50390625 c 1
 276.00300339 319.544921875 307.493772111 286.864257812 374.089039161 208.611328125 c 1
 446.600585938 117.443359375 472.53125 75.7177734375 486.599609375 56.3681640625 c 0
 502.1875 34.9287109375 504.114257812 19 527 19 c 2
 534 19 l 1
 534 0 l 1
 380 0 l 1
 380 19 l 1
 387 19 l 2
 395.229492188 19 402 28.134765625 402 39 c 0
 402 68.0859375 212.422851562 290 180 290 c 0
 175.990234375 290 173.262695312 289.358398438 171 288.315429688 c 1
 171 43.41796875 l 1
 174.05078125 32.33984375 184.318359375 19 200 19 c 2
 207 19 l 1
 207 0 l 1
 51 0 l 1
 51 19 l 1
 58 19 l 2
 74.74609375 19 85.31640625 33.171875 87 44.0673828125 c 1
 87 670 l 2
 87 694.494140625 78.3701171875 704 60 704 c 2
 53 704 l 1
 53 719.399414062 l 1
 142.081054688 742.733398438 l 1
 145.626953125 743.82421875 153.495117188 745.612304688 158 745.612304688 c 0
 170.059570312 745.612304688 171 734.622070312 171 722 c 0
EndSplineSet
Validated: 1
EndChar

StartChar: e
Encoding: 101 101 29
GlifName: e
Width: 546
VWidth: 0
Flags: W
HStem: -10.7041 40.1553<234.978 407.094> 312.634 36.9072<148.455 408.795> 489.908 21.7734<242.514 338.273>
VStem: 50.9697 88.6982<136.869 345.358>
LayerCount: 2
Fore
SplineSet
501.5625 311.552734375 m 1
 146.734375 312.633789062 l 1
 142.7421875 295.72265625 139.66796875 273.354492188 139.66796875 250.795898438 c 0
 139.66796875 161.791992188 176.747070312 29.451171875 317.584960938 29.451171875 c 0
 364.436523438 29.451171875 433.595703125 50.7529296875 483.427734375 95.3056640625 c 1
 495.692382812 75.9365234375 l 1
 442.30859375 15.830078125 390.025390625 -10.7041015625 305.416992188 -10.7041015625 c 0
 163.186523438 -10.7041015625 50.9697265625 63.8994140625 50.9697265625 249.025390625 c 0
 50.9697265625 430.750976562 146.015625 511.681640625 298.467773438 511.681640625 c 0
 419.500976562 511.681640625 502.477539062 425.131835938 502.477539062 328.471679688 c 0
 502.477539062 321.51171875 502.016601562 318.26171875 501.5625 311.552734375 c 1
292.680664062 489.908203125 m 0
 214.543945312 489.908203125 152.934570312 419.553710938 146.829101562 356.622070312 c 1
 181.407226562 352.982421875 222.389648438 349.541015625 283.875 349.541015625 c 0
 316.442382812 349.541015625 380.196289062 350.75 408.794921875 352.7109375 c 1
 404.1484375 431.439453125 362.889648438 489.908203125 292.680664062 489.908203125 c 0
EndSplineSet
Validated: 1
EndChar

StartChar: c
Encoding: 99 99 30
GlifName: c
Width: 539
VWidth: 0
Flags: W
HStem: -10 40<251.378 409.164> 493.075 19.7822<247.287 329.796>
VStem: 53.002 92.0547<162.501 386.767>
LayerCount: 2
Fore
SplineSet
486.546875 93.9267578125 m 1
 499.797851562 76.580078125 l 1
 440.96484375 19.06640625 399.288085938 -10 298.654296875 -10 c 0
 171.303710938 -10 53.001953125 61.6201171875 53.001953125 265.7109375 c 0
 53.001953125 359.693359375 80.8701171875 512.857421875 304.243164062 512.857421875 c 0
 364.069335938 512.857421875 427.497070312 494.875 485.001953125 429.65625 c 0
 488.63671875 425.532226562 491.5234375 420.7109375 491.5234375 415 c 0
 491.5234375 392.041992188 457.751953125 382.485351562 439 382.485351562 c 0
 361.715820312 382.485351562 381.008789062 493.075195312 293.03125 493.075195312 c 0
 208.911132812 493.075195312 145.056640625 403.786132812 145.056640625 278.515625 c 0
 145.056640625 177.3203125 195.889648438 30 325 30 c 0
 388.58984375 30 432.043945312 48.6240234375 486.546875 93.9267578125 c 1
EndSplineSet
Validated: 1
EndChar

StartChar: a
Encoding: 97 97 31
GlifName: a
Width: 553
VWidth: 0
Flags: W
HStem: -10 41.042<181.801 329.906> 272.732 44.0234<323.226 379.028> 480.978 30.8223<222.763 326.231>
VStem: 50.8691 95.4697<62.5584 163.442> 379.028 83.9424<57.3393 272.732> 389.148 73.8223<311.205 427.357>
LayerCount: 2
Fore
SplineSet
499.56640625 48.171875 m 1xf4
 502.754882812 20.90625 l 1
 472.377929688 7.666015625 442.058131397 -6.6083984375 412.348632812 -6.6083984375 c 0
 383.298084589 -6.6083984375 379.349968139 22.75390625 378.924529061 32.5 c 1
 324.120240632 2.7119140625 269.845921767 -10 208.068404626 -10 c 0
 127.280273438 -10 50.869140625 20.521484375 50.869140625 110.493164062 c 0
 50.869140625 210.020507812 258.114257812 278.721679688 389.1484375 316.755859375 c 1
 388.716796875 340.688476562 388.116210938 376.520507812 384.375976562 389.978515625 c 0
 368.088898897 444.875976562 330.2109375 480.977539062 265.133789062 480.977539062 c 0
 191.400390625 480.977539062 196.830078125 389.975585938 125 389.975585938 c 0
 105.567382812 389.975585938 80.7119140625 397.293945312 80.7119140625 420 c 0
 80.7119140625 425.852539062 83.8828125 430.390625 87.1865234375 434.13671875 c 0
 143.873046875 498.416992188 209.75390625 511.799804688 268.344726562 511.799804688 c 0
 417.546875 511.799804688 462.970703125 417.487304688 462.970703125 363.698242188 c 0
 462.970703125 39.8203125 l 1
 474.458007812 42.083984375 488.712890625 45.0498046875 499.56640625 48.171875 c 1xf4
253.4296875 31.0419921875 m 0
 305.909179688 31.0419921875 347.189453125 46.3662109375 379.028320312 71.2919921875 c 1
 379.028320312 272.732421875 l 1xf8
 262.475585938 236.025390625 146.338867188 191.32421875 146.338867188 121 c 0
 146.338867188 63.9248046875 190.458007812 31.0419921875 253.4296875 31.0419921875 c 0
EndSplineSet
Validated: 1
EndChar

StartChar: i
Encoding: 105 105 32
GlifName: i
Width: 265
VWidth: 0
Flags: W
HStem: 0 18.7695<57 84.5516 185.743 213.101> 466.613 16.1875<59.4092 86.4034> 489.353 20G<163.28 170.384> 609.573 106.894<79.3685 165.025>
VStem: 68.75 106.894<620.191 705.848> 93.2285 83.7041<19.9694 466.295>
LayerCount: 2
Fore
SplineSet
122.197265625 609.573242188 m 0xf8
 92.6806640625 609.573242188 68.75 633.502929688 68.75 663.01953125 c 0
 68.75 692.536132812 92.6796875 716.466796875 122.197265625 716.466796875 c 0
 151.713867188 716.466796875 175.643554688 692.536132812 175.643554688 663.01953125 c 0
 175.643554688 633.502929688 151.713867188 609.573242188 122.197265625 609.573242188 c 0xf8
176.932617188 43.4765625 m 5xf4
 179.32421875 31.806640625 190.776367188 18.966796875 206.193359375 18.76953125 c 2
 213.100585938 18.6806640625 l 1
 213.100585938 0 l 1
 57 0 l 1
 57 18.6796875 l 1
 63.9072265625 18.7685546875 l 2
 79.5615234375 18.96875 91.0341796875 32.4365234375 93.228515625 43.78125 c 5
 93.228515625 437.723632812 l 2
 93.228515625 457.84375 82.9853515625 466.61328125 66.4091796875 466.61328125 c 2
 59.4091796875 466.61328125 l 1
 59.4091796875 482.80078125 l 1
 159.1875 508.674804688 l 0
 160.912109375 509.162109375 162.559570312 509.352539062 164 509.352539062 c 0
 176.767578125 509.352539062 176.989257812 495.244140625 177.02734375 485.733398438 c 0
 176.932617188 43.4765625 l 5xf4
EndSplineSet
Validated: 1
EndChar

StartChar: period
Encoding: 46 46 33
GlifName: period
Width: 224
VWidth: 0
Flags: W
HStem: -18 116<66.411 156.707>
VStem: 53 117<-4.70676 84.7068>
LayerCount: 2
Fore
SplineSet
53 40 m 0
 53 71.9433384333 79.2241126186 98 112 98 c 0
 143.88123928 98 170 71.8812306571 170 40 c 0
 170 8.11876072028 143.881230657 -18 112 -18 c 0
 79.2241804069 -18 53 8.05656133821 53 40 c 0
EndSplineSet
Validated: 1
EndChar

StartChar: comma
Encoding: 44 44 34
GlifName: comma
Width: 240
VWidth: 0
Flags: W
HStem: -86 26<60.5554 91.3321>
VStem: 104 81<-42.9752 63.0206>
LayerCount: 2
Fore
SplineSet
63 38 m 0
 63 70.3834678888 93.3652791508 98 126 98 c 0
 159.975893594 98 185 69.8839748223 185 41 c 0
 185 -36.4510292327 143.376720946 -86 86 -86 c 4
 70.1475285938 -86 63.1095050172 -81.8577478755 60.4264409851 -80.5685879801 c 1
 45 -60 l 1
 66.9080227723 -60 104 -53.0129764714 104 -27 c 0
 104 -23.5962313256 102.39844251 -20.2979374466 98.1209487849 -16.0204437216 c 1
 82.0252775643 -0.818976457578 63 6.41483525015 63 38 c 0
EndSplineSet
Validated: 1
EndChar

StartChar: D
Encoding: 68 68 35
GlifName: D_
Width: 804
VWidth: 0
Flags: W
HStem: 0 33.4834<203.668 428.948> 0 19.292<53.8213 96.1409> 692.018 38.1602<203.568 440.946> 711.112 19.2227<53.8232 96.1152>
VStem: 108.938 94.6291<56.708 691.408> 635.35 101.65<225.326 497.466>
LayerCount: 2
Fore
SplineSet
106.064453125 676.516601562 m 1x6c
 106.064453125 684.806640625 99.9345703125 705.5546875 83.8056640625 708.756835938 c 0
 74.1552734375 710.673828125 64.6826171875 710.970703125 53.8232421875 711.112304688 c 1
 53.8232421875 730.334960938 l 1x5c
 102.389985661 730.334960938 146.263548015 730.177734375 197.867025861 730.177734375 c 0
 254.219463007 730.546875 303.883060892 731.009765625 357.812268618 731.009765625 c 0
 559.203507702 731.009765625 737 606.153320312 737 362.813476562 c 0
 737 123.630859375 578.927163229 -2.5302734375 344.912580418 -2.5302734375 c 0
 301.483207 -2.5302734375 239.504174647 0 182.915206213 0 c 2
 53.8212890625 0 l 1
 53.8212890625 19.2919921875 l 1
 60.7275390625 19.3837890625 l 0
 68.673828125 19.48828125 76.3544921875 20.1689453125 83.8017578125 21.6494140625 c 0
 99.9970703125 24.869140625 106.061523438 45.3447265625 106.061523438 53.76953125 c 1
 107.736328125 171.307617188 108.938476562 285.30859375 108.938476562 401.306640625 c 0
 108.938476562 493.317382812 108.129882812 583.538085938 106.064453125 676.516601562 c 1x6c
203.567382812 685.107421875 m 0
 203.567615088 672.106445312 l 2
 203.567615088 466.961914062 202.534994644 56.7109375 202.534994644 56.7080078125 c 1
 202.534994644 56.7080078125 205.12890625 34.173828125 213.08203125 33.4833984375 c 0
 250.28125 33.5703125 283.741210938 34.158203125 320.889648438 34.158203125 c 0
 556.525390625 34.158203125 635.349609375 192.4609375 635.349609375 352.927734375 c 0
 635.349609375 612.8359375 487.200195312 691.540039062 317.236328125 691.540039062 c 0
 306.963867188 691.540039062 264.831054688 692.017578125 245.256835938 692.017578125 c 0xac
 235.040039062 692.017578125 209.053710938 691.571289062 208.814453125 691.5703125 c 1
 204.53125 691.509765625 203.567382812 687.698242188 203.567382812 685.107421875 c 0
EndSplineSet
Validated: 1
EndChar

StartChar: N
Encoding: 78 78 36
GlifName: N_
Width: 841
VWidth: 0
Flags: W
HStem: -8.99023 21G<720.254 726.825> 0 18.9463<44 79.6374 170.819 206.16> 711.016 18.9844<44.002 80.3927 629.392 664.677 754.617 790.887>
VStem: 96.2402 55.5918<26.4336 607.279> 682.066 56.9336<170.81 704.228>
LayerCount: 2
Fore
SplineSet
738.361328125 676.905273438 m 0x78
 736.4765625 584.365234375 735.751953125 492.911132812 735.751953125 400.250976562 c 0
 735.751953125 269.145507812 737.233398438 138.0625 739 6.748046875 c 1
 739 -3.271484375 730.650390625 -8.990234375 723 -8.990234375 c 0xb8
 717.50898482 -8.990234375 714.627186156 -6.62718615589 712 -4 c 2
 704 4 l 0
 520.467773438 210.897460938 338.653320312 404.021484375 152.829101562 607.279296875 c 1
 152.790039062 557.42578125 151.778320312 510.641601562 151.778320312 462 c 0
 151.778320312 361.999023438 151.83203125 262.05859375 151.83203125 162 c 0
 151.83203125 126.436523438 152.825195312 90.4228515625 153.806640625 55.123046875 c 0
 154.317286304 36.7565699158 174.989257812 19.26171875 199.038085938 18.9462890625 c 2
 206.16015625 18.853515625 l 1
 206.16015625 0 l 1
 44 0 l 1
 44 19.2919921875 l 1
 50.90625 19.3837890625 l 2
 75.689453125 19.7099609375 96.240234375 36.2265625 96.240234375 56.455078125 c 2
 97.873046875 398.75 l 1
 96.2578125 673.939453125 l 2
 95.9955063098 693.906041608 75.6953125 710.69921875 50.9091796875 711.022460938 c 2
 44.001953125 711.112304688 l 1
 44.001953125 730 l 1
 168.1328125 730 l 1
 682.06640625 170.809570312 l 1
 682.06640625 340.893554688 681.750976562 502.719726562 681.750976562 675.008789062 c 0
 681.750976562 693.828076921 660.116210938 710.141601562 636.298828125 710.4609375 c 6
 629.391601562 710.552734375 l 5
 629.391601562 730 l 1
 790.88671875 730 l 1
 790.88671875 711.106445312 l 5
 783.979492188 711.015625 l 6
 761.04296875 710.716796875 739.54296875 694.438476562 738.361328125 676.905273438 c 0x78
EndSplineSet
Validated: 1
EndChar

StartChar: L
Encoding: 76 76 37
GlifName: L_
Width: 617
VWidth: 0
Flags: W
HStem: 0 19.3105<57 93.7731 225.461 395.17> 711.048 18.9521<57.0029 92.7845 222.968 258.047>
VStem: 111.116 91.8447<29.4981 702.928> 538.23 19.7324<147.434 152.671>
LayerCount: 2
Fore
SplineSet
205.663085938 59.0849609375 m 1
 205.663085938 49.2802734375 211.515625 30.171875 228.51953125 28.279296875 c 0
 249.508789062 25.9423828125 259.854492188 25 280.623046875 25 c 1
 345.279296875 25.3427734375 397.366210938 25.9267578125 440.993164062 35.9990234375 c 0
 500.141601562 50.296875 525.015625 88.896484375 537.145507812 147.43359375 c 0
 538.23046875 152.670898438 l 1
 557.962890625 154.50390625 l 5
 539.201171875 0 l 5
 57 0 l 1
 57 19.310546875 l 1
 63.9248046875 19.3837890625 l 2
 89.4248046875 19.654296875 109.241210938 36.7421875 109.241210938 57.5234375 c 0
 110.899414062 173.627929688 111.116210938 286.466796875 111.116210938 402.288085938 c 0
 111.116210938 493.94921875 110.30078125 583.908203125 109.244140625 676.470703125 c 0
 109.048388796 693.618708064 87.158203125 710.720703125 63.91015625 711.020507812 c 2
 57.0029296875 711.110351562 l 1
 57.0029296875 730 l 1
 258.046875 730 l 1
 258.046875 711.134765625 l 1
 251.13671875 711.047851562 l 2
 233.859375 710.830078125 206.100809913 696.981771895 205.82421875 675.887695312 c 0
 203.807617188 584.193359375 202.9609375 492.500976562 202.9609375 400.638671875 c 0
 204.662520274 286.883789062 203.890625 173.12109375 205.663085938 59.0849609375 c 1
EndSplineSet
Validated: 1
EndChar

StartChar: M
Encoding: 77 77 38
GlifName: M_
Width: 873
VWidth: 0
Flags: W
HStem: 0 19.3838<37.2783 73.6882 160.742 196.284 607.082 643.709 771.425 808.132> 711.112 18.8877<57.2803 92.6115 771.454 808.129>
VStem: 89.5234 54.5693<25.9192 261.974> 109.536 52.6152<460.227 588.842> 661.725 90.8835<27.3712 589.321>
LayerCount: 2
Fore
SplineSet
755.909179688 54.57421875 m 0xd8
 756.294921875 36.1376953125 777.545898438 19.669921875 801.21875 19.3837890625 c 2
 808.131835938 19.298828125 l 1
 808.131835938 0 l 1
 607.08203125 0 l 1
 607.08203125 18.853515625 l 1
 614.98828125 18.9462890625 l 2
 638.977539062 19.2705078125 659.047851562 36.873046875 659.333984375 55.6259765625 c 0
 660.30859375 119.846679688 661.724609375 184.041992188 661.724609375 248 c 0
 661.724609375 328.92578125 661.732421875 412.956054688 661.732421875 495 c 0
 661.732421875 526.795898438 661.666015625 558.654296875 661.495117188 589.321289062 c 1
 425.305664062 138.829101562 l 1
 422.087890625 132.670898438 412.383789062 118.276367188 401.993164062 118.276367188 c 0
 394.793945312 118.276367188 389.693359375 123.755859375 386.129882812 130.999023438 c 0
 386.129882812 130.999023438 211.4765625 485.631835938 162.151367188 588.841796875 c 1xd8
 144.092773438 55.0693359375 l 1
 145.827312459 36.4074109499 165.389648438 20.2705078125 189.377929688 19.9462890625 c 2
 196.284179688 19.853515625 l 1
 196.284179688 0 l 1
 37.2783203125 0 l 1
 37.2783203125 19.2919921875 l 1
 44.1845703125 19.3837890625 l 2
 69.490234375 19.716796875 88.7060546875 36.154296875 89.5234375 56.6875 c 0xe8
 97.6689453125 260.612304688 104.75 466.241210938 109.536132812 673.08203125 c 1
 109.538085938 673.361328125 109.538085938 673.7890625 109.538085938 674.078125 c 0
 109.538085938 693.17578125 88.21484375 710.708984375 64.1875 711.022460938 c 2
 57.2802734375 711.112304688 l 1
 57.2802734375 730 l 1
 207.640625 730 l 1
 440.70703125 272.252929688 l 1
 674.948242188 729.998046875 l 1
 808.12890625 729.998046875 l 1
 808.12890625 711.103515625 l 1
 801.213867188 711.020507812 l 2
 777.877929688 710.741210938 756.00390625 695.323242188 755.907226562 676.873046875 c 0
 755.096679688 615.801757812 752.676757812 555.086914062 752.676757812 494.520507812 c 0
 752.676757812 451.722911325 752.608119624 409.123412953 752.608119624 366.663730775 c 0
 752.608119624 262.075913329 753.024580809 158.336428563 755.909179688 54.57421875 c 0xd8
EndSplineSet
Validated: 1
EndChar

StartChar: slash
Encoding: 47 47 39
GlifName: slash
Width: 398
VWidth: 0
Flags: W
VStem: 40.1748 321.825
LayerCount: 2
Fore
SplineSet
45.42578125 -93.5966796875 m 6
 147.358398438 185.219726562 220.290039062 420.998046875 292.259765625 677.888671875 c 4
 292.881835938 680.109375 l 5
 294.702148438 681.525390625 l 4
 313.461914062 696.116210938 319.727791 703 334 703 c 0
 350.057121775 703 362 692.849436072 362 676 c 0
 362 674.795697405 l 1
 361.597528491 673.660637308 l 0
 274.230465328 427.26588614 127.627850418 -44.1709234395 122.870827662 -59.4781732352 c 1
 115.457723171 -113.025541733 83.9169921875 -91.408203125 54.4775390625 -102.546875 c 4
 40.1748046875 -107.958984375 l 5
 45.42578125 -93.5966796875 l 6
EndSplineSet
Validated: 1
EndChar

StartChar: S
Encoding: 83 83 40
GlifName: S_
Width: 583
VWidth: 0
Flags: W
HStem: -9.56348 50.0068<212.434 382.378> 705.885 36.4453<241.545 383.17>
VStem: 50.002 75.042<130.991 173.376> 95.5469 89.1347<524.596 638.655> 448.308 82.501<117.493 240.791>
LayerCount: 2
Fore
SplineSet
125.043945312 195.3203125 m 5xe8
 130.727539062 145.765625 174.362304688 40.443359375 295.37109375 40.443359375 c 4
 389.67578125 40.443359375 448.307617188 101.716796875 448.307617188 174.490234375 c 4
 448.307617188 248.498046875 382.27734375 295.260742188 294.2109375 345.998046875 c 4
 201.44921875 399.440429688 95.546875 475.96484375 95.546875 558.513671875 c 4
 95.546875 650.10546875 169.591796875 742.330078125 329.2588676 742.330078125 c 4
 418.71875 742.330078125 515.370117188 714.271484375 515.370117188 686 c 4
 515.370117188 672.71484375 493.745117188 597.8984375 474 597.8984375 c 4
 446.294921875 597.8984375 428.184570312 705.884765625 312.271484375 705.884765625 c 4
 211.01171875 705.884765625 184.681567411 633.635742188 184.681567411 584.477539062 c 4xd8
 184.681567411 516.303710938 254.860243281 476.044921875 341.652244458 427.26953125 c 4
 447.294921875 366.634765625 530.80859375 304.59375 530.80859375 214.552734375 c 4
 530.80859375 130.538085938 493.146484375 78.2412109375 442.795898438 38.103515625 c 4
 404.485928973 7.857421875 344.520150456 -9.5634765625 292.998416207 -9.5634765625 c 4
 140.95703125 -9.5634765625 50.001953125 75.9794921875 50.001953125 123 c 4
 50.001953125 146.665039062 87.67578125 206.002929688 112 206.002929688 c 4
 115.349609375 206.002929688 124.1015625 204.380859375 125.043945312 195.3203125 c 5xe8
EndSplineSet
Validated: 1
EndChar

StartChar: T
Encoding: 84 84 41
GlifName: T_
Width: 709
VWidth: 0
Flags: W
HStem: 0 19.1982<274.094 306.833 437.737 475.138> 695.114 34.8857<125.426 309.363 423.712 627.523>
VStem: 328.023 92.0029<26.2631 693.734> 648.169 20.7305<599.981 661.226>
LayerCount: 2
Fore
SplineSet
278.635742188 695.114257812 m 4
 243.80859375 695.114257812 180.429645424 692.118164062 151.298828125 687.104492188 c 4
 109.049261517 679.721618555 91.3258633397 650.477571347 81.953125 600.315429688 c 5
 58 600.338867188 l 5
 77.2841796875 727.470703125 l 5
 77.3984375 727.880859375 l 4
 79.1357421875 734.109375 85.2607421875 735.953125 89.140625 735.953125 c 4
 97.06640625 735.953125 106.72265625 732.861328125 113.200195312 732.763671875 c 4
 150.03515625 732.20703125 242.834018204 730 369.189762072 730 c 5
 480.100833711 730.999023438 550.114206089 732.755424773 639.889648438 734.752929688 c 4
 643.140997582 734.825272254 657.814453125 737.774414062 664.51171875 737.774414062 c 4
 669.46875 737.774414062 673.140625 737.12109375 673.140625 725.883789062 c 5
 668.899414062 599.981445312 l 5
 648.168945312 599.764648438 l 5
 648.016391369 635.199247736 640.037849989 681.898056445 609.67578125 689.145507812 c 4
 587.244773161 694.499808325 558.19691248 694.758789062 496.921402993 694.758789062 c 4
 479.086375398 694.758789062 463.495117188 694.333984375 444.612304688 693.956054688 c 4
 429.529296875 693.654296875 422.94140625 682.017578125 422.821289062 671.188476562 c 4
 421.094726562 556.836914062 420.026367188 442.542139818 420.026367188 328.3828125 c 7
 420.026367188 236.970703125 420.85546875 145.717773438 422.881835938 54.46875 c 5
 423.006835938 44.91796875 431.037109375 29.744140625 447.155273438 23.546875 c 4
 454.244786465 20.8210313361 460.286132812 19.38671875 468.23046875 19.2841796875 c 4
 475.137695312 19.1953125 l 5
 475.137695312 0 l 5
 274.09375 0 l 5
 274.09375 19.1982421875 l 5
 281.004882812 19.2841796875 l 4
 293.364257812 19.439453125 298.037037208 20.3625301159 307.26171875 25.314453125 c 4
 321.427734375 32.9189453125 325.024414062 45.048828125 325.142578125 54.0576171875 c 4
 326.5390625 118.842773438 328.0234375 264.541992188 328.0234375 329.220703125 c 7
 328.0234375 467.991210938 326.791059775 525.669429969 326.534179688 664.8984375 c 4
 326.534179688 680.685215605 320.635580622 692.237050003 309.63671875 693.815429688 c 4
 303.87890625 694.641601562 292.482421875 695.114257812 278.635742188 695.114257812 c 4
EndSplineSet
Validated: 1
EndChar

StartChar: Q
Encoding: 81 81 42
GlifName: Q_
Width: 838
VWidth: 0
Flags: W
HStem: -146.864 45.2461<514.09 652.195> 693.77 39.0391<310.287 516.501>
VStem: 55 103.326<215.968 490.04> 682.246 101.326<231.661 496.308>
LayerCount: 2
Fore
SplineSet
408.982421875 693.76953125 m 0
 186.6640625 693.76953125 158.326171875 458.814453125 158.326171875 380.296875 c 0
 158.326171875 51.1904296875 351.54296875 23.6669921875 426.181640625 23.6669921875 c 4
 557.459960938 23.6669921875 682.24609375 98.6103515625 682.24609375 372.69921875 c 0
 682.24609375 537.133789062 612.104492188 693.76953125 408.982421875 693.76953125 c 0
416.303196056 732.80859375 m 0
 617.238168288 732.80859375 783.572265625 605.609159826 783.572265625 356.807617188 c 0
 783.572265625 136.9921875 615.597956171 5.9990234375 459.734232439 -14.2607421875 c 1
 468.951476856 -64.3271484375 512.964623243 -101.618164062 621.803108062 -101.618164062 c 0
 629.591719809 -101.618164062 637.706071869 -101.416015625 646.154207213 -101.008789062 c 0
 652.195483577 -100.717773438 l 1
 661.968698343 -142.419921875 l 1
 653.759841377 -143.138671875 l 0
 625.897985517 -145.578125 599.796534868 -146.864257812 575.475596857 -146.864257812 c 0
 435.456525395 -146.864257812 352.689330085 -105.264648438 341.656385033 -9.4599609375 c 1
 215.99200552 14.2890625 55 102.645507812 55 348.01953125 c 0
 55 597.638671875 219.485670915 732.80859375 416.303196056 732.80859375 c 0
EndSplineSet
Validated: 1
EndChar

StartChar: P
Encoding: 80 80 43
GlifName: P_
Width: 568
VWidth: 0
Flags: W
HStem: 0 19.3506<17.1318 52.9566 181.893 217.524> 274.9 43.0996<189.227 330.915> 699.888 32.1123<166.637 326.544> 711.111 19.2803<17.1348 53.6317>
VStem: 71.2793 92.2461<26.8868 699.319> 439.653 92.7344<418.093 605.199>
LayerCount: 2
Fore
SplineSet
166.504882812 53.4375 m 0xec
 166.702148438 35.740234375 188.578125 19.62109375 210.249023438 19.3505859375 c 6
 217.524414062 19.259765625 l 5
 217.524414062 0 l 1
 17.1318359375 0 l 1
 17.1318359375 19.2919921875 l 5
 24.0380859375 19.3837890625 l 6
 47.2314453125 19.6884765625 69.373046875 36.610253856 69.373046875 53.806640625 c 0
 70.97265625 170.919921875 71.279296875 284.684570312 71.279296875 400.326171875 c 0
 71.279296875 487.400390625 69.494140625 582.247070312 69.494140625 669.176757812 c 0
 69.494140625 697.556640625 46.3193359375 710.779296875 25.0419921875 711.021484375 c 2
 17.134765625 711.111328125 l 1
 17.134765625 730.391601562 l 1xdc
 247.758504 732 l 0
 407.401675656 732 532.387695312 671.052734375 532.387695312 503.467773438 c 0
 532.387695312 347.451171875 380.828125 274.900390625 250.137695312 274.900390625 c 0
 237.390625 274.900390625 224.76953125 275.51171875 212.39453125 276.7109375 c 0
 198.357421875 278.071289062 189.200195312 286.041015625 189.200195312 297 c 0
 189.200195312 307.53125 198.0390625 318 212.346679688 318 c 0
 335.850585938 318 439.653320312 367.768554688 439.653320312 515.353515625 c 0
 439.653320312 651.674804688 362.022460938 699.887695312 210.8828125 699.887695312 c 0
 166.63671875 699.887695312 l 1
 164.458984375 600.973632812 163.525390625 494.219726562 163.525390625 395.96484375 c 0
 163.525390625 281.893554688 164.66015625 167.737304688 166.504882812 53.4375 c 0xec
EndSplineSet
Validated: 1
EndChar

StartChar: R
Encoding: 82 82 44
GlifName: R_
Width: 703
VWidth: 0
Flags: W
HStem: 0 19.293<54 89.9816 220.14 255.05 612.941 650.564> 333.006 27.9941<199.992 274.464> 699.888 34.1123<203.031 361.006> 711.022 19.082<54.0029 92.1485>
VStem: 108.146 91.4229<27.8658 335.342 361.257 699.686> 454.53 96.7256<453.969 625.507>
LayerCount: 2
Fore
SplineSet
202.829101562 54.505859375 m 2xec
 203.011446847 36.7662682851 224.951171875 20.259765625 248.143554688 19.9462890625 c 2
 255.049804688 19.853515625 l 1
 255.049804688 0 l 1
 54 0 l 1
 54 19.29296875 l 1
 60.90625 19.3837890625 l 2
 84.646484375 19.6962890625 106.04641665 36.0953968685 106.2421875 54.5673828125 c 0
 107.838867188 171.212890625 108.145507812 287.8125 108.145507812 404.251953125 c 0
 108.145507812 490.012695312 106.362304688 582.548828125 106.362304688 668.177734375 c 0
 106.362304688 693.557617188 91.1865234375 710.689453125 61.91015625 711.022460938 c 2
 54.0029296875 711.112304688 l 1
 54.0029296875 730.462890625 l 1
 61.1318359375 730.33203125 l 0
 69.7490234375 730.172851562 78.3720703125 730.104492188 87 730.104492188 c 0xdc
 150.796875 730.104492188 214.837890625 734 280.265158131 734 c 0
 436.656897674 734 551.255859375 676.373046875 551.255859375 534.771484375 c 0
 551.255859375 431.076171875 475.386241154 365.008789062 385.902323862 342.102539062 c 1
 473.209649789 220.06640625 553.452148438 103.7109375 593.497070312 50.310546875 c 0
 607.5751855 31.5380909665 616.379882812 20.435546875 643.65625 20.0830078125 c 2
 650.564453125 19.994140625 l 1
 650.565429688 0.6962890625 l 1
 534.078125 0.6962890625 l 0
 483.791358969 0.6962890625 456.397357862 59.7802734375 444.1531318 73.4677734375 c 0
 444.1531318 73.4677734375 280.173828125 315.288085938 267.87109375 333.005859375 c 1
 244.340820312 333.038085938 223.541015625 333.081054688 199.9921875 335.341796875 c 1
 202.829101562 54.505859375 l 2xec
199.568359375 396.34375 m 0
 199.568359375 386.552734375 199.57421875 369.799804688 199.6015625 361.256835938 c 1
 209.293945312 361.109375 219.666992188 361 229 361 c 0
 353.598632812 361 454.530239336 423.59765625 454.530239336 531.491210938 c 0
 454.530239336 655.219726562 387.756835938 699.887695312 244 699.887695312 c 0
 203.03125 699.887695312 l 1xec
 202.1015625 601.006835938 199.568359375 494.33203125 199.568359375 396.34375 c 0
EndSplineSet
Validated: 1
EndChar

StartChar: U
Encoding: 85 85 45
GlifName: U_
Width: 765
VWidth: 0
Flags: W
HStem: -10.665 36.667<294.893 480.141> 710.717 19.2881<31.8682 68.353 195.866 232.92 566.244 602.784 695.03 730.739>
VStem: 85.7393 92.3262<163.441 703.697> 618.919 60.0127<172.002 655.648 655.756 704.298>
LayerCount: 2
Fore
SplineSet
84.6005859375 673.946289062 m 2
 84.6005859375 694.73046875 60.9775390625 710.217773438 38.7666015625 710.534179688 c 2
 31.8681640625 710.6328125 l 1
 31.8681640625 729.854492188 l 1
 232.919921875 730.004882812 l 1
 232.919921875 710.805664062 l 1
 226.012695312 710.716796875 l 2
 201.459960938 710.399414062 181.075195312 695.649414062 180.716796875 674.11328125 c 0
 179.469726562 599.142578125 178.065429688 324.372070312 178.065429688 318.538085938 c 0
 178.065429688 107.192382812 251.248046875 26.001953125 388.458007812 26.001953125 c 4
 513.2265625 26.001953125 618.918945312 109.043945312 618.918945312 304.530273438 c 0
 618.918945312 334.883789062 618.603515625 646.013671875 618.603515625 676.04296875 c 0
 618.603515625 693.490234375 595.9140625 710.631835938 573.151367188 710.928710938 c 2
 566.244140625 711.018554688 l 1
 566.244140625 730.334960938 l 1
 730.739257812 730.334960938 l 1
 730.739257812 710.9765625 l 1
 723.83203125 710.88671875 l 2
 701.168945312 710.591796875 678.278320312 693.53515625 678.21875 675.16796875 c 0
 678.1953125 667.831054688 678.185546875 655.747070312 678.185546875 655.747070312 c 1
 678.185546875 655.747070312 678.931640625 518.928710938 678.931640625 456.4609375 c 0
 678.931640625 374.99609375 678.5625 312.677734375 677.850585938 278.514648438 c 0
 672.90234375 40.923828125 498.0859375 -10.6650390625 385.6875 -10.6650390625 c 0
 271.334960938 -10.6650390625 86.482421875 41.8203125 85.7392578125 291.442382812 c 2
 84.6005859375 673.946289062 l 2
EndSplineSet
Validated: 1
EndChar

StartChar: J
Encoding: 74 74 46
GlifName: J_
Width: 309
VWidth: 0
Flags: W
HStem: -180.214 28.5156<-82 -41.1426> 710.911 19.0889<51.0029 88.381 215.324 252.047>
VStem: 104.29 93.0996<-47.8248 703.792>
LayerCount: 2
Fore
SplineSet
103.290039062 675.6875 m 0
 102.9921875 695.1484375 82.8837890625 710.708984375 58.564453125 710.931640625 c 2
 51.0029296875 711.000976562 l 1
 51.0029296875 730 l 1
 252.046875 730 l 1
 252.046875 710.994140625 l 1
 245.131835938 710.911132812 l 2
 221.483398438 710.627929688 200.139648438 694.928710938 199.82421875 676.620117188 c 0
 198.787109375 616.201171875 197.389648438 522.18359375 197.389648438 424.700195312 c 0
 197.389648438 248.86328125 199.53125 61.7353515625 200.196289062 39.5791015625 c 0
 199.662109375 -103.026367188 98.578125 -174.78515625 -82 -180.213867188 c 1
 -82 -151.698242188 l 1
 56.2392578125 -112.787109375 101.51171875 -81.3896484375 102.859375 73.3212890625 c 0
 103.098632812 100.798828125 104.290039062 296.1015625 104.290039062 466.247070312 c 0
 104.290039062 545.038085938 104.1328125 620.58984375 103.290039062 675.6875 c 0
EndSplineSet
Validated: 1
EndChar

StartChar: plus
Encoding: 43 43 47
GlifName: plus
Width: 406
VWidth: 0
Flags: W
HStem: 269 58<66.8641 173.675 233.006 353.966>
VStem: 174 58<137.292 268.986 327.266 436.326>
LayerCount: 2
Fore
SplineSet
232 152 m 0
 232 137.977538601 213.142313903 137 204 137 c 0
 195.368061363 137 174 137.40884146 174 152 c 0
 174 267 l 0
 174 267.72222616 173.720907577 268.716123408 173.609044062 269 c 1
 66.8640563788 269 l 1
 65.7864056379 269.359216914 l 0
 53.7570449357 273.369003814 52 289.216363011 52 300 c 0
 52 309.82648184 53.8521989695 327 68 327 c 0
 172 327 l 0
 173.339854022 327 173.675388466 327.256341659 173.675388466 327.256341659 c 1
 173.790017036 327.44977737 174 328.248513893 174 329 c 0
 174 437.04531454 l 1
 178.786405638 438.640783086 l 0
 188.055822896 441.730588839 196.813787207 444 206 444 c 0
 215.219692998 444 222.566735267 441.542870288 229.130495168 438.260990337 c 0
 233 436.326237921 l 1
 233 328 l 0
 233 327.569837128 233.006137713 327 233.006137713 327 c 1
 341 327 l 0
 355.675839943 327 354 303.130943169 354 295 c 0
 354 288.265916923 355.497305028 269 341 269 c 0
 232 269 l 0
 232 152 l 0
EndSplineSet
Validated: 1
EndChar

StartChar: B
Encoding: 66 66 48
GlifName: B_
Width: 629
VWidth: 0
Flags: W
HStem: -1.66699 29.9814<204.397 374.721> 0 19.293<54 88.7929> 364.477 32.6455<202.383 335.767> 699.924 34.0762<199.761 362.251> 711.112 18.9922<54.0029 89.8185>
VStem: 106.242 95.7757<29.6981 362.292 398.178 698.04> 448.991 90.2646<479.642 629.023> 482.078 97.7344<106.165 277.393>
LayerCount: 2
Fore
SplineSet
482.078125 198.264648438 m 0xa5
 482.078125 307.607421875 399.413085938 363.693359375 256.153320312 364.4765625 c 1
 202.3828125 362.291992188 l 1
 202.017913825 56.9873046875 l 2
 202.844537268 39.154296875 209.609375 29.6103515625 217.875 29.443359375 c 1
 234.9453125 29.0048828125 251.627929688 28.314453125 268.635742188 28.314453125 c 0
 441.043945312 28.314453125 482.078125 106.40625 482.078125 198.264648438 c 0xa5
539.255859375 549.553710938 m 0x36
 539.255859375 472.431640625 477.366210938 416.331054688 396.270507812 391 c 5
 483.724609375 374.106445312 579.8125 308.243164062 579.8125 188.741210938 c 0
 579.8125 49.2685546875 471.572265625 -1.6669921875 350.186828599 -1.6669921875 c 0xb5
 276.25999444 -1.6669921875 212.758884271 0 140.559570312 0 c 0
 54 0 l 1
 54 19.29296875 l 1
 79.8251953125 19.6328125 106.017737909 33.3894102535 106.2421875 54.5673828125 c 0
 107.829101562 170.55859375 109.146484375 286.502929688 109.146484375 402.290039062 c 0
 109.146484375 488.706054688 106.362304688 584.8984375 106.362304688 671.177734375 c 0
 106.362304688 695.376953125 86.7333984375 710.686523438 54.0029296875 711.112304688 c 1
 54.0029296875 730.462890625 l 1
 64.8987553137 730.262885059 75.9926741389 730.104492188 87 730.104492188 c 0x6d
 150.796875 730.104492188 216.941290832 734 284.408139802 734 c 0
 435.888682653 734 539.255859375 658.194335938 539.255859375 549.553710938 c 0x36
240.245117188 397.122070312 m 0
 360.770507812 397.122070312 448.991210938 462.391601562 448.991210938 548.590820312 c 0x36
 448.991210938 638.049804688 391.888671875 699.923828125 271.790039062 699.923828125 c 0
 255.622070312 699.923828125 210.983398438 697.6640625 210.067382812 697.627929688 c 0
 200.388671875 697.241210938 200.102817278 686.118164062 199.207394121 678.064453125 c 1
 200.494051479 519.555664062 l 0
 200.92578125 398.177734375 l 1
 215.130859375 397.750976562 227.272460938 397.122070312 240.245117188 397.122070312 c 0
EndSplineSet
Validated: 1
EndChar

StartChar: C
Encoding: 67 67 49
GlifName: C_
Width: 799
VWidth: 0
Flags: W
HStem: -10 46<316.124 534.558> 700.77 41.2314<318.006 523.476>
VStem: 55 103<225.784 497.683> 694.579 22.1055<453.341 497.025>
LayerCount: 2
Fore
SplineSet
433.351567434 742.000976562 m 0
 575.344010941 742.000976562 645.116210938 657.255859375 670 657.255859375 c 0
 689.168945312 657.255859375 685.916992188 683.427734375 701.506835938 683.427734375 c 0
 708.176757812 683.427734375 713.845703125 676.545898438 713.999023438 665.139648438 c 0
 716.684570312 464.795898438 l 1
 716.333984375 459.896484375 712.397460938 453.322265625 706.036132812 453.322265625 c 0
 701.416015625 453.322265625 696.576171875 455.2265625 694.579101562 463.323242188 c 0
 670.114257812 562.456054688 591.583007812 700.76953125 418.883789062 700.76953125 c 0
 229.526367188 700.76953125 158 519.981445312 158 384.646484375 c 0
 158 62.6123046875 348.673828125 36 421.984375 36 c 0
 597.329101562 36 687.795898438 175.2265625 694.366210938 190.103515625 c 1
 722.598632812 182.6640625 l 0
 722.032226562 181.059570312 653.920898438 -10 414.001438707 -10 c 0
 294.808521026 -10 55 53.6748046875 55 352.255859375 c 0
 55 552.173828125 163.037109375 742.000976562 433.351567434 742.000976562 c 0
EndSplineSet
Validated: 1
EndChar

StartChar: E
Encoding: 69 69 50
GlifName: E_
Width: 604
VWidth: 0
Flags: W
HStem: 0 24.9922<57 103.876 215.651 446.673> 378 33<204.216 418.806> 705 25<57.0029 104.632 230.979 407.145>
VStem: 109.241 98.4216<28.7272 374.891 413.827 701.618> 434.066 17.0547<318.025 350.812 434.178 469.521> 503.739 19.7324<577.329 611.786> 538.23 19.7324<117.839 152.671>
LayerCount: 2
Fore
SplineSet
402.474609375 371.610351562 m 1
 370.276367188 374.612304688 340.794921875 378 305.814453125 378 c 0
 274.180664062 378 233.108398438 375.33203125 204.215820312 373.043945312 c 1
 207.662812735 61.015625 l 1
 207.662812735 50.83203125 214.133789062 30.099609375 230.51953125 28.2763671875 c 0
 250.484375 26.0556640625 260.760742188 24.9921875 279.483398438 24.9921875 c 0
 344.774414062 24.9921875 396.923828125 25.82421875 440.993164062 35.9990234375 c 0
 502.793945312 50.9384765625 525.478715191 91.1158540505 538.23046875 152.670898438 c 1
 557.962890625 154.50390625 l 1
 539.201171875 0 l 1
 57 0 l 1
 57 19.310546875 l 1
 69.7587890625 19.4453125 73.880859375 19.4404296875 84.98046875 21.6484375 c 0
 101.173828125 24.8681640625 109.137695312 44.7255859375 109.241210938 54.546875 c 0
 109.244140625 54.826171875 l 1
 109.270507812 55.10546875 l 0
 110.833984375 71.748046875 111.291992188 249.173828125 111.291992188 410.137695312 c 0
 111.291992188 534.967773438 110.405273438 651.07421875 109.283203125 675.34375 c 0
 109.26171875 675.592773438 l 1
 109.258789062 675.842773438 l 0
 109.133789062 685.345703125 102.1015625 705.555664062 85.9853515625 708.755859375 c 0
 76.3349609375 710.672851562 67.8623046875 710.96875 57.0029296875 711.110351562 c 1
 57.0029296875 730.333007812 l 1
 126.606558737 730.333007812 188.903107362 730 266.900331989 730 c 2
 504.709960938 730 l 1
 523.471679688 575.49609375 l 1
 503.739257812 577.329101562 l 1
 490.973846638 638.950073805 467.5703125 674.998046875 404.204101562 694.123046875 c 0
 370.81640625 704.052734375 332.323242188 705 282.125976562 705 c 0
 261.310546875 705 251.004882812 704.063476562 230.001953125 701.736328125 c 0
 215.041992188 700.079101562 207.762582487 681.360351562 207.665898397 674.455078125 c 0
 204.130859375 415.444335938 l 1
 235.579101562 413.255859375 274.81640625 411 305.814453125 411 c 0
 344.228515625 411 374.908203125 413.880859375 405.754882812 416.587890625 c 1
 425.514648438 421.293945312 431.673828125 445.916992188 434.06640625 469.520507812 c 1
 451.12109375 469.520507812 l 1
 451.12109375 318.025390625 l 1
 434.06640625 318.025390625 l 1
 429.944335938 341.92578125 425.21875 366.143554688 402.474609375 371.610351562 c 1
EndSplineSet
Validated: 1
EndChar

StartChar: F
Encoding: 70 70 51
GlifName: F_
Width: 607
VWidth: 0
Flags: W
HStem: 0 19.2949<58.0029 85.6374 225.35 259.047> 359 33<201.564 417.29> 705.333 25<58 104.932 211.324 440.645>
VStem: 109.258 97.5664<23.5536 356.112 394.795 675.749 675.857 701.596> 433.073 17.0479<299.025 330.683 415.106 450.521> 532.23 19.7324<577.662 612.494>
LayerCount: 2
Fore
SplineSet
281.731445312 705.333007812 m 1
 260.9453125 705.333007812 250.586914062 704.393554688 229.578125 702.064453125 c 0
 213.176757812 700.247070312 206.69921875 689.540039062 206.69921875 679.387695312 c 1
 203.86328125 396.40234375 l 1
 235.2734375 394.223632812 274.15234375 392 304.946289062 392 c 0
 343.397460938 392 374.107421875 394.880859375 404.985351562 397.587890625 c 1
 424.119140625 402.140625 431.9375 426.885742188 433.32421875 450.520507812 c 1
 450.12109375 450.520507812 l 5
 450.12109375 299.025390625 l 5
 433.073242188 299.025390625 l 1
 428.897460938 322.278320312 423.229492188 347.314453125 400.532226562 352.610351562 c 1
 367.366210938 355.612304688 336.999023438 359 300.966796875 359 c 0
 268.350585938 359 229.30078125 356.35546875 201.564453125 354.041992188 c 1
 201.197265625 318.635742188 l 1
 206.82421875 57.4345703125 l 0
 206.942382812 48.4736328125 210.715820312 27.931640625 224.87890625 23.326171875 c 0
 235.002929688 20.0341796875 239.733398438 19.451171875 252.13671875 19.294921875 c 2
 259.046875 19.2080078125 l 1
 259.046875 0 l 1
 58.0029296875 0 l 1
 58.0029296875 19.22265625 l 1
 64.91015625 19.3125 l 2
 72.85546875 19.4150390625 78.5361328125 20.09765625 85.9853515625 21.5771484375 c 0
 102.149414062 24.7861328125 109.248046875 44.03125 109.2578125 53.41015625 c 0
 109.2578125 53.732421875 l 1
 109.2890625 54.0537109375 l 0
 110.969726562 71.3701171875 111.266601562 239.23046875 111.266601562 395.419921875 c 0
 111.266601562 526.376279613 110.241210938 675.857421875 110.241210938 675.857421875 c 2
 110.241210938 685.568359375 102.215820312 705.456054688 85.98046875 708.684570312 c 0
 74.87890625 710.892578125 70.7607421875 710.887695312 58 711.022460938 c 1
 58 730.333007812 l 1
 533.201171875 730.333007812 l 5
 551.962890625 575.829101562 l 5
 532.23046875 577.662109375 l 1
 519.478386828 639.218738818 496.823242188 679.387695312 434.958984375 694.340820312 c 0
 392.733398438 704.411132812 344.342773438 704.990234375 281.731445312 705.333007812 c 1
EndSplineSet
Validated: 1
EndChar

StartChar: G
Encoding: 71 71 52
GlifName: G_
Width: 823
VWidth: 0
Flags: W
HStem: -10.0078 46.0078<321.93 522.485> 289.659 19.0098<584.686 628.193 736.144 777.851> 700.77 41.2314<317.491 522.487>
VStem: 55 103<225.638 497.683> 641.058 80.942<123.543 285.861> 694.579 22.6025<453.995 497.025>
LayerCount: 2
Fore
SplineSet
747.869140625 287.178710938 m 0xf8
 731.830078125 283.999023438 725.922851562 263.900390625 725.60546875 254.165039062 c 2
 722 168.668945312 l 1xf8
 722 142.39453125 712.411132812 133.822265625 697.73046875 113.349609375 c 0
 658.251953125 58.298828125 567.241991867 -10.0078125 425.256042974 -10.0078125 c 0
 299.397866655 -10.0078125 55 52.60546875 55 352.255859375 c 0
 55 552.173828125 163.037109375 742.000976562 432.46484375 742.000976562 c 0
 573.970703125 742.000976562 644.736328125 658.255859375 670 658.255859375 c 0
 689.58984375 658.255859375 684.877929688 683.903320312 702 683.903320312 c 0
 708.9453125 683.903320312 714.134765625 675.331054688 714.374023438 665.631835938 c 1
 717.181640625 466.458984375 l 1
 716.724609375 459.561523438 712.700195312 453.991210938 706.048828125 453.991210938 c 0
 701.216796875 453.991210938 696.576171875 455.2265625 694.579101562 463.323242188 c 0xf4
 670.114257812 562.456054688 590.153320312 700.76953125 418.046875 700.76953125 c 0
 229.338867188 700.76953125 158 519.981445312 158 384.646484375 c 0
 158 62.7783203125 355.137695312 36 428.345703125 36 c 0
 520.092773438 36 641.05803052 107.681640625 641.05803052 171.828125 c 1
 638.488408487 254.504882812 l 2
 638.317435593 264.064453125 632.143554688 284.1484375 615.5625 287.322265625 c 0
 605.62890625 289.223632812 595.836914062 289.51953125 584.685546875 289.659179688 c 1
 584.685250007 308.668945312 l 1
 777.850585938 308.668945312 l 1
 777.850585938 289.525390625 l 1
 766.995117188 289.385742188 757.516601562 289.090820312 747.869140625 287.178710938 c 0xf8
EndSplineSet
Validated: 1
EndChar

StartChar: K
Encoding: 75 75 53
GlifName: K_
Width: 630
VWidth: 0
Flags: W
HStem: 0 19<19.2637 55.5174 184.407 220.264 390.264 415.898 563.523 591.264> 711 19<19.2637 55.3106 184.222 220.264 366.264 399.501 494.516 530.264>
VStem: 71.2637 97<25.1289 352.557 391.321 704.922>
LayerCount: 2
Fore
SplineSet
422.139648438 45.451171875 m 0
 422.139648438 54.5927734375 413.263671875 70 403.461914062 84 c 24
 325.263671875 193 213.209960938 336.426757812 197.572265625 358.77734375 c 1
 187.54296875 349.038085938 175.255859375 343.21875 165.317382812 339.856445312 c 1
 168.263671875 56.072265625 l 2
 168.465820312 36.6611328125 189.701171875 19 213.263671875 19 c 2
 220.263671875 19 l 1
 220.263671875 0 l 1
 19.263671875 0 l 1
 19.263671875 19 l 1
 26.263671875 19 l 2
 50.6357421875 19 71.263671875 36.86328125 71.263671875 55.521484375 c 0
 73.0986328125 171.290039062 73.4267578125 286.764648438 73.4267578125 402.221679688 c 3
 73.4267578125 493.435546875 72.5 584.336914062 71.263671875 675.4296875 c 0
 71.0234375 693.1640625 50.326171875 711 26.263671875 711 c 2
 19.263671875 711 l 1
 19.263671875 730 l 1
 220.263671875 730 l 1
 220.263671875 711 l 1
 213.263671875 711 l 2
 189.412109375 711 168.263671875 693.301757812 168.263671875 675.952148438 c 2
 164.404296875 391.321289062 l 1
 179.883789062 398.572265625 193.37109375 410.475585938 215.677734375 440.21875 c 1
 391.692382812 653.23828125 l 0
 406.04296875 672.098632812 410.243164062 683.512695312 410.243164062 688.751953125 c 0
 410.243164062 699.799804688 384.439453125 710 373.263671875 710 c 2
 366.263671875 710 l 1
 366.263671875 730 l 1
 530.263671875 730 l 1
 530.263671875 710 l 1
 523.263671875 710 l 2
 492.116210938 710 484.084960938 691.27734375 465.880859375 667.501953125 c 2
 275.235351562 425.736328125 l 1
 309.575195312 384.590820312 l 1
 309.696289062 384.427734375 l 0
 406.120117188 248.2734375 497.198242188 109.084960938 540.940429688 49.68359375 c 1
 554.263671875 32 573.395507812 20 584.263671875 20 c 2
 591.263671875 20 l 1
 591.263671875 0 l 1
 390.263671875 0 l 1
 390.263671875 20 l 1
 414.923828125 20 422.139648438 32.5068359375 422.139648438 45.451171875 c 0
EndSplineSet
Validated: 1
EndChar

StartChar: Y
Encoding: 89 89 55
GlifName: Y_
Width: 712
VWidth: 0
Flags: W
HStem: 0 19.292<257.058 293.142 421.482 457.995> 711.561 18.293<49.0039 81.2648 222.14 254.499 517.3 548.427 638.747 672.498>
VStem: 308.71 96.917<25.5897 393.006>
LayerCount: 2
Fore
SplineSet
308.709960938 54.9951171875 m 0
 309.967773438 125.228515625 310.811523438 191.126953125 310.811523438 259.03125 c 3
 310.811523438 300.251953125 310.9609375 343.719726562 311.083984375 382.946289062 c 1
 225.188476562 507.120117188 143.473632812 627.557617188 103.212890625 681.241210938 c 0
 89.859375 699.044921875 71.7646484375 711.264648438 55.91015625 711.470703125 c 2
 49.00390625 711.560546875 l 1
 49 729.853515625 l 1
 254.499023438 729.853515625 l 1
 254.499023438 710.999023438 l 1
 247.592773438 710.907226562 l 2
 232.002929688 710.697265625 206.822265625 697.219726562 206.822265625 684.557617188 c 0
 206.822265625 679.491210938 208.635742188 672.502929688 217.651367188 659.008789062 c 0
 376.440429688 432.90234375 l 1
 542.674804688 653.278320312 l 0
 556.684570312 672.418945312 560.836914062 681.828125 560.836914062 688.008789062 c 0
 560.836914062 697.953125 538.114257812 710.64453125 524.206054688 710.831054688 c 2
 517.299804688 710.922851562 l 1
 517.299804688 729.77734375 l 1
 672.498046875 729.77734375 l 1
 672.498046875 711.483398438 l 1
 665.590820312 711.393554688 l 0
 642.13671875 711.088867188 625.051757812 692.291992188 617.70703125 681.8828125 c 1
 402.614257812 393.005859375 l 1
 403.3984375 346.58203125 403.645507812 303.551757812 403.645507812 258.049804688 c 0
 403.645507812 190.790039062 404.32421875 123.291015625 405.626953125 55.5205078125 c 0
 405.626953125 35.1796875 427.796875 19.6923828125 452.692382812 19.3828125 c 6
 457.995117188 19.2919921875 l 5
 457.995117188 0 l 1
 257.057617188 0 l 1
 257.057617188 19.2919921875 l 5
 263.963867188 19.3828125 l 6
 288.41796875 19.6962890625 308.709960938 36.19921875 308.709960938 54.9951171875 c 0
EndSplineSet
Validated: 1
EndChar

StartChar: Z
Encoding: 90 90 56
GlifName: Z_
Width: 680
VWidth: 0
Flags: W
HStem: 0 36<161.903 479.184> 697.333 33<201.74 513.236>
LayerCount: 2
Fore
SplineSet
602.938476562 700.515625 m 0
 602.938476562 691.561523438 601.083007812 681.21484375 594.42578125 671.97265625 c 2
 160.228515625 42.283203125 l 1
 195.875976562 37.9912109375 236.750976562 36 278.227539062 36 c 0
 323.75 36 394.462890625 36.384765625 446.22265625 43.13671875 c 0
 532.283203125 54.3623046875 560 136 571.05859375 166.720703125 c 1
 594.243164062 168.443359375 l 1
 543.8046875 0 l 1
 86.8876953125 0 l 0
 79.1328125 0 54.0146484375 3.1259765625 54.0146484375 24.505859375 c 0
 54.0146484375 32.2177734375 57.1044921875 40.326171875 61.0888671875 45.9931640625 c 1
 513.236328125 693.662109375 l 1
 484.481445312 694.897460938 422.208007812 697.333007812 376.3828125 697.333007812 c 1
 314.875 697.020507812 267.333007812 695.87109375 225.442382812 687.291015625 c 0
 157.545898438 673.216796875 128.104492188 641.043945312 114.709960938 582.751953125 c 0
 113.5390625 577.654296875 l 1
 93.044921875 575.774414062 l 1
 126.091796875 725.021484375 l 1
 126.139648438 725.194335938 l 0
 128.49609375 733.734375 137.28125 734.543945312 142 734.543945312 c 0
 153.170898438 734.543945312 167.936523438 730 172.875 730 c 0
 356.560646611 730.333007812 l 0
 596.7421875 730.333007812 l 1
 598.443359375 725.786132812 l 0
 598.555664062 725.4921875 602.938476562 714.43359375 602.938476562 700.515625 c 0
EndSplineSet
Validated: 1
EndChar

StartChar: zero
Encoding: 48 48 57
GlifName: zero
Width: 480
VWidth: 0
Flags: W
HStem: -7 44<192.219 289.781> 597 43<192.219 289.781>
VStem: 18 87<176.742 457.162> 377 87<176.742 457.162>
LayerCount: 2
Fore
SplineSet
241 597 m 0
 171.513671875 597 105 475.548828125 105 317 c 0
 105 158.452148438 171.512695312 37 241 37 c 0
 310.486328125 37 377 158.451171875 377 317 c 0
 377 475.547851562 310.487304688 597 241 597 c 0
241 -7 m 0
 110.682617188 -7 18 140.491210938 18 317 c 0
 18 493.508789062 110.682617188 640 241 640 c 4
 371.317382812 640 464 493.508789062 464 317 c 0
 464 140.491210938 371.317382812 -7 241 -7 c 0
EndSplineSet
EndChar

StartChar: one
Encoding: 49 49 58
GlifName: one
Width: 480
VWidth: 0
Flags: W
HStem: 0 20<166 196.636 295.19 326> 624.135 20G<270.236 276.038>
VStem: 202 88<20.7282 564.984>
LayerCount: 2
Fore
SplineSet
319 20 m 4
 326 20 l 5
 326 0 l 5
 166 0 l 5
 166 20 l 5
 173 20 l 4
 192.911132812 20 202 32.9912109375 202 43.685546875 c 4
 202 527.581054688 l 4
 202 545.983398438 200.072265625 564.998046875 192 564.998046875 c 4
 173.611328125 564.998046875 167.416015625 561.307617188 161 560.013671875 c 5
 161 581.999023438 l 5
 198.16796875 597.131835938 233.458007812 613.979492188 261.14453125 640.041992188 c 4
 264.373046875 643.151367188 268.47265625 644.134765625 272 644.134765625 c 4
 280.076171875 644.134765625 290 638.288085938 290 627.381835938 c 4
 290 43.6875 l 4
 290 32.1611328125 299.760742188 20 319 20 c 4
EndSplineSet
EndChar

StartChar: two
Encoding: 50 50 59
GlifName: two
Width: 480
VWidth: 0
Flags: W
HStem: 0 58<122.124 390.879> 597 45<172.963 319.768>
VStem: 351.031 80.9688<435.255 565.574> 415.095 18.4707<104.088 107.246>
LayerCount: 2
Fore
SplineSet
105.987304688 522.993164062 m 1xe0
 88.0888671875 537.455078125 l 1
 91.015625 542.725585938 142.040039062 642 264.538085938 642 c 0
 371.443359375 642 432 592.770507812 432 510.294921875 c 0xe0
 432 449.81640625 383.982421875 383.967773438 297.978515625 279.56640625 c 0
 226.3515625 195.125976562 155.384765625 96.73828125 122.124023438 58 c 1
 334 58 l 0
 382.076171875 58 404.375976562 75.47265625 413.318359375 104.087890625 c 0
 415.094726562 109.771484375 l 1
 433.565429688 105.704101562 l 1xd0
 390.87890625 0 l 1
 31 0 l 1
 31 42.529296875 l 1
 133.8125 162.497070312 213.079101562 268.4921875 273.038085938 343.899414062 c 0
 313.169921875 394.369140625 351.03125 450.81640625 351.03125 491.283203125 c 0
 351.03125 566.405273438 314.056640625 597 240.904296875 597 c 0
 177.16796875 597 138.497070312 563.891601562 105.987304688 522.993164062 c 1xe0
EndSplineSet
EndChar

StartChar: hyphen
Encoding: 45 45 60
GlifName: hyphen
Width: 403
VWidth: 0
Flags: W
HStem: 269 58<75.8641 344.695>
VStem: 60 285<269.555 327>
LayerCount: 2
Fore
SplineSet
74.7864056379 269.359216914 m 6
 62.7570449357 273.369003814 60 288.216796875 60 299 c 4
 60 308.826171875 62.8521989695 327 77 327 c 4
 330 327 l 7
 344.67578125 327 345 305.130859375 345 297 c 7
 345 290.265625 344.497305028 269 330 269 c 4
 75.8640563788 269 l 5
 74.7864056379 269.359216914 l 6
EndSplineSet
Validated: 1
EndChar

StartChar: backslash
Encoding: 92 92 61
GlifName: backslash
Width: 398
VWidth: 0
Flags: W
HStem: 677.889 2.22072<105.908 116.286> 680.109 1.416<105.908 116.286>
VStem: 36.4025 315.348
LayerCount: 2
Fore
SplineSet
348.390625 -102.213867188 m 6xa0
 338.543945312 -107.319335938 327.219726562 -110.052734375 316 -110.052734375 c 4
 291.509765625 -110.052734375 280.129940537 -94.1616304824 275.298189934 -59.4822130902 c 1
 270.123821042 -42.8505404718 123.668634255 427.550447991 36.4024715086 673.660637308 c 0
 36 674.795697405 l 1
 36 676 l 0
 36 693.164058056 48.1150440921 703.25617942 63.9999991844 703.25617942 c 0
 78.6068396799 703.25617942 85.1806640625 695.747070312 103.465820312 681.525390625 c 4x60
 116.286215194 680.109394961 l 1
 105.908203125 677.888671875 l 4
 177.877929688 420.998046875 250.8125 185.209960938 351.75 -93.6171875 c 4
 353.838867188 -99.388671875 l 5
 348.390625 -102.213867188 l 6xa0
EndSplineSet
Validated: 1
EndChar

StartChar: parenleft
Encoding: 40 40 62
GlifName: parenleft
Width: 282
VWidth: 0
Flags: W
VStem: 50 72<171.112 501.573>
LayerCount: 2
Fore
SplineSet
243.77734375 747.046875 m 6
 216.96484375 707.860351562 122 645.889648438 122 330 c 4
 122 35.3779296875 216.922851562 -27.7646484375 245 -69.880859375 c 5
 245 -126.71875 l 5
 233.166992188 -115.064453125 50 50.2900390625 50 331 c 4
 50 642.025390625 232.9453125 783.58984375 245 793.779296875 c 5
 245 748.833984375 l 5
 243.77734375 747.046875 l 6
EndSplineSet
Validated: 1
EndChar

StartChar: parenright
Encoding: 41 41 63
GlifName: parenright
Width: 280
VWidth: 0
Flags: W
VStem: 159 72<171.043 502.079>
LayerCount: 2
Fore
SplineSet
36 749.833984375 m 5
 36 793.779296875 l 5
 48.3017578125 783.381835938 231 642.290039062 231 331 c 4
 231 50.63671875 47.5810546875 -115.313476562 36 -126.71875 c 5
 36 -71.880859375 l 5
 64.0810546875 -29.759765625 159 35.3720703125 159 330 c 4
 159 647.889648438 64.111328125 708.749023438 36 749.833984375 c 5
EndSplineSet
Validated: 1
EndChar

StartChar: three
Encoding: 51 51 64
GlifName: three
Width: 480
VWidth: 0
Flags: W
HStem: -7 26<140.121 258.136> 594 46<146.951 273.841>
VStem: 300.667 84.333<478.198 567.858> 363 74<103.996 251.317>
LayerCount: 2
Fore
SplineSet
67.880859375 514.219726562 m 5xe0
 45.9208984375 529.178710938 l 5
 48.4169921875 532.786132812 117.060546875 640 233.611328125 640 c 4
 334.853515625 640 385 599.883789062 385 537.223632812 c 4xe0
 385 477.987304688 315.09765625 424.744140625 253.717773438 379.701171875 c 5
 349.733398438 370.653320312 437 297.072265625 437 197.573242188 c 4
 437 72.1875 345.069335938 -7 189.72265625 -7 c 4
 128.443359375 -7 39 13.646484375 39 44 c 4
 39 45.861328125 39.2568359375 49.166015625 40.7392578125 52.130859375 c 4
 40.984375 52.6220703125 l 5
 41.3037109375 53.068359375 l 4
 45.8564453125 59.44140625 51.208984375 68 66 68 c 4
 77.9345703125 68 90.3623046875 63.228515625 103.221679688 53.583984375 c 5
 122.33203125 39.0234375 156.913085938 19 189.72265625 19 c 4
 288.53515625 19 363 91.2939453125 363 173.434570312 c 4xd0
 363 223.072265625 339.041992188 276.849609375 293.8671875 294.99609375 c 5
 265.473632812 306.1953125 235.788085938 308 206.888671875 308 c 4
 168.025390625 308 126.8203125 284.890625 113 284.890625 c 4
 103.93359375 284.890625 96.185546875 288.99609375 96.185546875 296.615234375 c 4
 96.185546875 301.897460938 103.916015625 307.5625 103.975585938 307.608398438 c 5
 108.296875 310.743164062 300.666992188 443.221679688 300.666992188 515.6875 c 4
 300.666992188 562.21875 260.25390625 594 211.666992188 594 c 4
 158.31640625 594 101.971679688 558.346679688 67.880859375 514.219726562 c 5xe0
EndSplineSet
EndChar

StartChar: four
Encoding: 52 52 65
GlifName: four
Width: 480
VWidth: 0
Flags: W
HStem: 0 21G<288.789 350.63> 271 47.9365<120.593 275.777 360.5 434.513> 622 20G<334.22 345.527>
VStem: 275.777 84.7227<0 271 319.006 516.425>
LayerCount: 2
Fore
SplineSet
275.77734375 318.0546875 m 5
 275.77734375 516.424804688 l 5
 225.936523438 450.546875 166.516601562 371.08984375 120.592773438 318.936523438 c 5
 173.489257812 318.541992188 246.67578125 318.401367188 275.77734375 318.0546875 c 5
36.1474609375 301.0390625 m 5
 127.969726562 413.8046875 226.265625 526.711914062 308.841796875 638 c 4
 317.331054688 640.947265625 328.26171875 642 340.177734375 642 c 4
 350.875976562 642 360.5 635.694335938 360.5 621.388671875 c 4
 360.5 319.005859375 l 5
 399.560546875 319.728515625 410.041992188 322.553710938 439.895507812 328.227539062 c 5
 437.224609375 317.224609375 435.5 308.387695312 435.5 299.42578125 c 4
 435.5 288.159179688 437.16796875 279.428710938 438.399414062 271 c 5
 358.5 271 l 5
 358.5 14.6220703125 l 4
 358.5 9.1298828125 355.760742188 0 345.5 0 c 4
 293.5 0 l 4
 284.078125 0 279.1953125 6.701171875 279.1953125 12.6728515625 c 4
 275.77734375 271 l 5
 44.5 271 l 4
 38.0888671875 271 30.0146484375 276.118164062 30.0146484375 285.25 c 4
 30.0146484375 290.935546875 32.4189453125 296.611328125 36.1474609375 301.0390625 c 5
EndSplineSet
EndChar

StartChar: semicolon
Encoding: 59 59 66
GlifName: semicolon
Width: 238
VWidth: 0
Flags: W
HStem: -84 24<59.0367 87.1763> 348 116<74.4503 164.667>
VStem: 61 117<-2.7754 82.1492 360.962 450.707> 102 81<-44.9188 -2.48827>
LayerCount: 2
Fore
SplineSet
61 406 m 0xe0
 61 437.943338433 87.2241126186 464 120 464 c 0
 151.88123928 464 178 437.881230657 178 406 c 0
 178 373.094504793 151.758673832 348 120 348 c 0
 87.3457436504 348 61 373.03289278 61 406 c 0xe0
61 38 m 0
 61 70.3834678888 91.3652791508 98 124 98 c 0
 157.975893594 98 183 69.8839748223 183 41 c 0
 183 40 l 2
 183 -53.451079371 138.494627486 -84 59.0366673472 -84 c 5
 44.6366673472 -60 l 1
 65.7375308507 -60 102 -52.3073374409 102 -27 c 0xd0
 102 -23.5962313256 100.39844251 -20.2979374466 96.1209487849 -16.0204437216 c 1
 80.0252775643 -0.818976457578 61 6.41483525015 61 38 c 0
EndSplineSet
Validated: 1
EndChar

StartChar: colon
Encoding: 58 58 67
GlifName: colon
Width: 228
VWidth: 0
Flags: W
HStem: -18 116<67.411 157.707> 348 116<67.4503 157.667>
VStem: 54 117<-4.70676 84.7068 360.962 450.707>
LayerCount: 2
Fore
SplineSet
54 40 m 0
 54 71.9433384333 80.2241126186 98 113 98 c 0
 144.88123928 98 171 71.8812306571 171 40 c 0
 171 8.11876072028 144.881230657 -18 113 -18 c 0
 80.2241804069 -18 54 8.05656133821 54 40 c 0
54 406 m 0
 54 437.943338433 80.2241126186 464 113 464 c 0
 144.88123928 464 171 437.881230657 171 406 c 0
 171 373.094504793 144.758673832 348 113 348 c 0
 80.3457436504 348 54 373.03289278 54 406 c 0
EndSplineSet
EndChar

StartChar: five
Encoding: 53 53 68
GlifName: five
Width: 480
VWidth: 0
Flags: W
HStem: -5 38<100.698 274.343> 337 73<113.032 294.793> 554.466 56.5342<131.766 422.028>
VStem: 361.286 72<120.873 270.797>
LayerCount: 2
Fore
SplineSet
410.286132812 617.5859375 m 4
 416.502929688 617.5859375 429.107421875 615.684570312 429.107421875 604.443359375 c 4
 429.107421875 595.456054688 419.918945312 569.444335938 414.147460938 554.465820312 c 5
 131.765625 554.465820312 l 5
 90.7109375 378.991210938 l 5
 135.3515625 400.0390625 180.884765625 410 225.833984375 410 c 4
 345.741210938 410 433.286132812 336.05078125 433.286132812 210.3671875 c 4
 433.286132812 99.5341796875 339.40625 -5 205.063476562 -5 c 4
 156.528320312 -5 90.3447265625 3 39.310546875 55.0751953125 c 5
 35.5146484375 58.87109375 34.1025390625 63.8046875 34.1025390625 68 c 4
 34.1025390625 74.43359375 40.634765625 78.9873046875 45.2861328125 78.9873046875 c 4
 48.4658203125 78.9873046875 52.2646484375 77.9208984375 55.2734375 74.912109375 c 5
 84.7373046875 44.52734375 156.412109375 33 197.412109375 33 c 4
 306.1171875 33 361.286132812 124.108398438 361.286132812 190.368164062 c 4
 361.286132812 268.545898438 310.93359375 337 206.412109375 337 c 4
 155.84375 337 86.134765625 314.598632812 29 279.03125 c 5
 109.7578125 611 l 5
 348.286132812 611 l 6
 371.366210938 611 392.57421875 617.5859375 410.286132812 617.5859375 c 4
EndSplineSet
EndChar

StartChar: equal
Encoding: 61 61 69
GlifName: equal
Width: 401
VWidth: 0
Flags: W
HStem: 219 58<74.8641 343.695> 319 58<74.8641 343.695>
VStem: 60 284<219.556 277 319.556 377>
LayerCount: 2
Fore
SplineSet
73.7864056379 319.359216914 m 2
 61.7570449357 323.369003814 60 339.216363011 60 350 c 0
 60 359.82648184 61.8521989695 377 76 377 c 0
 329 377 l 0
 343.675839943 377 344 355.130859375 344 347 c 0
 344 340.265625 343.497305028 319 329 319 c 0
 74.8640563788 319 l 1
 73.7864056379 319.359216914 l 2
73.7864056379 219.359216914 m 2
 61.7570449357 223.369003814 60 239.216363011 60 250 c 0
 60 259.82648184 61.8521989695 277 76 277 c 0
 329 277 l 0
 343.675839943 277 344 255.130859375 344 247 c 4
 344 240.265625 343.497305028 219 329 219 c 0
 74.8640563788 219 l 1
 73.7864056379 219.359216914 l 2
EndSplineSet
Validated: 1
EndChar

StartChar: asterisk
Encoding: 42 42 70
GlifName: asterisk
Width: 346
VWidth: 0
Flags: W
HStem: 330.125 318.75<153.379 191.621>
VStem: 152.275 40.4492<330.125 446.666 531.13 648.875>
LayerCount: 2
Fore
SplineSet
170.775390625 648.875 m 2
 174.224609375 648.875 l 0
 183.822572308 648.875 191.575195312 641.005949006 191.575195312 631.669645966 c 1
 195.720795339 531.129603558 l 1
 286.065393261 576.821742642 l 0
 288.860085858 578.235169519 291.429928035 578.724609375 293.825195312 578.724609375 c 0
 300.05181492 578.724609375 305.867902451 576.24679834 309.72002362 571.246675268 c 0
 312.87616689 567.149944119 313.474609375 562.544599031 313.474609375 559.075195312 c 0
 313.474609375 552.471630909 309.404427613 547.248173446 304.590669824 544.039455758 c 0
 221.399010266 488.924804688 l 1
 304.590669824 433.810153617 l 0
 308.571009553 431.173170097 313.474609375 426.435682376 313.474609375 418.775390625 c 0
 313.474609375 413.863742438 311.279711469 410.431621099 310.435263262 408.743441532 c 0
 310.240669112 408.354418422 l 1
 309.99941037 407.992479087 l 0
 306.681913194 403.015528972 300.992955389 399.125 293.825195312 399.125 c 0
 290.904458397 399.125 288.604456191 399.729704591 286.036283281 401.043651163 c 0
 196.86419189 446.666499734 l 1
 192.724609375 347.328821246 l 1
 192.724609375 337.023889243 183.111472591 330.125 174.224609375 330.125 c 0
 170.775390625 330.125 l 0
 161.888527409 330.125 152.275390625 337.023889243 152.275390625 347.328821246 c 1
 148.134222216 446.704556469 l 1
 57.9393371524 400.919168552 l 0
 54.6518659942 399.236536513 51.1819515222 399 49 399 c 0
 41.0705679439 399 36.9605945553 405.308436747 35.1808276826 407.734817147 c 0
 32.9511423507 410.774577505 31.525390625 414.524124384 31.525390625 418.775390625 c 0
 31.525390625 424.801910368 35.6140415297 431.131919408 38.3292709411 433.20198879 c 1
 123.490639842 488.924804688 l 1
 39.3855805777 543.956455704 l 1
 33.3387381917 547.64355472 31.2777653869 554.524021898 31.2777653869 559.999999845 c 0
 31.2777653869 571.375253486 40.8880956568 578.724609375 50.025390625 578.724609375 c 0
 52.1945272143 578.724609375 55.6239085568 578.47578169 58.9192021283 576.829533585 c 1
 149.279204661 531.129603558 l 1
 153.424804688 631.669645966 l 1
 153.424804688 639.728533021 160.516500941 648.875 170.775390625 648.875 c 2
EndSplineSet
Validated: 1
EndChar

StartChar: numbersign
Encoding: 35 35 71
GlifName: numbersign
Width: 695
VWidth: 0
Flags: W
HStem: 217 69<49.2857 176.12 255.88 366.12 445.88 597.77> 476 69<100.3 238.12 317.894 428.12 507.894 648.126>
VStem: 129 62.9927<3 48.2836> 319 62.9927<3 48.2836>
LayerCount: 2
Fore
SplineSet
316 737.333007812 m 2
 343 737.333007812 l 0
 348.337679424 737.333007812 360 735.122397448 360 723 c 0
 360 719.16586132 l 1
 317.893967593 545 l 1
 444.490647792 545 l 1
 487.196013048 721.644919923 l 1
 487.196013048 721.644919923 497.549815441 737.333007812 506 737.333007812 c 0
 533 737.333007812 l 0
 538.337679424 737.333007812 550 735.122397448 550 723 c 0
 550 719.16586132 l 1
 507.893967593 545 l 1
 642 545 l 0
 647.724505574 545 659 542.316727973 659 531 c 0
 659 526.480100384 657.981807392 526.806898812 657.981807392 526.806898812 c 1
 646.640783086 492.86941345 l 0
 644.238505214 485.662579833 637.875302862 476 627 476 c 0
 491.517725565 476 l 1
 445.880470663 286 l 1
 591 286 l 0
 596.724505574 286 608 283.316727973 608 272 c 0
 608 267.640011594 606.916220739 267.659328842 606.916220739 267.659328842 c 1
 595.659864378 231.843649514 l 1
 592.815843953 223.311588239 585.347426592 217 576 217 c 0
 429.517725565 217 l 1
 381.992716709 19.140779457 l 1
 381.21922395 8.95464242252 374.014670532 3 365 3 c 0
 336 3 l 0
 326.372856248 3 319 10.3728562482 319 20 c 0
 319 20.8288982687 l 1
 366.119529337 217 l 1
 239.517725565 217 l 1
 191.992716709 19.140779457 l 1
 191.21922395 8.95464242252 184.014670532 3 175 3 c 0
 146 3 l 0
 136.372856248 3 129 10.3728562482 129 20 c 0
 129 20.8288982687 l 1
 176.119529337 217 l 1
 57 217 l 0
 49.9919605644 217 40 221.44488055 40 232 c 0
 40 233.135291125 40.4633550909 236.571601393 41.9889299937 240.300784489 c 1
 51.3287603726 271.122224739 l 1
 54.1938022766 279.717350451 61.649130162 286 71 286 c 0
 192.482274435 286 l 1
 238.119529337 476 l 1
 108 476 l 0
 100.991960564 476 91 480.44488055 91 491 c 0
 91 492.229969091 91.3604838233 495.358508707 93.05356349 499.590840451 c 1
 102.329534989 530.124548589 l 1
 105.1931454 538.715379822 112.649364636 545 122 545 c 0
 254.490647792 545 l 1
 297.196013048 721.644919923 l 1
 297.196013048 721.644919923 307.549815441 737.333007812 316 737.333007812 c 2
301.517725565 476 m 1
 255.880470663 286 l 1
 382.482274435 286 l 1
 428.119529337 476 l 1
 301.517725565 476 l 1
EndSplineSet
Validated: 1
EndChar

StartChar: six
Encoding: 54 54 72
GlifName: six
Width: 480
VWidth: 0
Flags: W
HStem: -8 29<195.639 304.63> 349.37 49.9648<201.499 325.698> 617.875 20G<381.601 389.089>
VStem: 24 85<140.433 381.162> 380 77<110.226 290.113>
LayerCount: 2
Fore
SplineSet
394.1875 615.46484375 m 0
 394.1875 608.263671875 390.125976562 599.928710938 379.80859375 597.127929688 c 0
 345.296875 588.466796875 294.8828125 567.52734375 242.897460938 533.624023438 c 0
 147.956054688 471.705078125 109 364.544921875 109 256.75390625 c 0
 109 157.934570312 145.028320312 21 244.24609375 21 c 0
 333.712890625 21 380 90.2373046875 380 195.278320312 c 0
 380 301.334960938 325.28515625 349.370117188 258.619140625 349.370117188 c 0
 212.227539062 349.370117188 190.645507812 324.545898438 171.014648438 304.584960938 c 1
 166.13671875 299.677734375 160.927734375 297.859375 156.705078125 297.859375 c 0
 147.015625 297.859375 144.895507812 308.147460938 144.895507812 313.254882812 c 0
 144.895507812 317.516601562 146.215820312 321.79296875 148.83203125 325.717773438 c 1
 169.224609375 352.525390625 203.717773438 399.334960938 282.31640625 399.334960938 c 0
 354.052734375 399.334960938 457 353.8671875 457 207.3671875 c 0
 457 94.8271484375 380.161132812 -8 243.17578125 -8 c 0
 112.903320312 -8 24 114.655273438 24 252.34765625 c 0
 24 409.750976562 106.805664062 504.708984375 178.31640625 556.297851562 c 0
 235.6796875 596.647460938 330.629882812 626.892578125 381.600585938 636.858398438 c 0
 386.581054688 637.875 l 1
 389.088867188 633.453125 l 0
 389.182617188 633.291992188 394.1875 625.9375 394.1875 615.46484375 c 0
EndSplineSet
EndChar

StartChar: nine
Encoding: 57 57 73
GlifName: nine
Width: 480
VWidth: 0
Flags: W
HStem: -10.1953 34.0752<97.9116 108.767> 246 45.2666<157.503 286.222> 612 29<169.356 290.485>
VStem: 31 70<361.579 533.296> 379 70<250.446 511.875>
LayerCount: 2
Fore
SplineSet
97.908203125 6.5947265625 m 0
 97.908203125 13.904296875 102.55078125 21.1904296875 111.905273438 23.8798828125 c 0
 143.407226562 34.146484375 188.185546875 58.2099609375 238.622070312 94.138671875 c 1
 334.0390625 159.375976562 379 256.771484375 379 387.178710938 c 0
 379 520.061523438 333.505859375 612 225.954101562 612 c 0
 154.375 612 101 556.327148438 101 457.396484375 c 0
 101 364.254882812 152.274414062 291.266601562 210.114257812 291.266601562 c 0
 266.26171875 291.266601562 306.916992188 322.309570312 326.004882812 343.510742188 c 0
 326.127929688 343.6484375 l 1
 326.259765625 343.778320312 l 0
 330.426757812 348.006835938 334.831054688 350.931640625 339.963867188 350.931640625 c 0
 345.727539062 350.931640625 351.647460938 346.146484375 351.647460938 339.381835938 c 0
 351.647460938 333.79296875 349.333007812 328.6875 346.346679688 324.20703125 c 1
 324.825195312 293.192382812 284.43359375 246 195.701171875 246 c 0
 125.994140625 246 31 299.489257812 31 445.46484375 c 0
 31 559.444335938 124.249023438 641 227.034179688 641 c 0
 370.302734375 641 449 553.359375 449 379.581054688 c 0
 449 200.604492188 362.67578125 125.780273438 294.453125 73.666015625 c 1
 239.365234375 33.7294921875 157.151367188 3.3349609375 108.766601562 -8.7734375 c 0
 103.31640625 -10.1953125 l 1
 100.62890625 -4.9140625 97.908203125 -0.146484375 97.908203125 6.5947265625 c 0
EndSplineSet
EndChar

StartChar: exclam
Encoding: 33 33 74
GlifName: exclam
Width: 236
VWidth: 0
Flags: W
HStem: -18.0996 116.1<73.1899 163.214> 731.434 20G<105.276 130.774>
VStem: 60 116.507<-4.75251 84.6976> 66.5068 102<558.714 742.816> 89.5156 57.9844<203.851 375.787>
LayerCount: 2
Fore
SplineSet
60 40 m 4xe0
 60 71.8528746719 85.6672636212 98 118.506835938 98 c 4
 150.388075218 98 176.506835938 71.8812306571 176.506835938 40 c 4
 176.506835938 8.13177562678 150.406405443 -18.099609375 118.506835938 -18.099609375 c 4
 85.6490473638 -18.099609375 60 8.16007054962 60 40 c 4xe0
168.506835938 700.865234375 m 5xd0
 147.5 233.684570312 l 5
 146.639648438 217.037109375 135.951021741 203.117434147 119.168866436 202.712468123 c 4
 119.006495325 202.708549986 l 5
 118.844117225 202.712166883 l 4
 101.370642318 203.101380481 90.4921875 216.541015625 89.515625 233.650390625 c 5xc8
 66.5068359375 700.850585938 l 5
 66.5068359375 734.152316693 92.623046875 751.43359375 117.928710938 751.43359375 c 4
 143.620117188 751.43359375 168.506835938 733.65262459 168.506835938 700.865234375 c 5xd0
EndSplineSet
Validated: 1
EndChar

StartChar: percent
Encoding: 37 37 75
GlifName: percent
Width: 894
VWidth: 0
Flags: W
HStem: -16 32<639.6 715.676> 249 32<182.103 258.381> 352 32<639.598 715.674> 617 32<182.1 258.378>
VStem: 52 77<345.234 552.769> 312.443 77.9102<345.254 552.743> 506.621 78.9355<80.2449 287.758> 769 77<80.2415 287.755>
LayerCount: 2
Fore
SplineSet
220.181640625 617 m 0
 173.393554688 617 129 552.018554688 129 449 c 0
 129 345.999023438 173.405273438 281 220.181640625 281 c 0
 265.944335938 281 312.443447038 346.032226562 312.443447038 449 c 0
 312.443447038 551.952148438 265.93359375 617 220.181640625 617 c 0
220.181328546 249 m 0
 126.63671875 249 52 322.0859375 52 449 c 0
 52 575.9140625 126.63671875 649 220.181328546 649 c 0
 314.906172857 649 390.353680431 575.858398438 390.353680431 449 c 0
 390.353680431 322.141601562 314.906172857 249 220.181328546 249 c 0
677.818359375 352 m 0
 632.055664062 352 585.556640625 286.967773438 585.556640625 184 c 0
 585.556640625 81.0478515625 632.06640625 16 677.818359375 16 c 0
 723.581054688 16 769 81.0322265625 769 184 c 0
 769 286.952148438 723.571289062 352 677.818359375 352 c 0
677.818359375 -16 m 0
 583.133789062 -16 506.62109375 57.0859375 506.62109375 184 c 0
 506.62109375 310.9140625 583.133789062 384 677.818359375 384 c 0
 771.36328125 384 846 310.9140625 846 184 c 0
 846 57.0859375 771.36328125 -16 677.818359375 -16 c 0
673.080611114 702.216796875 m 1
 686 694 l 2
 690.489257812 691.419921875 694.866210938 686.88671875 694.866210938 680.33203125 c 0
 692.58203125 671.174804688 l 1
 247.536132812 -64.708984375 l 1
 244.428710938 -69.7607421875 238.99609375 -70.8271484375 235.203125 -70.8271484375 c 0
 225.79907008 -70.8271484375 218.689695321 -66.4356265521 212.35466576 -63.126953125 c 0
 207.181940431 -60.15234375 204.103533158 -54.90234375 204.103533158 -49.392578125 c 0
 204.103533158 -46.056640625 205.187733183 -43.10546875 206.587282246 -40.423828125 c 0
 650.70584605 695.705078125 l 1
 653.60105055 700.329101562 658.626612994 704.123046875 665.089766607 704.123046875 c 0
 668.934021544 704.123046875 673.080611114 702.216796875 673.080611114 702.216796875 c 1
EndSplineSet
Validated: 1
EndChar

StartChar: seven
Encoding: 55 55 76
GlifName: seven
Width: 480
VWidth: 0
Flags: W
HStem: 0 21G<95.6201 185.762> 558 64<70.4876 362.423>
VStem: 95.6201 76.165<0 84.2956>
LayerCount: 2
Fore
SplineSet
362.422851562 558 m 5
 93.7607421875 558 l 6
 77.9677734375 558 72.2587890625 546.4296875 70.3974609375 542 c 5
 64.7607421875 542 l 4
 57.236328125 542 55.88671875 548.9765625 55.88671875 548.9765625 c 4
 56.0849609375 555.694335938 l 6
 59.2431640625 572.608398438 62.9384765625 591.762695312 66.26171875 607.599609375 c 4
 67.837890625 615.110351562 69.1318359375 622 78.7607421875 622 c 4
 431.760742188 622 l 6
 444.178710938 622 447.750976562 621.139648438 447.750976562 617.4609375 c 4
 447.750976562 614.694335938 445.73046875 609.899414062 443.932617188 606.092773438 c 5
 440.599609375 599.58984375 l 6
 317.370117188 414.294921875 199.739257812 169.026367188 171.78515625 0 c 5
 95.6201171875 0 l 5
 121.255859375 164.938476562 250.294921875 407.515625 362.422851562 558 c 5
EndSplineSet
EndChar

StartChar: eight
Encoding: 56 56 77
GlifName: eight
Width: 480
VWidth: 0
Flags: W
HStem: -8 28<183.257 297.415> 619 24<191.245 289.585>
VStem: 37 81<78.8964 222.959> 69 75<451.525 580.641> 348 65<463.21 573.784> 372 73<82.2863 211.723>
LayerCount: 2
Fore
SplineSet
118 154 m 4xe4
 118 71.486328125 167.715820312 20 244.272460938 20 c 4
 319.125976562 20 372 88.732421875 372 149 c 4
 372 214.286132812 299.775390625 278.721679688 224.956054688 323.278320312 c 5
 148.9921875 261.598632812 118 226.119140625 118 154 c 4xe4
144 514 m 4xd8
 144 445.163085938 191.345703125 428.35546875 249.209960938 392.049804688 c 5
 287.973632812 426.91796875 348 466.78125 348 511 c 4
 348 556.677734375 308.907226562 619 244.272460938 619 c 4
 159.306640625 619 144 557.396484375 144 514 c 4xd8
413 513.779296875 m 4
 413 449.196289062 334.373046875 402.047851562 288.515625 366.467773438 c 5
 372.28515625 306.94921875 445 247.122070312 445 146.673828125 c 4
 445 76.2744140625 362.197265625 -8 243.181640625 -8 c 4
 143.981445312 -8 37 51.0087890625 37 149.610351562 c 4xe4
 37 228.719726562 101.25 280.470703125 179.244140625 340.186523438 c 5
 121.349609375 385.061523438 69 427.857421875 69 517.737304688 c 4
 69 564.458984375 107.381835938 643 244.272460938 643 c 4
 333.46875 643 413 587.563476562 413 513.779296875 c 4
EndSplineSet
EndChar

StartChar: question
Encoding: 63 63 78
GlifName: question
Width: 462
VWidth: 0
Flags: W
HStem: -11 116<170.855 261.151> 705 37.333<161.676 289.403>
VStem: 41.8008 79.4697<601.365 669.471> 157.444 117<2.29324 91.7068> 167.08 75.9203<340.276 348.49 348.589 374.325> 350 61.4443<532.51 651.596>
LayerCount: 2
Fore
SplineSet
182.041547873 199.238459462 m 2xec
 176.967679818 245.600099049 167.117962062 340.268762727 167.117258028 340.275528735 c 0
 167.079667193 340.636789125 l 1
 167.079667193 341 l 0
 167.079667193 395.136630028 218.82672042 433.203155829 254.312540147 465.198819109 c 0
 316.65136912 521.405959987 350 535.983388142 350 593 c 0
 350 654.892016154 289.794921875 705 219.444335938 705 c 0
 159.109375 705 125.425178268 655.072602799 121.270507812 636.448242188 c 0
 115.260058464 609.504883551 97.4189453125 594 77.4443359375 594 c 0
 55.3251953125 594 41.80078125 611.640625 41.80078125 635 c 0
 41.80078125 694.3984375 145.646217303 742.333007812 223.444335938 742.333007812 c 0
 311.029005406 742.333007812 411.444335938 682.974423403 411.444335938 569 c 0
 411.444335938 489.757264106 372.761191331 468.549802402 318.279483825 426.460503796 c 0
 282.44158334 398.774282918 248.677380189 360.309758652 247.987920612 348.588945846 c 1
 247.987920612 348.588945846 243 212.576171875 243 200 c 0
 243 193 l 1
 182.724291634 193 l 1
 182.041547873 199.238459462 l 2xec
157.444335938 47 m 0xf4
 157.444335938 78.9433384333 183.668448557 105 216.444335938 105 c 0
 248.325575218 105 274.444335938 78.8812306571 274.444335938 47 c 0
 274.444335938 15.1187607203 248.325566595 -11 216.444335938 -11 c 0
 183.668516345 -11 157.444335938 15.0565613382 157.444335938 47 c 0xf4
EndSplineSet
Validated: 1
EndChar

StartChar: quotesingle
Encoding: 39 39 79
GlifName: quotesingle
Width: 187
VWidth: 0
Flags: W
HStem: 494 180<69.8242 117.959>
VStem: 58 72<559.812 671.317>
LayerCount: 2
Fore
SplineSet
92 674 m 2
 96 674 l 0
 117.575665284 674 130 656.615152816 130 636 c 0
 130 628.644983318 l 1
 117.964081861 510.291788285 l 1
 117.964081861 510.291788285 110.666056561 494 101 494 c 0
 87 494 l 0
 76.8708782569 494 70.7236642676 500.706748291 69.8775991694 511.848591486 c 1
 58 628.644983318 l 1
 58 634 l 0
 58 654.631474702 71.9012019561 674 92 674 c 2
EndSplineSet
Validated: 1
EndChar

StartChar: quotedbl
Encoding: 34 34 80
GlifName: quotedbl
Width: 304
VWidth: 0
Flags: W
HStem: 494 180<69.8242 117.959 185.824 233.959>
VStem: 58 73<559.812 671.198> 174 73<559.812 671.198>
LayerCount: 2
Fore
SplineSet
208 674 m 2
 212 674 l 0
 233.032518313 674 247 658.184604933 247 637 c 0
 247 635.269145265 246.619151267 630.366243306 245.883382856 627.498248073 c 1
 233.964081861 510.291788285 l 1
 233.964081861 510.291788285 226.666056561 494 217 494 c 0
 203 494 l 0
 192.870878257 494 186.723664268 500.706748291 185.877599169 511.848591486 c 1
 174 628.644983318 l 1
 174 634 l 0
 174 654.631474702 187.901201956 674 208 674 c 2
92 674 m 2
 96 674 l 0
 117.032518313 674 131 658.184604933 131 637 c 0
 131 635.269145265 130.619151267 630.366243306 129.883382856 627.498248073 c 1
 117.964081861 510.291788285 l 1
 117.964081861 510.291788285 110.666056561 494 101 494 c 0
 87 494 l 0
 76.8708782569 494 70.7236642676 500.706748291 69.8775991694 511.848591486 c 1
 58 628.644983318 l 1
 58 634 l 0
 58 654.631474702 71.9012019561 674 92 674 c 2
EndSplineSet
Validated: 1
EndChar

StartChar: underscore
Encoding: 95 95 81
GlifName: underscore
Width: 429
VWidth: 0
Flags: W
HStem: -8 54<53.2444 373.496>
VStem: 53 320.74<-8 46>
LayerCount: 2
Fore
SplineSet
69.75 -8 m 6
 55.1708984375 -8 53 9.9111328125 53 19 c 4
 53 28.0888671875 55.1708984375 46 69.75 46 c 4
 357.75 46 l 4
 371.729492188 46 373.740234375 28.708984375 373.740234375 20 c 4
 373.740234375 11.3212890625 372.619140625 -8 357.75 -8 c 4
 69.75 -8 l 6
EndSplineSet
Validated: 1
EndChar

StartChar: bracketleft
Encoding: 91 91 82
GlifName: bracketleft
Width: 311
VWidth: 0
Flags: W
HStem: -128 44<135 273.627> 745 44<135 273.627>
VStem: 67 68<-84 745>
LayerCount: 2
Fore
SplineSet
135 745 m 5
 135 -84 l 5
 258 -84 l 4
 271.694335938 -84 273.62890625 -97.34765625 273.62890625 -106.284179688 c 4
 273.62890625 -115.485351562 271.779296875 -128 258 -128 c 4
 93 -128 l 4
 76.6279296875 -128 67 -117.958007812 67 -101 c 4
 67 761 l 4
 67 778.852539062 78.6328125 789 97 789 c 4
 258 789 l 4
 271.694335938 789 273.62890625 775.65234375 273.62890625 766.715820312 c 4
 273.62890625 757.514648438 271.779296875 745 258 745 c 4
 135 745 l 5
EndSplineSet
Validated: 1
EndChar

StartChar: bracketright
Encoding: 93 93 83
GlifName: bracketright
Width: 311
VWidth: 0
Flags: W
HStem: -128 44<36.3725 175> 745 44<36.3725 175>
VStem: 175 68<-84 745>
LayerCount: 2
Fore
SplineSet
175 745 m 5
 52 745 l 4
 38.220703125 745 36.37109375 757.514648438 36.37109375 766.715820312 c 4
 36.37109375 775.65234375 38.3056640625 789 52 789 c 4
 213 789 l 4
 231.3671875 789 243 778.852539062 243 761 c 4
 243 -101 l 4
 243 -117.958007812 233.372070312 -128 217 -128 c 4
 52 -128 l 4
 38.220703125 -128 36.37109375 -115.485351562 36.37109375 -106.284179688 c 4
 36.37109375 -97.34765625 38.3056640625 -84 52 -84 c 4
 175 -84 l 5
 175 745 l 5
EndSplineSet
Validated: 1
EndChar

StartChar: bar
Encoding: 124 124 84
GlifName: bar
Width: 200
VWidth: 0
Flags: W
HStem: 732.376 20G<96.4447 107.312>
VStem: 67 67<-63.7214 751.761>
LayerCount: 2
Fore
SplineSet
134 -47 m 2
 134 -63.1254311677 111.406452836 -64.4983385006 100.00000038 -64.4983385006 c 0
 88.6824180209 -64.4983385006 67 -62.7820969262 67 -47 c 0
 67 736 l 0
 67 751.855776122 90.8894827964 752.375774852 101.99999962 752.375774852 c 0
 112.623974062 752.375774852 134 751.375320859 134 736 c 0
 134 -47 l 2
EndSplineSet
Validated: 1
EndChar

StartChar: asciitilde
Encoding: 126 126 85
GlifName: asciitilde
Width: 510
VWidth: 0
Flags: W
HStem: 229.362 75.625<258.297 384.277> 294.54 74.9473<89.5223 211.184>
LayerCount: 2
Fore
SplineSet
152 369.487304688 m 0x40
 235.0859375 369.487304688 251.467773438 304.987304688 328 304.987304688 c 0
 383.951171875 304.987304688 429.365234375 354.37890625 446 354.37890625 c 0
 453.178710938 354.37890625 461.186523438 352.212443375 461.186523438 342 c 0
 461.186523438 312.269375405 387.826171875 229.362304688 318 229.362304688 c 0x80
 234.40625 229.362304688 218.961914062 294.540039062 147 294.540039062 c 0
 103.56640625 294.540039062 60.4267578125 253.85546875 34 253.85546875 c 0
 23.91796875 253.85546875 18.84765625 261.241410812 18.84765625 271 c 0
 18.84765625 284.519445156 86.689453125 369.487304688 152 369.487304688 c 0x40
EndSplineSet
Validated: 1
EndChar

StartChar: dieresis
Encoding: 168 168 86
GlifName: dieresis
Width: 427
VWidth: 0
Flags: W
HStem: 616.573 106.894<54.3684 140.025 277.725 363.382>
VStem: 43.75 106.894<627.192 712.848> 267.106 106.894<627.192 712.848>
LayerCount: 2
Fore
SplineSet
267.106445312 670.01953125 m 0
 267.106445312 699.536577006 291.036605448 723.466796875 320.553710938 723.466796875 c 0
 350.069894382 723.466796875 374 699.536569465 374 670.01953125 c 0
 374 640.503414958 350.069886764 616.573242188 320.553710938 616.573242188 c 0
 291.036732336 616.573242188 267.106445312 640.503288147 267.106445312 670.01953125 c 0
43.75 670.01953125 m 0
 43.75 699.536577006 67.6801601352 723.466796875 97.197265625 723.466796875 c 0
 126.71344907 723.466796875 150.643554688 699.536569465 150.643554688 670.01953125 c 0
 150.643554688 640.503414958 126.713441452 616.573242188 97.197265625 616.573242188 c 0
 67.6802870229 616.573242188 43.75 640.503288147 43.75 670.01953125 c 0
EndSplineSet
Validated: 1
EndChar

StartChar: grave
Encoding: 96 96 93
GlifName: grave
Width: 251
VWidth: 0
Flags: W
HStem: 528.192 222.708
VStem: 14.0681 222.646
LayerCount: 2
Fore
SplineSet
213.810933442 528.191678276 m 2
 160.904562281 563.777986462 45.3832417513 646.828591437 29.1889244067 663.022908782 c 0
 18.9118306446 673.300002544 14.0681073054 686.761749381 14.0681073054 699.999999324 c 0
 14.0681073054 727.183107717 37.8744775399 750.899839494 64.9999993237 750.899839494 c 0
 78.2331671136 750.899839494 91.6789973848 746.044542704 101.944701923 735.77998832 c 0
 118.18875982 719.53699848 200.496993578 603.320250145 236.7144947 551.24689814 c 0
 240.05754483 546.440276456 l 1
 218.592638081 524.975369707 l 1
 213.810933442 528.191678276 l 2
EndSplineSet
Validated: 1
EndChar

StartChar: acute
Encoding: 180 180 94
GlifName: acute
Width: 251
VWidth: 0
Flags: W
HStem: 524.975 225.928
VStem: 20.378 225.993
LayerCount: 2
Fore
SplineSet
41.8429087942 524.975369707 m 1
 20.3780020451 546.440276456 l 1
 23.7210521755 551.246898139 l 0
 59.9345634004 603.314513491 142.253079835 719.543290846 158.490844952 735.77998832 c 0
 168.550290008 745.838771963 181.725310308 750.903593683 194.869635556 750.903593683 c 0
 208.013694135 750.903593683 221.188667119 745.838757501 231.247460376 735.779964244 c 0
 241.306581427 725.721406728 246.371459964 712.546750691 246.371459964 699.402576757 c 0
 246.371459964 686.258030048 241.306314739 673.082601052 231.246622468 663.022908782 c 0
 215.04647282 646.822759133 99.5362742307 563.78154442 46.6246134336 528.191678276 c 0
 41.8429087942 524.975369707 l 1
EndSplineSet
Validated: 1
EndChar

StartChar: less
Encoding: 60 60 114
GlifName: less
Width: 468
VWidth: 0
Flags: W
LayerCount: 2
Fore
SplineSet
154.207889884 324 m 1
 428 166.042946618 l 1
 428 81.9839697855 l 1
 26 309.922114115 l 1
 26 334.077885885 l 1
 428 562.016030214 l 1
 428 481.957053382 l 1
 154.207889884 324 l 1
EndSplineSet
Validated: 1
EndChar

StartChar: greater
Encoding: 62 62 115
GlifName: greater
Width: 484
VWidth: 0
Flags: W
LayerCount: 2
Fore
SplineSet
317.792110116 324 m 1
 44 481.957053382 l 1
 44 562.016030214 l 1
 446 334.077885885 l 1
 446 309.922114115 l 1
 44 81.9839697855 l 1
 44 166.042946618 l 1
 317.792110116 324 l 1
EndSplineSet
Validated: 1
EndChar

StartChar: asciicircum
Encoding: 94 94 116
GlifName: asciicircum
Width: 507
VWidth: 0
Flags: W
HStem: 552.117 213.337
LayerCount: 2
Fore
SplineSet
438.387263876 576.475053437 m 2
 433.89734452 563.577032475 424.900298767 555.666765774 413.932018678 552.116549874 c 0
 410.590543345 551.034980224 l 1
 255 661.417340604 l 1
 99.4224849251 551.044223017 l 1
 96.0923001809 552.108727335 l 0
 83.5450678182 556.119490717 74.8012446848 564.990528237 71.4809465652 576.895893266 c 0
 70.382457338 580.834670677 l 1
 255 765.453233218 l 1
 439.830688262 580.6215239 l 1
 438.387263876 576.475053437 l 2
EndSplineSet
Validated: 1
EndChar

StartChar: divide
Encoding: 247 247 137
GlifName: divide
Width: 417
VWidth: 0
Flags: W
HStem: 149.3 85.4004<170.177 244.871> 269 58<82.8643 349.655> 360 85.4004<170.177 244.871>
VStem: 164.45 86.0996<154.979 229.021 365.679 439.721>
LayerCount: 2
Fore
SplineSet
207.849609375 360 m 0
 183.7734375 360 164.450195312 379.15625 164.450195312 402.700195312 c 0
 164.450195312 426.243164062 183.7734375 445.400390625 207.849609375 445.400390625 c 0
 231.331054688 445.400390625 250.549804688 426.180664062 250.549804688 402.700195312 c 0
 250.549804688 379.219726562 231.33203125 360 207.849609375 360 c 0
207.849609375 149.299804688 m 0
 183.7734375 149.299804688 164.450195312 168.456054688 164.450195312 192 c 0
 164.450195312 215.54296875 183.7734375 234.700195312 207.849609375 234.700195312 c 0
 231.331054688 234.700195312 250.549804688 215.48046875 250.549804688 192 c 0
 250.549804688 168.51953125 231.33203125 149.299804688 207.849609375 149.299804688 c 0
82.8642578125 269 m 1
 81.7861328125 269.359375 l 2
 69.7568359375 273.369140625 68 288.216796875 68 299 c 0
 68 308.826171875 69.8525390625 327 84 327 c 0
 337 327 l 0
 349.67578125 327 350 304.130859375 350 296 c 3
 350 289.265625 349.497070312 269 337 269 c 0
 82.8642578125 269 l 1
EndSplineSet
Validated: 1
EndChar

StartChar: dollar
Encoding: 36 36 142
GlifName: dollar
Width: 583
VWidth: 0
Flags: W
HStem: 26.2539 32.7461<305 359.558> 589.085 30.1562<252.83 302.342>
VStem: 130.485 74.334<441.797 538.766> 419.642 69.6416<122.937 229.044>
LayerCount: 2
Fore
SplineSet
331.95870999 274.723632812 m 1
 323.092210317 196.916015625 310.905273438 113.515625 305 59 c 1
 375.71875 64.2958984375 419.641601562 117.544921875 419.641601562 173 c 0
 419.641601562 222.630859375 386.61328125 245.025390625 331.95870999 274.723632812 c 1
378.240234375 649.137695312 m 0
 376.396484375 635.106445312 374.279296875 618.463867188 372.48828125 604.059570312 c 1
 424.533203125 597.3515625 476.940429688 581.022460938 476.940429688 560.21875 c 0
 476.940429688 550.43359375 464.5625 501.086914062 447 501.086914062 c 0
 429.470703125 501.086914062 411.811523438 558.111328125 367.599609375 575.80859375 c 1
 359.571289062 515.012695312 350.422565789 431.161132812 342.601536813 365.796875 c 1
 424.022460938 318.9609375 489.283203125 284.061523438 489.283203125 211.975585938 c 0
 489.283203125 143.288085938 458.5625 97.890625 417.309570312 64.9912109375 c 0
 388.594726562 42.0908203125 344.662206046 28.5 303.93101367 26.25390625 c 1
 300.051852492 -9.3564453125 298.664738837 -22.4482421875 298.205250682 -26.7705078125 c 1
 287.926770937 -42.5595703125 272.947457077 -46.9423828125 258.260053339 -46.9423828125 c 0
 247.335046731 -46.9423828125 236.371118773 -44.2734375 228.848486811 -38.046875 c 0
 225.85154289 -35.56640625 l 1
 226.405090974 -31.9287109375 l 0
 229.72205488 -10.12109375 233.13632216 12.7265625 236.066234868 32.646484375 c 1
 157.1640625 48.869140625 104.559570312 98.0703125 104.559570312 129.079101562 c 0
 104.559570312 148.576171875 128.393554688 183.200195312 147 183.200195312 c 0
 164.430664062 183.200195312 183.7890625 101.536132812 241.783203125 73.1259765625 c 1
 252.88671875 151.348632812 265.059396888 242.180664062 273.361536991 312.921875 c 1
 201.703125 353.012695312 130.485351562 398.454101562 130.485351562 461.9296875 c 0
 130.485351562 534.974609375 185.328125 611.010742188 303.695323275 619.241210938 c 1
 305.203525573 637.60546875 306.400357074 652.622070312 307.749630527 670 c 0
 307.773415796 670 l 1
 307.829635524 670 l 0
 310.356279803 673.526367188 331.481923457 674.556640625 342.399362025 674.556640625 c 0
 358.088990515 674.556640625 377.25 664.998046875 378.28125 650.493164062 c 0
 378.329101562 649.813476562 l 1
 378.240234375 649.137695312 l 0
283.822730849 399.481445312 m 1
 289.938788482 457.294921875 297.373046875 531.4375 302.341796875 589.084960938 c 1
 224.813476562 585.770507812 204.819335938 522.663085938 204.819335938 490.696289062 c 0
 204.819335938 454.3671875 236.367875327 427.202148438 283.822730849 399.481445312 c 1
EndSplineSet
Validated: 1
EndChar

StartChar: cent
Encoding: 162 162 143
GlifName: cent
Width: 530
VWidth: 0
Flags: W
HStem: 120.46 35.9138<299.736 377.302> 429.293 94.4472<349.644 389.19> 509 21.7169<237.934 269>
VStem: 99.3438 73.3223<242.216 440.236>
LayerCount: 2
Fore
SplineSet
428.763671875 201.010742188 m 1xd0
 440.502679024 184.613674728 l 1
 436.300158794 180.432923796 l 0
 393.484258276 137.838812123 351.789899489 121.813772676 295.241771379 120.460187164 c 1
 286.875316879 9.400390625 l 1
 231.796691894 9.400390625 l 1
 240.564705071 125.812535784 l 1
 160.244297752 145.696826557 99.34375 216.889704602 99.34375 333 c 0
 99.34375 462.466125463 165.727079264 526.212910635 271.063877324 530.716941413 c 1xb0
 276.930287712 608.599609375 l 1
 332.010969921 608.599609375 l 1
 325.618961904 523.740158303 l 1
 366.704814615 513.844979519 429.9140625 494.176430032 429.9140625 455.400390625 c 0
 429.9140625 436.361696288 403.257286534 429.29296875 388.970703125 429.29296875 c 0
 351.291434605 429.29296875 338.87890625 472.588867188 322.653320312 490.065429688 c 1
 299.736328125 156.856445312 l 1
 303.64453125 156.533203125 307.510742188 156.374023438 311.5703125 156.374023438 c 0
 342.311523438 156.374023438 385.209960938 167.971679688 423.0078125 196.64453125 c 0
 428.763671875 201.010742188 l 1xd0
269 509 m 1
 211.532226562 503.780273438 172.666015625 438.31062196 172.666015625 350.986328125 c 0
 172.666015625 282.975426878 197.7265625 205.095703125 245.982421875 174.452148438 c 1
 269 509 l 1
EndSplineSet
Validated: 1
EndChar

StartChar: cedilla
Encoding: 184 184 145
GlifName: cedilla
Width: 530
VWidth: 0
Flags: W
HStem: -158.981 38.7422<222.805 296.676>
VStem: 297.775 63.0029<-118.719 -61.2757>
LayerCount: 2
Fore
SplineSet
284.055984022 30.9920178574 m 1
 342.351724141 31.1102130313 l 1
 309.692205183 -27.1156010789 l 1
 343.709586051 -32.25717655 360.778320312 -57.2554721063 360.778320312 -92 c 0
 360.778320312 -141.833189313 309.164291303 -158.981445312 277 -158.981445312 c 0
 239.975031473 -158.981445312 212.228152387 -143.984768575 196.609071082 -124.442635178 c 0
 193.462202419 -120.505366014 l 1
 212.771249923 -90.6325446941 l 1
 218.893889669 -97.2579438238 l 0
 232.827249336 -112.335438639 253.196944545 -120.239257812 267 -120.239257812 c 0
 284.929388503 -120.239257812 297.775390625 -107.647016318 297.775390625 -94 c 0
 297.775390625 -75.7761803351 282.458984375 -59 265 -59 c 0
 257.81640625 -59 245.017578125 -64.654296875 240 -68 c 0
 227 -63 l 1
 284.055984022 30.9920178574 l 1
EndSplineSet
Validated: 1
EndChar

StartChar: braceleft
Encoding: 123 123 147
GlifName: braceleft
Width: 272
VWidth: 0
Flags: W
HStem: -126.934 32.0635<197.397 245.573> 766.33 32.0635<197.397 245.573>
VStem: 97.1592 73.7949<-74.2853 229.438 442.022 745.745> 117.799 70.6191<-0.151983 288.64 382.72 671.612>
LayerCount: 2
Fore
SplineSet
237.634765625 766.330078125 m 6xe0
 208.94921875 766.330078125 170.954101562 744.859375 170.954101562 682.1640625 c 4xe0
 170.954101562 616.86328125 188.41796875 487.837890625 188.41796875 438.684570312 c 4
 188.41796875 384.780273438 170.543945312 350.814453125 139.209960938 335.73046875 c 5
 171.559570312 320.15625 188.41796875 285.987304688 188.41796875 232.775390625 c 4xd0
 188.41796875 183.619140625 170.954101562 54.599609375 170.954101562 -10.7041015625 c 4
 170.954101562 -73.4013671875 208.950195312 -94.8701171875 237.634765625 -94.8701171875 c 4
 245.573242188 -94.8701171875 l 5
 245.573242188 -126.93359375 l 5
 237.634765625 -126.93359375 l 4
 207.459960938 -126.93359375 97.1591796875 -118.086914062 97.1591796875 -9.201171875 c 4xe0
 97.1591796875 86.62890625 117.798828125 154.567382812 117.798828125 238.788085938 c 4
 117.798828125 309.67578125 37.3115234375 302.499023438 37.3115234375 336.266601562 c 4
 37.3115234375 368.166015625 117.798828125 362.645507812 117.798828125 432.671875 c 4xd0
 117.798828125 516.895507812 97.1591796875 584.828125 97.1591796875 680.661132812 c 4
 97.1591796875 789.547851562 207.459960938 798.393554688 237.634765625 798.393554688 c 4
 245.573242188 798.393554688 l 5
 245.573242188 766.330078125 l 5
 237.634765625 766.330078125 l 6xe0
EndSplineSet
Validated: 1
EndChar

StartChar: braceright
Encoding: 125 125 148
GlifName: braceright
Width: 267
VWidth: 0
Flags: W
HStem: -126.934 32.0635<20.9492 69.1247> 766.33 32.0635<20.9492 69.1247>
VStem: 78.1045 70.6191<-0.15193 288.118 383.687 671.612> 95.5684 73.7949<-74.2852 229.438 442.022 745.745>
LayerCount: 2
Fore
SplineSet
20.94921875 766.330078125 m 5xd0
 20.94921875 798.393554688 l 5
 28.88671875 798.393554688 l 4
 59.0615234375 798.393554688 169.36328125 789.546875 169.36328125 680.661132812 c 4xd0
 169.36328125 584.831054688 148.723632812 516.892578125 148.723632812 432.671875 c 4
 148.723632812 362.6328125 229.250976562 368.157226562 229.250976562 336.266601562 c 4
 229.250976562 302.506835938 148.723632812 309.690429688 148.723632812 238.788085938 c 4xe0
 148.723632812 154.564453125 169.36328125 86.6318359375 169.36328125 -9.201171875 c 4
 169.36328125 -118.087890625 59.0615234375 -126.93359375 28.88671875 -126.93359375 c 4
 20.94921875 -126.93359375 l 5
 20.94921875 -94.8701171875 l 5
 28.88671875 -94.8701171875 l 4
 57.572265625 -94.8701171875 95.568359375 -73.3994140625 95.568359375 -10.7041015625 c 4xd0
 95.568359375 54.5966796875 78.1044921875 183.622070312 78.1044921875 232.775390625 c 4
 78.1044921875 286.6796875 95.9775390625 320.645507812 127.3125 335.73046875 c 5
 94.9619140625 351.303710938 78.1044921875 385.47265625 78.1044921875 438.684570312 c 4xe0
 78.1044921875 487.840820312 95.568359375 616.860351562 95.568359375 682.1640625 c 4
 95.568359375 744.861328125 57.5712890625 766.330078125 28.88671875 766.330078125 c 4
 20.94921875 766.330078125 l 5xd0
EndSplineSet
Validated: 1
EndChar

StartChar: ampersand
Encoding: 38 38 149
GlifName: ampersand
Width: 792
VWidth: 0
Flags: W
HStem: -17 39.9297<174.107 327.396 625.757 739.489> 344.605 19.3946<544.396 578.69 644.026 677> 712 30<209.51 312.151>
VStem: 17 82<95.8473 251.02> 96 71<544.483 654.422> 352 61<542.216 683.065>
LayerCount: 2
Fore
SplineSet
257.958887228 460.430368153 m 1xec
 341.411446719 533.429895398 352 577.92734971 352 619 c 0
 352 670.808491274 322.100585938 712 259 712 c 0
 191.755859375 712 167 653.719412718 167 604 c 0
 167 562.692954478 207.664389418 511.093425133 257.958887228 460.430368153 c 1xec
486.029346744 228.326631918 m 1
 505.002939335 252.756462584 524.247007292 272.78133664 547.436744475 294.308172851 c 0
 559.963652646 305.936795388 579.328125 324.130228946 579.328125 332.915039062 c 0
 579.328125 339.080078125 565.094822253 344.420272073 551.280273438 344.604492188 c 2
 544.396484375 344.696289062 l 1
 544.301535954 363.997931299 l 1
 677 364.000115205 l 1
 677 344.68359375 l 1
 670.079101562 344.60546875 l 2
 658.08203125 344.470703125 649.680664062 338.149414062 641.791015625 333.760742188 c 0
 628.196289062 326.198242188 582.27734375 285.377929688 569.950195312 273.049804688 c 0
 547.368164062 250.46875 523.046875 229.038085938 506.627929688 205.28515625 c 1
 548.235351562 143.87109375 616.840820312 19 669 19 c 0
 736.373046875 19 760.477539062 58.5927734375 767.958984375 71.3818359375 c 1
 779.624169483 60.3539167224 l 1
 766.724658357 21.4794142268 732.470905526 -23 654 -23 c 0
 550.610722292 -23 518.920033685 31.5005200086 477.175617989 94.1171435524 c 0
 471.693146369 102.340988422 462.021484375 117.6328125 456.19140625 125.956054688 c 1
 407.887695312 52.328125 360.371946774 -17 253 -17 c 0
 112.317270915 -17 17 68.2096208585 17 175 c 0xf4
 17 273.524045349 125.888520286 358.79715126 190.397755541 407.287560325 c 1
 139.429746147 458.513653645 96 512.844279259 96 567 c 0
 96 645.406156473 148.834672646 742 255 742 c 0
 404.204080992 742 413 640.910997438 413 595 c 0
 413 534.221164794 345.883894065 478.984055464 285.003508329 433.94083259 c 1
 315.522207996 404.717955987 343.852599221 379.046895716 369.949747468 352.949747468 c 0
 423.884365206 299.01512973 461.09231412 258.399657932 486.029346744 228.326631918 c 1
216.005138216 382.452892178 m 1
 144.434104275 323.697744274 99 259.78515625 99 184 c 0
 99 99.7958984375 148.633789062 22.9296875 254.498046875 22.9296875 c 0
 339.334960938 22.9296875 389.219877477 92.6381904025 433.685427444 155.247612666 c 1
 403.20274439 195.356603434 366.736380414 238.056739154 318.983823465 287.117585334 c 0
 293.502721529 313.296784431 253.492393827 347.167791884 216.005138216 382.452892178 c 1
EndSplineSet
Validated: 1
EndChar

StartChar: ae
Encoding: 230 230 150
GlifName: ae
Width: 1220
VWidth: 0
Flags: W
HStem: -10 35.3002<321.815 478.546 681.093 832.899> 471.803 39.8473<354.997 474.271 652.015 803.112>
VStem: 192.92 90.556<56.1556 162.197> 520.233 85.698<92.2016 266.213> 531.057 68.7334<329.232 420.407>
LayerCount: 2
Fore
SplineSet
913.064453125 372.178710938 m 2xe8
 802.429068077 343.233398438 720.596679688 320.588867188 607.453125 287.942382812 c 1
 606.326171875 282.217773438 605.930664062 275.088867188 605.930664062 262.919921875 c 0xf0
 605.930664062 187.633789062 606.07421875 123.725585938 621.831054688 99.587890625 c 0
 657.59375 44.7958984375 699.264648438 26.3154296875 759.720703125 26.3154296875 c 3
 803.606445312 26.3154296875 846.00390625 42.6181640625 900.798828125 83.0810546875 c 2
 906.5546875 87.33203125 l 1
 925.8203125 68.79296875 l 1
 921.618164062 64.7236328125 l 2
 863.595703125 8.53125 831.716796875 -10 739.571438054 -10 c 0
 674.918679832 -10 602.141609617 -7.1708984375 552.868054392 45.7421875 c 1
 496.126524638 0.578125 435.24795812 -10 363.173460475 -10 c 0
 282.577816023 -10 192.919915834 9.43767320971 192.919915834 94.9754861925 c 0
 192.919915834 139.336368221 223.565057804 188.669285392 269.852539062 216.874023438 c 0
 346.789335865 263.50893343 438.568928794 286.110002524 530.328125 313.998046875 c 1
 530.611328125 329.125 530.587890625 342.791015625 531.056640625 356.891601562 c 0
 530.255859375 372.748046875 529.310546875 388.203125 529.149414062 396.38671875 c 0
 528.50390625 429.223632812 460.187255904 471.802662854 397.518560796 471.802662854 c 0
 329.999641633 471.802662854 345.718832868 385.203241712 266.672960818 385.203241712 c 0
 247.458134223 385.203241712 214.951779469 394.622252675 214.951779469 416.355306022 c 0
 214.951779469 421.173987737 216.825195068 426.260444302 221.2578125 431.154296875 c 0
 278.123201117 493.931605252 353.034402114 511.649937655 409.415059261 511.649937655 c 0
 487.243691343 511.649937655 550.314332908 472.388413706 574.532216302 441.364257812 c 1
 619.155123055 489.526367188 670.606753759 504.681640625 748.04954911 504.681640625 c 0
 840.919921875 504.681640625 919.13671875 442.25 919.13671875 378.896484375 c 2
 919.13671875 373.768554688 l 1
 913.064453125 372.178710938 l 2xe8
599.790039062 329.232421875 m 1xe8
 664.411132812 346.86328125 776.504240753 382.99609375 840.33984375 404.416015625 c 1
 823.615278171 451.244470151 777.511559775 475.620765742 730.793961191 475.620765742 c 0
 639.43114767 475.620765742 602.310546875 418.548828125 599.790039062 329.232421875 c 1xe8
533.145766882 72.474609375 m 1
 524.523205699 103.362453616 520.232649232 157.940754344 520.232649232 214.064367844 c 0xf0
 520.232649232 231.540426057 520.648664565 249.16631887 521.479443819 266.2734375 c 1
 457.268934426 246.809570312 416.730798666 235.8671875 367.295420575 210.6875 c 0
 321.854809335 187.543268224 283.475964546 158.476901151 283.475964546 112.115099166 c 0
 283.475964546 54.0389582773 330.630301437 25.3001768498 391.671448876 25.3001768498 c 0
 451.399119315 25.3001768498 504.998033532 49.7886238757 533.145766882 72.474609375 c 1
EndSplineSet
Validated: 1
EndChar

StartChar: germandbls
Encoding: 223 223 151
GlifName: germandbls
Width: 616
VWidth: 0
Flags: W
HStem: -8.98828 35.6094<357.914 471.798> 0 15.9473<58.9502 96.9749 203.24 238> 705.543 29.2389<231.878 333.494>
VStem: 114.823 73.9561<21.5181 649.801> 250.101 70.8994<402.13 472.233> 386.129 40.8711<576.369 665.555> 512.658 55.3161<73.4621 185.605>
LayerCount: 2
Fore
SplineSet
111.194335938 509.887695312 m 1x7e
 111.194335938 626.532226562 141.86328125 734.782226562 277.918945312 734.782226562 c 0
 359.759765625 734.782226562 427 711.068359375 427 636.793945312 c 0
 427 554.002929688 321 507.690429688 321 452 c 0
 321 399 367.869140625 383.349609375 448.201171875 324.272460938 c 0
 522 270 567.973632812 235 567.973632812 153.328125 c 0
 567.973632812 72.458984375 507.317382812 -8.98828125 391.135742188 -8.98828125 c 0
 292.981445312 -8.98828125 271.630859375 40.5185546875 252.690429688 63.564453125 c 0
 251.044472056 65.5671044286 250.388698278 68.4925679386 250.388698278 72.0000003558 c 7
 250.388698278 90.7346589435 272.193870459 126.073317554 285.000000257 126.073317554 c 3
 287.197418557 126.073317554 289.137059606 125.323520797 290.666992188 123.188476562 c 0
 308 99 342.979492188 26.62109375 415.939453125 26.62109375 c 0xbe
 468.894294742 26.62109375 512.657536331 64.428190745 512.657536331 127 c 3
 512.657536331 192.181518023 439.388473593 240.415133036 379.81640625 280.85546875 c 0
 316.96107361 323.52439309 250.100646454 362.596305477 250.100646454 417 c 3
 250.100646454 465.184821765 292.680886776 492.63962091 325 523 c 0
 355.856445312 551.986328125 386.12890625 584.588867188 386.12890625 619.169921875 c 0
 386.12890625 663.333516744 332.158994036 705.543326906 280.999998604 705.543326906 c 3
 193.379528636 705.543326906 188.775390625 616.243153432 188.775390625 510.912109375 c 2
 188.779296875 49 l 0
 189.24609375 36.1005859375 198.046875 22.1533203125 216.629882812 18.39453125 c 0
 224.586914062 16.78515625 229.708007812 16.05859375 238 15.947265625 c 1
 238 0 l 1
 58.9501953125 0 l 1
 58.9501953125 15.947265625 l 1
 67.2421875 16.05859375 75.365234375 16.7822265625 83.3212890625 18.39453125 c 0
 102.423828125 22.265625 110.950195312 35.7158203125 110.950195312 49 c 0
 114.823242188 226.40234375 l 1
 111.194335938 509.887695312 l 1x7e
EndSplineSet
Validated: 1
EndChar

StartChar: uniFB02
Encoding: 64258 64258 152
GlifName: uniF_B_02
Width: 520
VWidth: 0
Flags: W
HStem: 0 20<43.7471 75.5839 167.567 198.747 351.092 385.253 473.814 505.747> 463 42<33.0088 79.7471 163.95 324.186> 732 25.25<239.713 340.731>
VStem: 79.7471 83<20.5548 464.984> 79.7471 75.7158<505 656.153> 389.747 80<19.7984 693.528>
LayerCount: 2
Fore
SplineSet
50.7470703125 20 m 2xf4
 69.7577831321 20 79.7470703125 29.5944486929 79.7470703125 43.5947265625 c 2xf4
 79.7470703125 465.275390625 l 1
 41.7255859375 464.627929688 37.05078125 462.9609375 23 461.403320312 c 1
 33.0087890625 500 l 1
 79.7470703125 500 l 1
 79.7470703125 530 l 0
 79.7470703125 539.435546875 80.7470703125 552.435546875 80.7470703125 561 c 0
 80.7470703125 704.178710938 185.000241163 757.25 314.868617233 757.25 c 0
 339.139613569 757.25 365.667172273 753.295898438 391.280273438 742.459960938 c 1
 451.790039062 760.720703125 l 1
 453.704101562 761.267578125 455.357421875 761.413085938 456.747070312 761.413085938 c 0
 469.731445312 761.413085938 469.747070312 746.423828125 469.747070312 737 c 0
 469.747070312 43.12109375 l 1
 471.892578125 28.134765625 478.071289062 19 498.747070312 19 c 2
 505.747070312 19 l 1
 505.747070312 -1 l 1
 351.091897899 -1 l 1
 351.091796875 19 l 1
 358.655273438 19 l 2
 379.928608182 19 387.613982919 28.211814867 389.747070312 43.087890625 c 1
 389.747070312 659.206054688 l 1
 370.806083817 691.698242188 351.895507812 732 291.958007812 732 c 0
 219.034179688 732 155.462890625 666.857421875 155.462890625 566 c 0
 155.462896565 505 l 1xec
 288.079968668 505 l 0
 311.419537287 505 324.195327257 497.987304688 324.195327257 483.713867188 c 0
 324.195327257 474.115901747 320.332825312 468.374218653 315.712890625 463 c 1
 310.359375 463 l 0
 304.40234375 463 209.928710938 464.794921875 163.950195312 464.984375 c 1
 162.747070312 43.939453125 l 1
 164.913518353 29.0060345525 171.615989325 20 191.747070312 20 c 2
 198.747070312 20 l 1
 198.747070312 0 l 1
 43.7470703125 0 l 1
 43.7470703125 20 l 1
 50.7470703125 20 l 2xf4
EndSplineSet
Validated: 1
LCarets2: 1 0
Ligature2: "'liga' fl" f l
EndChar

StartChar: uniFB00
Encoding: 64256 64256 153
GlifName: uniF_B_00
Width: 664
VWidth: 0
Flags: W
HStem: 0 20<41.0381 72.4631 163.857 195.038 348.038 378.965 469.857 501.038> 465 40<30.4229 77.0381 159.038 384.038 465.038 615.821> 637.783 21G<664.091 705.323> 707 20.6738<236.375 321.186> 731 22.6328<539.931 615.201>
VStem: 77.0381 82<20.5257 465> 77.0381 74<505 627.399> 384.038 81<20.5554 464.984> 384.038 74<505 655.663>
LayerCount: 2
Fore
SplineSet
48.0380859375 20 m 2xfc80
 69.1516168561 20 74.839304963 28.782637506 77.0380859375 43.984375 c 1xfc80
 77.0380859375 466.25390625 l 1
 40.4219719213 465.397403611 33.8034872166 463.192450818 19 461.083007812 c 1
 30.4228515625 501 l 1
 77.0380859375 501 l 1
 77.0380859375 505 l 0
 77.0380859375 514.435546875 78.0380859375 527.435546875 78.0380859375 536 c 0
 78.0380859375 660.901367188 166.684570312 727.673828125 278.81640625 727.673828125 c 0
 326.280273438 727.673828125 387.15625 715.283203125 421.377929688 678.640625 c 1
 456.170898438 726.586914062 521.010742188 753.6328125 583.744140625 753.6328125 c 0
 630.080078125 753.6328125 689.075195312 745.21875 739.26953125 688.650390625 c 0
 742.794921875 684.684570312 744.956054688 680.05859375 744.956054688 675.189453125 c 0
 744.956054688 655.318359375 713.608398438 637.783203125 697.038085938 637.783203125 c 0
 631.143554688 637.783203125 650.017578125 731 583.038085938 731 c 0
 514.255859375 731 458.038085938 656.788085938 458.038085938 556 c 0
 458.038085938 549.626953125 458.038085938 541.626953125 458.038085938 534 c 0
 458.038085938 505 l 1xfa80
 582.038085938 505 l 4
 603.961914062 505 615.911132812 497.583007812 615.911132812 483.16796875 c 4
 615.911132812 476.506835938 610.790039062 468.165039062 608.083007812 463 c 5
 603.038085938 463 l 4
 597.421875 463 508.375976562 464.794921875 465.038085938 464.984375 c 5
 465.038085938 43.939453125 l 5
 467.202148438 29.0048828125 473.907226562 20 494.038085938 20 c 6
 501.038085938 20 l 5
 501.038085938 0 l 5
 348.038085938 0 l 1
 348.038085938 20 l 1
 355.038085938 20 l 2
 375.297229886 20 381.955643558 29.5883075462 384.038085938 43.94140625 c 1xf9
 384.038085938 465 l 1
 159.038085938 465 l 1
 159.038085938 43.94140625 l 1
 161.202318611 29.005501138 167.906502898 20 188.038085938 20 c 2
 195.038085938 20 l 1
 195.038085938 0 l 1
 41.0380859375 0 l 1
 41.0380859375 20 l 1
 48.0380859375 20 l 2xfc80
151.038085938 505 m 1xfa80
 384.038085938 505 l 1
 384.038085938 530 l 2
 384.038085938 555.893461055 386.717173784 583.661430903 389.942382812 603.928710938 c 1
 384.224609375 633.69140625 349.663085938 707 280.995117188 707 c 0
 205.3359375 707 151.038085938 631.857421875 151.038085938 531 c 0
 151.038085938 505 l 1xfa80
EndSplineSet
Validated: 1
LCarets2: 1 -1
Ligature2: "'liga' ff" f f
EndChar

StartChar: uniFB01
Encoding: 64257 64257 154
GlifName: uniF_B_01
Width: 510
VWidth: 0
Flags: W
HStem: 0 20<31.0381 61.9698 151.821 183.038 331.038 361.965 451.851 483.038> 460 36<20.4229 67.0381 147.038 366.987> 489.413 20G<433.361 440.53> 740 24.168<223.24 312.577>
VStem: 67.0381 80<20.5565 460> 67.0381 72<496 662.392> 354.685 95.3535<621.173 700.743> 367.038 80<20.5552 459.992>
LayerCount: 2
Fore
SplineSet
338.038085938 20 m 2xb5
 358.296288371 20 364.955236461 29.584566276 367.038085938 43.935546875 c 1
 367.038085938 439.677734375 l 2
 367.038085938 457.504434326 359.358003989 460 344.038085938 460 c 2
 147.038085938 460 l 1
 147.038085938 43.935546875 l 1
 149.202995545 29.0017213375 155.768061994 20 176.038085938 20 c 2
 183.038085938 20 l 1
 183.038085938 0 l 1
 31.0380859375 0 l 1
 31.0380859375 20 l 1
 38.0380859375 20 l 2
 58.3090536471 20 64.9588233978 29.6075050007 67.0380859375 43.98046875 c 1xd9
 67.0380859375 461.268554688 l 1
 29.4221270976 460.410642126 23.8044910325 458.206780831 9 456.098632812 c 1
 20.4228515625 496 l 1
 67.0380859375 496 l 1
 67.0380859375 536 l 0
 67.0380859375 545.435546875 68.0380859375 558.435546875 68.0380859375 567 c 0
 68.0380859375 709.05078125 162.21875 764.16796875 296.024414062 764.16796875 c 0
 337.639648438 764.16796875 450.038085938 732.55859375 450.038085938 663 c 0
 450.038085938 633.997070312 429.6953125 613 400.038085938 613 c 0
 376.017578125 613 362.431640625 625.9765625 354.684570312 644.053710938 c 1
 334.829101562 683.53515625 335.701171875 740 274.291992188 740 c 0
 198.497070312 740 139.038085938 672.938476562 139.038085938 572 c 0
 139.038085938 496 l 1
 385.086914062 496 l 1xd6
 429.142578125 508.739257812 l 5
 430.91796875 509.24609375 432.68359375 509.413085938 434.038085938 509.413085938 c 4
 447.022460938 509.413085938 447.038085938 494.849609375 447.038085938 485.692382812 c 4
 447.038085938 43.9921875 l 5
 449.198242188 29.0283203125 455.891601562 20 476.038085938 20 c 6
 483.038085938 20 l 5
 483.038085938 0 l 5
 331.038085938 0 l 1
 331.038085938 20 l 1
 338.038085938 20 l 2xb5
EndSplineSet
Validated: 1
LCarets2: 1 0
Ligature2: "'liga' fi" f i
EndChar

StartChar: uniFB03
Encoding: 64259 64259 155
GlifName: uniF_B_03
Width: 798
VWidth: 0
Flags: W
HStem: 0 20<35.0381 65.9692 157.858 189.038 336.038 366.964 457.092 488.038 636.038 667.129 759.638 790.038> 456 40<24.4229 69.2981 153.038 372.038> 464 32<24.4229 71.0381 452.038 671.768> 489.413 20G<740.361 747.53> 707 20.7441<229.961 319.617> 740 24.168<527.559 613.694>
VStem: 71.0381 82<20.5564 456> 71.0381 74<496 625.038> 372.038 80<20.5551 456> 372.038 72<496 617.474> 657.685 98.3535<620.499 698.288> 672.038 82<20.5354 463.992>
LayerCount: 2
Fore
SplineSet
705.038085938 612 m 4xcd20
 682.017578125 612 665.431640625 623.9765625 657.684570312 642.053710938 c 5
 637.829101562 681.53515625 637.701171875 740 577.291992188 740 c 4
 501.497070312 740 444.038085938 662.938476562 444.038085938 562 c 4
 444.038085938 496 l 5
 690.086914062 496 l 5xad60
 736.142578125 508.739257812 l 5
 737.91796875 509.24609375 739.68359375 509.413085938 741.038085938 509.413085938 c 4x9d60
 754.022460938 509.413085938 754.038085938 494.849609375 754.038085938 485.692382812 c 4
 754.038085938 44.3857421875 l 5
 757.890227105 29.1707524484 763.054887536 20 783.038085938 20 c 6
 790.038085938 20 l 5
 790.038085938 0 l 5
 636.038085938 0 l 5
 636.038085938 20 l 5
 643.038085938 20 l 6
 663.827312796 20 669.99336093 29.8353589362 672.038085938 44.400390625 c 5
 672.038085938 443 l 6
 672.038085938 461.338135615 664.532648813 464 649.038085938 464 c 6
 452.038085938 464 l 5xac90
 452.038085938 44.400390625 l 5
 454.168136749 29.2154753651 460.634486324 20 481.038085938 20 c 6
 488.038085938 20 l 5
 488.038085938 0 l 5
 336.038085938 0 l 5
 336.038085938 20 l 5
 343.038085938 20 l 6
 363.294916086 20 369.954830968 29.5827911034 372.038085938 43.931640625 c 5
 372.038085938 456 l 5
 153.038085938 456 l 5
 153.038085938 43.931640625 l 5
 155.20290188 29.0007115291 161.908964879 20 182.038085938 20 c 6
 189.038085938 20 l 5
 189.038085938 0 l 5
 35.0380859375 0 l 5
 35.0380859375 20 l 5
 42.0380859375 20 l 6
 62.3076819083 20 68.9584200914 29.605727351 71.0380859375 43.9765625 c 5xce90
 71.0380859375 457.279296875 l 5
 33.421875 456.422851562 27.8037109375 454.219726562 13 452.111328125 c 5
 24.4228515625 492 l 5
 71.0380859375 492 l 5
 71.0380859375 505 l 4
 71.0380859375 514.435546875 72.0380859375 527.435546875 72.0380859375 536 c 4
 72.0380859375 655.454101562 159.36328125 727.744140625 272.521073191 727.744140625 c 4
 317.208675987 727.744140625 373.733398438 715.989257812 407.790039062 685.067382812 c 5
 445.08203125 739.982421875 511.578343633 764.16796875 601.023772738 764.16796875 c 4
 652.751953125 764.16796875 708.8984375 749.336914062 746.5 693.427734375 c 5
 754.432617188 684.481445312 756.038085938 670.135742188 756.038085938 661 c 4
 756.038085938 631.997070312 733.6953125 612 705.038085938 612 c 4xcd20
145.038085938 541 m 4
 145.038085938 496 l 5xad40
 372.038085938 496 l 5xcd40
 372.038085938 536 l 6
 372.038085938 565.727792281 375.167606069 595.578255613 379.80859375 618.555664062 c 5
 368.540039062 651.409179688 338.475585938 707 278.353515625 707 c 4
 202.381835938 707 145.038085938 641.857421875 145.038085938 541 c 4
EndSplineSet
Validated: 1
LCarets2: 2 0 0
Ligature2: "'liga' ffi" f f i
EndChar

StartChar: uniFB04
Encoding: 64260 64260 156
GlifName: uniF_B_04
Width: 832
VWidth: 0
Flags: W
HStem: 0 20<39.0381 69.9703 161.857 193.038 346.038 376.965 469.177 501.038 642.038 672.785 762.129 794.038> 465 40<28.4229 75.0381 157.038 382.038 465.038 615.82> 707 20.6738<235.376 321.279> 732 25.25<538.158 631.279>
VStem: 75.0381 82<20.5567 465> 75.1113 73.9268<505 625.657> 382.038 83<20.5554 464.984> 382.038 74<505 652.449> 678.038 80<19.5311 696.517>
LayerCount: 2
Fore
SplineSet
46.0380859375 20 m 6xf980
 66.3106071682 20 72.9589781627 29.6100234935 75.0380859375 43.984375 c 5
 75.0380859375 466.25390625 l 5xf980
 38.4219719213 465.397403611 31.8034872166 463.192450818 17 461.083007812 c 5
 28.4228515625 501 l 5
 75.111328125 501 l 5
 75.349609375 513.024414062 76.0380859375 525.100585938 76.0380859375 536 c 4
 76.0380859375 656.905273438 165.546875 727.673828125 276.81640625 727.673828125 c 4
 324.268554688 727.673828125 385.186523438 715.250976562 419.34375 678.676757812 c 5
 457.326171875 732.362304688 525.7734375 757.25 606.788085938 757.25 c 4
 629.653320312 757.25 654.702148438 753.283203125 678.614257812 742.4609375 c 5
 740.09375 760.724609375 l 5
 741.9765625 761.262695312 743.655273438 761.413085938 745.038085938 761.413085938 c 4
 758.022460938 761.413085938 758.038085938 746.423828125 758.038085938 737 c 4
 758.038085938 43.12109375 l 5
 760.186523438 28.1015625 766.458007812 19 787.038085938 19 c 6
 794.038085938 19 l 5
 794.038085938 -1 l 5
 642.038085938 -1 l 5
 642.038085938 19 l 5
 649.038085938 19 l 6
 669.833752412 19 674.487397217 29.3771329292 678.038085938 43.484375 c 5
 678.038085938 659.206054688 l 5
 664.01171875 691.698242188 640.532226562 732 584.038085938 732 c 4
 515.255859375 732 456.038085938 656.788085938 456.038085938 556 c 4
 456.038085938 549.626953125 456.038085938 541.626953125 456.038085938 534 c 4
 456.038085938 505 l 5xf580
 582.038085938 505 l 4
 603.961914062 505 615.911132812 497.583007812 615.911132812 483.16796875 c 4
 615.911132812 473.889565931 612.382704833 468.306592788 608.083007812 463 c 5
 603.038085938 463 l 4
 597.421875 463 508.375976562 464.794921875 465.038085938 464.984375 c 5
 465.038085938 43.939453125 l 5
 467.313128586 28.2411858553 472.233466163 20 494.038085938 20 c 6
 501.038085938 20 l 5
 501.038085938 0 l 5
 346.038085938 0 l 5
 346.038085938 20 l 5
 353.038085938 20 l 6
 373.297229886 20 379.955643558 29.5883075462 382.038085938 43.94140625 c 5xf280
 382.038085938 465 l 5
 157.038085938 465 l 5
 157.038085938 43.94140625 l 5
 159.202318609 29.0055011376 165.906502899 20 186.038085938 20 c 6
 193.038085938 20 l 5
 193.038085938 0 l 5
 39.0380859375 0 l 5
 39.0380859375 20 l 5
 46.0380859375 20 l 6xf980
149.038085938 505 m 5xf580
 382.038085938 505 l 5
 382.038085938 530 l 6
 382.038085938 555.893461055 384.717173784 583.661430903 387.942382812 603.928710938 c 5
 382.224609375 633.69140625 349.663085938 707 280.995117188 707 c 4
 205.3359375 707 149.038085938 631.857421875 149.038085938 531 c 4
 149.038085938 505 l 5xf580
EndSplineSet
Validated: 1
LCarets2: 2 0 0
Ligature2: "'liga' ffl" f f l
EndChar

StartChar: uni02B9
Encoding: 697 697 157
GlifName: uni02B_9
Width: 187
VWidth: 0
Flags: W
HStem: 494 180<69.8242 117.959>
VStem: 58 72<559.812 671.317>
LayerCount: 2
Fore
SplineSet
92 674 m 2
 96 674 l 0
 117.575665284 674 130 656.615152816 130 636 c 0
 130 628.644983318 l 1
 117.964081861 510.291788285 l 1
 117.964081861 510.291788285 110.666056561 494 101 494 c 0
 87 494 l 0
 76.8708782569 494 70.7236642676 500.706748291 69.8775991694 511.848591486 c 1
 58 628.644983318 l 1
 58 634 l 0
 58 654.631474702 71.9012019561 674 92 674 c 2
EndSplineSet
Validated: 1
EndChar

StartChar: uni02BA
Encoding: 698 698 158
GlifName: uni02B_A_
Width: 304
VWidth: 0
Flags: W
HStem: 494 180<69.8242 117.959 185.824 233.959>
VStem: 58 73<559.812 671.198> 174 73<559.812 671.198>
LayerCount: 2
Fore
SplineSet
208 674 m 2
 212 674 l 0
 233.032518313 674 247 658.184604933 247 637 c 0
 247 635.269145265 246.619151267 630.366243306 245.883382856 627.498248073 c 1
 233.964081861 510.291788285 l 1
 233.964081861 510.291788285 226.666056561 494 217 494 c 0
 203 494 l 0
 192.870878257 494 186.723664268 500.706748291 185.877599169 511.848591486 c 1
 174 628.644983318 l 1
 174 634 l 0
 174 654.631474702 187.901201956 674 208 674 c 2
92 674 m 2
 96 674 l 0
 117.032518313 674 131 658.184604933 131 637 c 0
 131 635.269145265 130.619151267 630.366243306 129.883382856 627.498248073 c 1
 117.964081861 510.291788285 l 1
 117.964081861 510.291788285 110.666056561 494 101 494 c 0
 87 494 l 0
 76.8708782569 494 70.7236642676 500.706748291 69.8775991694 511.848591486 c 1
 58 628.644983318 l 1
 58 634 l 0
 58 654.631474702 71.9012019561 674 92 674 c 2
EndSplineSet
Validated: 1
EndChar

StartChar: quotedblleft
Encoding: 8220 8220 159
GlifName: quotedblleft
Width: 422
VWidth: 0
Flags: W
HStem: 545.642 250.479
VStem: 38.8245 121.913<563.07 636.101> 38.8245 53.5697<592.314 726.656> 230.008 122.332<563.441 636.84> 230.008 53.1991<592.295 727.857>
LayerCount: 2
Fore
SplineSet
352.339596411 598.003139536 m 0x90
 352.339596411 568.357352753 330.274936359 545.642128219 297.178670973 545.642128219 c 0
 270.647390141 545.642128219 242.002162255 562.147567322 235.508702868 592.294711676 c 0
 231.747546971 609.757373757 230.007974342 626.356890931 230.007974342 641.996399423 c 0
 230.007974342 727.249610457 281.745472608 783.869751871 338.626736863 796.121178639 c 2
 340.716513008 796.571287119 l 1
 341.026686487 794.45620925 l 1
 344.5393818 770.50308425 l 1
 344.810886418 768.651689954 l 1
 342.981633953 768.257721662 l 2
 300.85363834 759.184564863 283.20704815 711.481708073 283.20704815 680.139758543 c 0x88
 283.20704815 675.271609679 283.637216155 670.839400337 284.445399217 667.087121834 c 0
 289.431606647 643.936531187 352.339596411 648.341977378 352.339596411 598.003139536 c 0x90
160.737242008 597.45049059 m 0xc0
 160.737242008 567.746217041 138.707873986 545.064006972 105.689522368 545.064006972 c 0
 78.9809399658 545.064006972 50.1034852028 561.871005357 43.8543317042 592.313636991 c 0
 40.4185738052 609.050152546 38.8244563299 624.979185306 38.8244563299 640.018390996 c 0
 38.8244563299 726.415605809 91.4834900781 783.338990896 148.937676958 795.132976376 c 2
 151.031820155 795.562854438 l 1
 151.321409211 793.444749375 l 1
 154.600706086 769.459397812 l 1
 154.854158882 767.605599682 l 1
 153.021338518 767.229334696 l 2
 110.446917121 758.489108744 92.394128844 710.207378781 92.394128844 678.897775763 c 0xa0
 92.394128844 674.341616595 92.7803463614 670.182829479 93.5099241977 666.628755129 c 0
 98.2541809871 643.518741253 160.737242008 647.263293049 160.737242008 597.45049059 c 0xc0
EndSplineSet
EndChar

StartChar: second
Encoding: 8243 8243 160
GlifName: second
Width: 304
VWidth: 0
Flags: W
HStem: 501 166<75.875 111.771 191.875 227.771>
VStem: 65 59<560.167 666.305> 181 59<560.167 666.305>
LayerCount: 2
Fore
SplineSet
208 667 m 6
 212 667 l 6
 229 667 240 655 240 637 c 4
 240 635 240 632 239 629 c 6
 227 511 l 6
 227 505 223 501 217 501 c 6
 203 501 l 6
 197 501 193 505 193 511 c 6
 181 629 l 6
 181 631 181 633 181 634 c 4
 181 652 193 667 208 667 c 6
92 667 m 6
 96 667 l 6
 113 667 124 655 124 637 c 4
 124 635 124 632 123 629 c 6
 111 511 l 6
 111 505 107 501 101 501 c 6
 87 501 l 6
 81 501 77 505 77 511 c 6
 65 629 l 6
 65 631 65 633 65 634 c 4
 65 652 77 667 92 667 c 6
EndSplineSet
Validated: 1
EndChar

StartChar: quotedblright
Encoding: 8221 8221 161
GlifName: quotedblright
Width: 426
VWidth: 0
Flags: W
HStem: 487.871 250.068
VStem: 72.6117 121.911<646.902 719.932> 140.949 53.5737<556.348 690.686> 264.266 121.941<646.848 719.91> 332.663 53.544<556.272 690.688>
LayerCount: 2
Fore
SplineSet
72.6117480751 685.553092317 m 0xc0
 72.6117480751 715.25728367 94.6412562525 737.938533117 127.659973307 737.938533117 c 0
 154.368962927 737.938533117 183.246863052 721.130560276 189.495295183 690.686277694 c 0
 192.929593195 673.953174511 194.523054901 658.02729699 194.523054901 642.990921238 c 0
 194.523054901 556.588381101 141.859380078 499.663642513 84.4030879398 487.870918499 c 2
 82.3090758282 487.441129071 l 1
 82.0194219311 489.559077677 l 1
 78.7391484936 513.544429239 l 1
 78.4856028607 515.398354304 l 1
 80.318571459 515.774585149 l 2
 122.897008559 524.514135522 140.94932755 572.796226169 140.94932755 604.105564801 c 0xa0
 140.94932755 608.661234313 140.563223959 612.81941606 139.833797225 616.373337227 c 0
 135.091518886 639.482050476 72.6117480751 635.741601428 72.6117480751 685.553092317 c 0xc0
264.265869895 685.511059482 m 0x90
 264.265869895 715.20803445 286.280777822 737.896783237 319.32035058 737.896783237 c 0
 346.017495057 737.896783237 374.879293301 721.110859847 381.145397725 690.687678788 c 0
 384.603247332 673.900794546 386.207260537 657.925246608 386.207260537 642.844327662 c 0
 386.207260537 556.526861877 333.611423047 499.62438791 276.19646116 487.797960271 c 2
 274.102554208 487.366653897 l 1
 273.811579918 489.484625916 l 1
 270.516658043 513.468024353 l 1
 270.262001464 515.321643479 l 1
 272.094560309 515.699111245 l 2
 314.638323407 524.462212763 332.66321263 572.704702863 332.66321263 604.017116115 c 0x88
 332.66321263 608.594543124 332.274052804 612.77194585 331.539172248 616.33966661 c 0
 326.778409719 639.451923885 264.265869895 635.662475058 264.265869895 685.511059482 c 0x90
EndSplineSet
EndChar

StartChar: minute
Encoding: 8242 8242 162
GlifName: minute
Width: 187
VWidth: 0
Flags: W
HStem: 501 166<75.875 112.014>
VStem: 65 58<560.167 666.32>
LayerCount: 2
Fore
SplineSet
92 667 m 2
 96 667 l 2
 113 667 123 654 123 636 c 0
 123 634 123 631 123 629 c 2
 111 511 l 2
 111 505 107 501 101 501 c 2
 87 501 l 2
 81 501 77 505 77 511 c 2
 65 629 l 2
 65 631 65 633 65 634 c 0
 65 652 77 667 92 667 c 2
EndSplineSet
Validated: 1
EndChar

StartChar: quoteleft
Encoding: 8216 8216 163
GlifName: quoteleft
Width: 236
VWidth: 0
Flags: W
HStem: 545.389 250.302
VStem: 38.564 122.146<563.245 636.517> 38.564 53.3597<592.303 727.414>
LayerCount: 2
Fore
SplineSet
160.710454906 597.761434345 m 0xc0
 160.710454906 568.091978012 138.67008492 545.389082995 105.600737694 545.389082995 c 0
 78.9916541633 545.389082995 50.2442428785 562.026032385 43.8565500566 592.302978151 c 0
 40.2393144399 609.44915388 38.5639933687 625.756458743 38.5639933687 641.134584523 c 0
 38.5639933687 726.885441301 90.7029439132 783.638167294 147.835196473 795.691299767 c 2
 149.926967895 796.13259863 l 1
 150.228105287 794.016099483 l 1
 153.638261537 770.048326045 l 1
 153.90182541 768.195906762 l 1
 152.071047294 767.80967548 l 2
 109.747178241 758.88079324 91.9237305986 710.922960251 91.9237305986 679.593654528 c 0xa0
 91.9237305986 674.863643634 92.3342382541 670.552349432 93.1073141817 666.887465516 c 0
 97.9879659169 643.753348313 160.710454906 647.870509826 160.710454906 597.761434345 c 0xc0
EndSplineSet
EndChar

StartChar: quoteright
Encoding: 8217 8217 164
GlifName: quoteright
Width: 246
VWidth: 0
Flags: W
HStem: 486.572 250.604
VStem: 72.677 122.466<645.928 719.375> 142.059 53.0839<554.825 690.711>
LayerCount: 2
Fore
SplineSet
72.6769560408 684.822187841 m 0xc0
 72.6769560408 714.451104653 94.7596592764 737.176841236 127.873298614 737.176841236 c 0
 154.348288754 737.176841236 182.920977698 720.764717527 189.49000781 690.711230615 c 0
 193.35636617 673.021581818 195.142828095 656.212540077 195.142828095 640.385883665 c 0
 195.142828095 555.488933599 143.69317478 498.965766016 86.992494482 486.572495221 c 2
 84.904138935 486.116035869 l 1
 84.5874931154 488.230112371 l 1
 81.0015556154 512.171518621 l 1
 80.7243798176 514.022074682 l 1
 82.5524194209 514.421643661 l 2
 124.537868061 523.598733054 142.058906872 571.117883042 142.058906872 602.467774939 c 0xa0
 142.058906872 607.435743522 141.614317367 611.955313507 140.780491147 615.770255219 c 0
 135.718395651 638.933031825 72.6769560408 634.317934438 72.6769560408 684.822187841 c 0xc0
EndSplineSet
EndChar

StartChar: emdash
Encoding: 8212 8212 165
GlifName: emdash
Width: 697
VWidth: 0
Flags: W
HStem: 276 44<68.0352 616.947>
LayerCount: 2
Fore
SplineSet
77 276 m 5
 71 278 68 289 68 300 c 4
 68 311 71 320 77 320 c 5
 611 320 l 5
 615 320 617 307 617 295 c 4
 617 285 616 276 611 276 c 5
 77 276 l 5
EndSplineSet
Validated: 1
EndChar

StartChar: endash
Encoding: 8211 8211 166
GlifName: endash
Width: 515
VWidth: 0
Flags: W
HStem: 276 44<68.0352 445.947>
LayerCount: 2
Fore
SplineSet
77 276 m 1
 71 278 68 289 68 300 c 0
 68 311 71 320 77 320 c 1
 440 320 l 1
 444 320 446 307 446 295 c 0
 446 285 445 276 440 276 c 1
 77 276 l 1
EndSplineSet
Validated: 1
EndChar

StartChar: uni2010
Encoding: 8208 8208 167
GlifName: uni2010
Width: 403
VWidth: 0
Flags: W
HStem: 276 44<68 336>
VStem: 68 268<276 320>
LayerCount: 2
Fore
SplineSet
68 276 m 5
 68 320 l 5
 336 320 l 5
 336 276 l 5
 68 276 l 5
EndSplineSet
Validated: 1
EndChar

StartChar: uni2015
Encoding: 8213 8213 172
GlifName: uni2015
Width: 2000
VWidth: 0
Flags: W
HStem: 276 44<68 1933>
LayerCount: 2
Fore
SplineSet
68 276 m 1
 68 320 l 1
 1933 320 l 1
 1933 276 l 1
 68 276 l 1
EndSplineSet
Validated: 1
EndChar

StartChar: figuredash
Encoding: 8210 8210 173
GlifName: figuredash
Width: 539
VWidth: 0
Flags: W
HStem: 276 44<68 472>
LayerCount: 2
Fore
SplineSet
68 276 m 1
 68 320 l 1
 472 320 l 1
 472 276 l 1
 68 276 l 1
EndSplineSet
Validated: 1
EndChar

StartChar: uni2011
Encoding: 8209 8209 174
GlifName: uni2011
Width: 403
VWidth: 0
Flags: W
HStem: 276 44<68 336>
VStem: 68 268<276 320>
LayerCount: 2
Fore
SplineSet
68 276 m 1
 68 320 l 1
 336 320 l 1
 336 276 l 1
 68 276 l 1
EndSplineSet
Validated: 1
EndChar

StartChar: uni2034
Encoding: 8244 8244 175
GlifName: uni2034
Width: 427
VWidth: 0
Flags: W
HStem: 501 166<75.875 111.771 191.875 227.771 307.875 343.771>
VStem: 65 59<560.167 666.305> 181 59<560.167 666.305> 297 59<560.167 666.305>
CounterMasks: 1 70
LayerCount: 2
Fore
SplineSet
324 667 m 2
 328 667 l 2
 345 667 356 655 356 637 c 0
 356 635 356 632 355 629 c 2
 343 511 l 2
 343 505 339 501 333 501 c 2
 319 501 l 2
 313 501 309 505 309 511 c 2
 297 629 l 2
 297 631 297 633 297 634 c 0
 297 652 309 667 324 667 c 2
208 667 m 2
 212 667 l 2
 229 667 240 655 240 637 c 0
 240 635 240 632 239 629 c 2
 227 511 l 2
 227 505 223 501 217 501 c 2
 203 501 l 2
 197 501 193 505 193 511 c 2
 181 629 l 2
 181 631 181 633 181 634 c 0
 181 652 193 667 208 667 c 2
92 667 m 2
 96 667 l 2
 113 667 124 655 124 637 c 0
 124 635 124 632 123 629 c 2
 111 511 l 2
 111 505 107 501 101 501 c 2
 87 501 l 2
 81 501 77 505 77 511 c 2
 65 629 l 2
 65 631 65 633 65 634 c 0
 65 652 77 667 92 667 c 2
EndSplineSet
Validated: 1
EndChar

StartChar: uni2016
Encoding: 8214 8214 176
GlifName: uni2016
Width: 293
VWidth: 0
Flags: W
VStem: 63 44<-110.873 737.95> 180 44<-110.873 737.95>
LayerCount: 2
Fore
SplineSet
180 728 m 5
 182 734 193 738 204 738 c 4
 215 738 224 738 224 732 c 5
 224 -102 l 5
 224 -106 211 -111 199 -111 c 4
 189 -111 180 -111 180 -106 c 5
 180 728 l 5
63 728 m 1
 65 734 76 738 87 738 c 0
 98 738 107 738 107 732 c 1
 107 -102 l 1
 107 -106 94 -111 82 -111 c 0
 72 -111 63 -111 63 -106 c 1
 63 728 l 1
EndSplineSet
Validated: 1
EndChar

StartChar: guillemotleft
Encoding: 171 171 180
GlifName: guillemotleft
Width: 451
VWidth: 0
Flags: W
LayerCount: 2
Fore
SplineSet
180 342 m 4
 180 351.913085938 189.353515625 357.235351562 189.353515625 357.235351562 c 4
 269.870117188 428.694335938 318.604727022 463.637423936 368.666424776 522.533538941 c 0
 368.849915815 522.749410752 l 1
 369.050252532 522.949747468 l 0
 372.009268841 525.908763778 376.087511511 526 377 526 c 0
 385.079086999 526 393 518.921710497 393 509 c 0
 393 507.138738088 392.743101893 503.833727943 391.260990337 500.869504832 c 0
 391.092265936 500.532056029 l 1
 390.888249328 500.214696861 l 0
 355.822253943 445.667592929 311.54088018 393.322794749 253.784488089 343.046181218 c 1
 313.003428912 292.278996552 355.732147883 239.472572053 390.888249328 184.785303139 c 0
 391.092265936 184.467943971 l 1
 391.260990337 184.130495168 l 0
 392.743101893 181.166272057 393 177.861261912 393 176 c 0
 393 166.078289503 385.079086999 159 377 159 c 0
 376.087511511 159 372.009268841 159.091236222 369.050252532 162.050252532 c 0
 368.849915815 162.250589248 l 1
 368.666424776 162.466461059 l 0
 318.611923712 221.35410937 269.853515625 256.321289062 189.366210938 327.752929688 c 5
 189.366210938 327.752929688 180 332.39453125 180 342 c 4
42 342 m 4
 42 351.913085938 51.353515625 357.235351562 51.353515625 357.235351562 c 4
 131.870117188 428.694335938 180.604727022 463.637423936 230.666424776 522.533538941 c 0
 230.849915815 522.749410752 l 1
 231.050252532 522.949747468 l 0
 234.009268841 525.908763778 238.087511511 526 239 526 c 0
 247.079086999 526 255 518.921710497 255 509 c 0
 255 507.138738088 254.743101893 503.833727943 253.260990337 500.869504832 c 0
 253.092265936 500.532056029 l 1
 252.888249328 500.214696861 l 0
 217.822253943 445.667592929 173.54088018 393.322794749 115.784488089 343.046181218 c 1
 175.003428912 292.278996552 217.732147883 239.472572053 252.888249328 184.785303139 c 0
 253.092265936 184.467943971 l 1
 253.260990337 184.130495168 l 0
 254.743101893 181.166272057 255 177.861261912 255 176 c 0
 255 166.078289503 247.079086999 159 239 159 c 0
 238.087511511 159 234.009268841 159.091236222 231.050252532 162.050252532 c 0
 230.849915815 162.250589248 l 1
 230.666424776 162.466461059 l 0
 180.611923712 221.35410937 131.853515625 256.321289062 51.3662109375 327.752929688 c 5
 51.3662109375 327.752929688 42 332.39453125 42 342 c 4
EndSplineSet
Validated: 1
EndChar

StartChar: guillemotright
Encoding: 187 187 181
GlifName: guillemotright
Width: 451
VWidth: 0
Flags: W
LayerCount: 2
Fore
SplineSet
258 342 m 4
 258 332.39453125 248.633789062 327.752929688 248.633789062 327.752929688 c 5
 168.147460938 256.321289062 119.387940404 221.353949506 69.3335752243 162.466461059 c 0
 69.1500841851 162.250589248 l 1
 68.9497474683 162.050252532 l 0
 65.9907311588 159.091236222 61.9124884889 159 61 159 c 0
 52.9209130011 159 45 166.078289503 45 176 c 0
 45 177.861261912 45.2568981072 181.166272057 46.739009663 184.130495168 c 0
 46.9077340643 184.467943971 l 1
 47.1117506724 184.785303139 l 0
 82.1206978887 239.243665476 126.502681924 293.570154514 184.215511911 343.046181218 c 1
 124.947949111 394.638260328 82.3360585002 445.421329129 47.1117506724 500.214696861 c 0
 46.9077340643 500.532056029 l 1
 46.739009663 500.869504832 l 0
 45.2568981072 503.833727943 45 507.138738088 45 509 c 0
 45 518.921710497 52.9209130011 526 61 526 c 0
 61.9124884889 526 65.9907311588 525.908763778 68.9497474683 522.949747468 c 0
 69.1500841851 522.749410752 l 1
 69.3335752243 522.533538941 l 0
 119.388218745 463.645723034 168.146484375 428.678710938 248.633789062 357.247070312 c 4
 248.633789062 357.247070312 258 351.901367188 258 342 c 4
396 342 m 4
 396 332.39453125 386.633789062 327.752929688 386.633789062 327.752929688 c 5
 306.147460938 256.321289062 257.387940404 221.353949506 207.333575224 162.466461059 c 0
 207.150084185 162.250589248 l 1
 206.949747468 162.050252532 l 0
 203.990731159 159.091236222 199.912488489 159 199 159 c 0
 190.920913001 159 183 166.078289503 183 176 c 0
 183 177.861261912 183.256898107 181.166272057 184.739009663 184.130495168 c 0
 184.907734064 184.467943971 l 1
 185.111750672 184.785303139 l 0
 220.120697889 239.243665476 264.502681924 293.570154514 322.215511911 343.046181218 c 1
 262.947949111 394.638260328 220.3360585 445.421329129 185.111750672 500.214696861 c 0
 184.907734064 500.532056029 l 1
 184.739009663 500.869504832 l 0
 183.256898107 503.833727943 183 507.138738088 183 509 c 0
 183 518.921710497 190.920913001 526 199 526 c 0
 199.912488489 526 203.990731159 525.908763778 206.949747468 522.949747468 c 0
 207.150084185 522.749410752 l 1
 207.333575224 522.533538941 l 0
 257.388218745 463.645723034 306.146484375 428.678710938 386.633789062 357.247070312 c 4
 386.633789062 357.247070312 396 351.901367188 396 342 c 4
EndSplineSet
Validated: 1
EndChar

StartChar: registered
Encoding: 174 174 182
GlifName: registered
Width: 675
VWidth: 0
Flags: W
HStem: 94.6387 48.1084<195.603 379.061> 196.36 16.1504<143.492 160.646 235.715 253.375 414.666 425.916> 343.478 20.583<226.699 249.106> 496.21 17.5205<149.373 161.343 227.612 293.634> 566.253 42.1084<200.897 371.35>
VStem: 17.957 52.1074<263.79 438.849> 168.831 57.0258<226.494 343.812 364.061 493.463> 335.765 56.9307<385.389 473.797> 487.936 52.1074<258.454 445.416>
LayerCount: 2
Fore
SplineSet
17.95703125 349.063476562 m 0
 17.95703125 493.83799431 143.608169038 608.361328125 287.73046875 608.361328125 c 0
 432.310251353 608.361328125 540.04296875 493.191178147 540.04296875 349.063476562 c 0
 540.04296875 204.873597441 433.919779777 94.638671875 289.475585938 94.638671875 c 0
 145.585305822 94.638671875 17.95703125 204.099781079 17.95703125 349.063476562 c 0
142.985351562 508.107852585 m 1
 98.6860265408 467.624545413 70.064453125 410.176701389 70.064453125 349.063476562 c 0
 70.064453125 288.380376969 98.8031679014 234.330415914 142.985351562 196.789856352 c 1
 142.985351562 212.510742188 l 1
 149.985351562 212.510742188 l 2
 153.139648438 212.510742188 157.03770574 213.018307366 160.823242188 215.005859375 c 0
 167.180664062 218.34375 168.905273438 226.31142812 168.905273438 227.280273438 c 0
 168.905273438 234.560465008 168.831054688 330.134910022 168.831054688 401.435546875 c 0
 168.831054688 439.493534785 168.905273438 466.882750077 168.905273438 475.76953125 c 0
 168.905273438 480.616556139 166.248046875 490.997070312 161.520507812 493.58984375 c 0
 157.775018039 495.644021678 152.041015625 496.209960938 147.985351562 496.209960938 c 2
 142.985351562 496.209960938 l 1
 142.985351562 508.107852585 l 1
149.372660422 513.73046875 m 1
 162.9453125 513.73046875 l 2
 193.610775868 513.73046875 230.061103281 514.540039062 260.955078125 514.540039062 c 0
 332.97901879 514.540039062 392.6953125 487.798307346 392.6953125 424.919921875 c 0
 392.6953125 381.093803062 356.477530765 352.947086796 321.85235133 342.921936486 c 1
 360.052149385 294.755847973 395.456054688 241.926757812 414.486328125 220.61328125 c 0
 418.341796875 215.986328125 420.940429688 214.568359375 423.239257812 214.032226562 c 0
 441.783203125 213.432617188 l 0
 467.358398438 248.442382812 487.935546875 300.369448643 487.935546875 349.063476562 c 0
 487.935546875 465.317150381 402.718728944 566.252929688 287.73046875 566.252929688 c 0
 236.693535306 566.252929688 187.810694978 546.135637432 149.372660422 513.73046875 c 1
225.8568357 364.060546875 m 2
 236.655273438 364.060546875 l 2
 295.257918991 364.060546875 335.764648438 388.4140625 335.764648438 427.110351562 c 0
 335.764648438 472.825195312 290.439453125 495.780273438 261.764648438 495.780273438 c 0
 248.368164062 495.780273438 234.424804688 496.166015625 229.849609375 496.166015625 c 0
 227.795898438 496.166015625 227.803710938 496.137695312 227.612304688 496.134765625 c 0
 227.115234375 476.526367188 225.9140625 416.729858239 225.9140625 378.879882812 c 0
 225.9140625 373.642405779 225.877774567 368.030742698 225.8568357 364.060546875 c 2
143.492370422 196.360351562 m 1
 183.039407991 162.960248928 234.853351957 142.747070312 289.475585938 142.747070312 c 0
 344.310311526 142.747070312 391.552470575 163.414616379 425.916068748 196.360351562 c 1
 375.974609375 196.360351562 l 2
 350.447493068 196.360351562 335.759149383 227.62607997 332.145352083 231.239332696 c 2
 331.856852562 231.527788741 l 1
 249.106445312 343.653320312 l 2
 244.537109375 343.586914062 240.849609375 343.477539062 237.275390625 343.477539062 c 0
 234.071289062 343.477539062 228.6796875 343.6875 226.69921875 343.811523438 c 2
 227.455078125 226.494390885 l 1
 227.455078125 226.494390885 229 218.375976562 235.537109375 215.005859375 c 0
 239.337141047 213.046805103 243.220703125 212.510742188 246.375 212.510742188 c 2
 253.375 212.510742188 l 1
 253.375 196.360351562 l 1
 143.492370422 196.360351562 l 1
EndSplineSet
Validated: 1
EndChar

StartChar: copyright
Encoding: 169 169 183
GlifName: copyright
Width: 601
VWidth: 0
Flags: W
HStem: 39.8672 45.25<216.744 400.715> 150.776 42.7402<257.37 392.279> 459.384 34.3535<249.99 334.046> 553.883 45.25<215.124 399.092>
VStem: 17.0049 55.25<226.601 411.592> 140.973 65.417<247.668 416.14> 525.745 55.25<217.559 420.65>
LayerCount: 2
Fore
SplineSet
424.075195312 225.310546875 m 1
 438.881200599 206.381382335 l 1
 398.984929795 169.533400615 361.766609511 150.776367188 304.176757812 150.776367188 c 0
 216.895501251 150.776367188 140.97265625 214.258988711 140.97265625 327.068359375 c 0
 140.97265625 435.203620566 203.320526803 493.737304688 301.458007812 493.737304688 c 0
 339.542284742 493.737304688 386.199661257 475.975759707 424.284505601 435.873375884 c 0
 426.867468311 433.152770898 429.352539062 429.607960296 429.352539062 424.921875 c 0
 429.352539062 407.445062783 404.305361067 402.317382812 392.36328125 402.317382812 c 0
 340.690013028 402.317382812 348.625976562 459.383789062 295.780273438 459.383789062 c 0
 243.009765625 459.383789062 206.389648438 400.793432509 206.389648438 334.287109375 c 0
 206.389648438 263.071653708 241.990234375 193.516601562 324.513671875 193.516601562 c 0
 354.447265625 193.516601562 391.5 202.369140625 424.075195312 225.310546875 c 1
72.2548828125 319.02734375 m 0
 72.2548828125 194.087472392 184.444335938 85.1171875 310.33984375 85.1171875 c 4
 435.588867188 85.1171875 525.745117188 193.174762507 525.745117188 319.02734375 c 0
 525.745117188 444.827457958 433.716796875 553.8828125 308.450195312 553.8828125 c 0
 182.64453125 553.8828125 72.2548828125 444.066470871 72.2548828125 319.02734375 c 0
17.0048828125 319.02734375 m 0
 17.0048828125 475.394649292 152.73611949 599.1328125 308.450195312 599.1328125 c 0
 464.62270825 599.1328125 580.995117188 474.747829712 580.995117188 319.02734375 c 0
 580.995117188 163.352690375 466.526876905 39.8671875 310.33984375 39.8671875 c 0
 154.704261335 39.8671875 17.0048828125 162.576817617 17.0048828125 319.02734375 c 0
EndSplineSet
Validated: 1
EndChar

StartChar: degree
Encoding: 176 176 185
GlifName: degree
Width: 186
VWidth: 0
Flags: W
HStem: 483.176 42.5488<61.5166 121.281> 596.035 42.5488<60.3664 121.75>
VStem: 13.959 43.2168<529.243 592.537> 124.824 42.2168<528.582 593.264>
LayerCount: 2
Fore
SplineSet
57.17578125 561.879882812 m 0
 57.17578125 543.940532044 72.2908315932 525.724609375 92.3310546875 525.724609375 c 0
 108.557695596 525.724609375 124.82421875 541.128372024 124.82421875 560.879882812 c 0
 124.82421875 578.985502473 110.204670477 596.03515625 92.3310546875 596.03515625 c 0
 73.4962784541 596.03515625 57.17578125 581.13533769 57.17578125 561.879882812 c 0
13.958984375 558.879882812 m 0
 13.958984375 599.594966708 46.4045942303 638.583984375 88.337890625 638.583984375 c 0
 129.733619426 638.583984375 167.041015625 601.273184297 167.041015625 559.879882812 c 0
 167.041015625 518.471632403 130.924247389 483.17578125 89.6689453125 483.17578125 c 0
 48.3882268895 483.17578125 13.958984375 517.598947238 13.958984375 558.879882812 c 0
EndSplineSet
Validated: 1
EndChar

StartChar: thorn
Encoding: 254 254 188
GlifName: thorn
Width: 526
VWidth: 0
Flags: W
HStem: -232 15.5625<35 64.3503 143.884 173.123> -12.7969 21.7861<215.894 318.016> 479.146 29.917<178.077 313.249> 734.2 13.585<37.4092 51.6306>
VStem: 71.2266 65.8223<-215.212 23.4873 71.6936 456.835 470.669 730.678> 411.152 76.0205<116.82 370.453>
LayerCount: 2
Fore
SplineSet
156.1640625 -214.731445312 m 0
 161.701171875 -215.854492188 167.352539062 -216.360351562 173.123046875 -216.4375 c 1
 173.123046875 -232 l 1
 35 -232 l 1
 35 -216.4375 l 1
 40.771484375 -216.360351562 46.4208984375 -215.8515625 51.9599609375 -214.731445312 c 0
 64.845703125 -212.125 69.7548828125 -203.587890625 71.2265625 -194.62109375 c 2
 71.2265625 695.853515625 l 2
 71.2265625 714.216796875 64.80859375 726.307617188 51.8798828125 730.8984375 c 0
 46.5556640625 732.7890625 41.57421875 734.200195312 37.4091796875 734.200195312 c 1
 37.4091796875 747.78515625 l 1
 128.112304688 771.982421875 l 2
 129.190429688 772.270507812 130.149414062 772.366210938 131 772.366210938 c 3
 135.568359375 772.366210938 137.00390625 767.109375 137.048828125 755.129882812 c 0
 137.048828125 746.642578125 137.044921875 479.15625 137.044921875 470.668945312 c 1
 171.065429688 495.611328125 206.864257812 509.063476562 257.282226562 509.063476562 c 0
 378.114257812 509.063476562 487.172851562 448.803710938 487.172851562 251 c 3
 487.172851562 72.630859375 407.973632812 -12.796875 260 -12.796875 c 3
 222.524414062 -12.796875 178.56640625 -4.197265625 136.983398438 23.4873046875 c 1
 136.954101562 -194.954101562 l 2
 138.4921875 -203.797851562 143.438476562 -212.150390625 156.1640625 -214.731445312 c 0
137.041992188 445.549804688 m 1
 136.997070312 117.901367188 l 1
 156.577148438 60.068359375 192.034179688 8.9892578125 269.612304688 8.9892578125 c 0
 354.774414062 8.9892578125 411.15234375 92.0771484375 411.15234375 214.819335938 c 0
 411.15234375 371.513671875 369.494140625 479.146484375 242 479.146484375 c 3
 212.106445312 479.146484375 175.725585938 467.590820312 137.041992188 445.549804688 c 1
EndSplineSet
Validated: 1
EndChar

